<?xml version="1.0" encoding="utf-8"?>
<!-- Generator: Adobe Illustrator 18.0.0, SVG Export Plug-In . SVG Version: 6.00 Build 0)  -->
<!DOCTYPE svg PUBLIC "-//W3C//DTD SVG 1.1//EN" "http://www.w3.org/Graphics/SVG/1.1/DTD/svg11.dtd">
<svg version="1.1" id="Layer_1" xmlns="http://www.w3.org/2000/svg" xmlns:xlink="http://www.w3.org/1999/xlink" x="0px" y="0px"
	 viewBox="0 0 372.8 128.1" enable-background="new 0 0 372.8 128.1" xml:space="preserve">
<g>
	<polyline fill="#00A651" points="40,99.2 20.4,42.5 2.2,42.5 2.2,126.5 20,126.5 20,96.3 30.5,126.5 49.5,126.5 59.8,97.2 
		59.8,126.5 78.8,126.5 78.8,42.5 59.8,42.5 40,99.2 	"/>
	<polyline fill="#00A651" points="106.4,126.5 87.5,126.5 87.5,42.5 106.4,42.5 106.4,126.5 	"/>
	<polyline fill="#00A651" points="230.8,42.5 177,42.5 164.6,42.5 158.1,42.5 158.1,89.4 134.4,42.5 115.1,42.5 115.1,126.5 
		134.1,126.5 134.1,79.5 157.8,126.5 177,126.5 177,61.5 194.9,61.5 194.9,126.5 213.9,126.5 213.9,61.5 230.8,61.5 230.8,42.5 	"/>
	<g>
		<path d="M10.3,0.3c3.3-0.6,6.7,0.1,10.3,2.1L21.9,2c1-1.9,2.9-2.1,5.6-0.9v2.6c-2,1.8-2.7,4.4-2.2,7.8l-1.7,1.7l-2.6-0.4
			C20,4.4,15.4,2.8,7.3,8c-3,8.2-2.7,14.2,0.9,18c1.8,3.9,5.2,5,10.3,3.4c0.4-1.9,1.7-3.7,3.9-5.2c-0.3-2.7-1.7-3.7-4.3-3
			c-3.2-1.4-3.4-2.7-0.4-3.9c1.4,0.2,3.2,0.1,5.2-0.4h1.3c0.9,0.3,2,0.4,3.4,0.4h1.3c0.4,2.2-0.7,3.7-3.4,4.7
			c0.2,2.1,0.9,4.4,2.2,6.9v1.3l0.4,1.3l0.4,0.9l-0.9,2.1c-1.7,0.3-3.4-0.1-5.2-1.3l-2.2,1.3c-2.1,0.4-4.7,0.6-7.7,0.4l-0.9,0.4
			h-1.3c-0.4-1.1-1.1-2-2.1-2.6c-4.5-3.5-6.7-8.4-6.5-14.6c-0.2-1.1-0.8-2.2-1.7-3.4L1.7,14C2.4,8.6,5.2,4,10.3,0.3z"/>
		<path d="M59.9,0.2C64.1,1.4,65.6,5,64.6,11c-0.8,0.4-1.5,0.9-2.2,1.7c-2.2-0.7-2.7-2.2-1.7-4.3c-1.1-0.7-1.7-1.9-1.7-3.4
			c-2,0.6-4.3,0.6-6.9,0h-3c3.3,2.2,2.3,2.6-3,1.3l-0.4,3c0.6,2.2,0.4,4.7-0.4,7.4c2.3,0.4,3.8-0.5,4.3-2.6c1.2,0.6,2.3-0.6,3.5-3.4
			l3.4,1.3c-0.6,2.5-0.4,5,0.4,7.8c-0.7,0.6-1.2,1.3-1.7,2.2c-2.2-0.4-5-0.4-8.2,0c0.3,0.9,1,1.4,2.2,1.7c-1.9-0.4-3,0.3-3.5,2.2
			l0.9-0.9l0.4,1.7c-1.4,0.6-1.6,1.9-0.9,3.9c10,0.4,13.8-1.1,11.7-4.8c0.9-0.6,1.3-1.4,1.3-2.6l2.6-1.7l3.4,0.9
			c-0.3,2,0,4.2,0.9,6.5c-0.4,0.4-0.6,0.9-0.4,1.3c-0.6,0.9-0.9,2.1-0.9,3.5l-1.3,1.7c-2.5,0.4-5.4,0.3-8.6-0.4l-3-0.4h-1.3h-3.5
			h-1.7l-0.8,0.9c-2.5-0.7-5.1-0.7-7.8,0c-0.1-0.3-0.4-0.6-0.9-0.9c-0.4-3.5,1.9-5,6.9-4.3c-1.3-7.8-0.1-11.4,3.4-10.8
			c-2.8-3.7-3.9-8.2-3.4-13.4c-1.7-1.3-3.8-1.6-6.5-0.9l-0.4-2.2c0.6-0.4,1.2-0.9,1.7-1.7C39,0.7,40.9,0.9,43,1.5
			c1.7-0.4,3.8-0.4,6.1,0c1.9-0.4,4.3-0.7,7.3-0.9L58.1,1C58.8,1,59.4,0.7,59.9,0.2z M56,25.7c0.7,0.7,0.6,1.1-0.4,1.3L56,25.7z"/>
		<path d="M72.8,7.2c1.2,1.7,3,3.2,5.4,4.5c-0.2,1.6-1.4,2-3.6,1.4C72.3,17.7,71.7,15.7,72.8,7.2z M76.4,0c2.6,0.8,5.7,0.8,9,0
			c3,1.3,7.1,1.3,12.2,0c0.7,2,2,3.5,4.1,4.5c-0.4,0.8-1.1,1.4-2.2,1.8c1.4,6.5,0.4,10.1-3.2,10.9c-0.3-1.3-0.9-2.6-1.8-4.1
			c1.3-2,1.6-4.2,0.9-6.8c-2.2,0-4.4,0.5-6.8,1.4l-1.8-1.4c-1.4,5.6-0.2,7.6,3.6,5.9v3.6L88.2,14c-1.4,4.7-1.2,9.9,0.4,15.4
			l-0.4,1.4c5.5-0.8,8,0.4,7.7,3.6c-3.2,1.2-6.5,1.1-9.9-0.4c-1.8,0.8-3.9,1.3-6.3,1.4h-1.8L76,34.8c-0.2-1.6,0.3-3.1,1.4-4.5
			c2,0.9,4.4,1.1,7.2,0.4l-0.9-7.2c1.5-3.1,1.5-6.7,0-10.9c0.7-1.2,1.1-2.7,1.4-4.5c-1.6-1-2.4-2.7-2.3-5c-0.8,0.2-1.7,0.2-2.7,0
			c-2.2-0.8-3.2,0.3-3.2,3.2l-4.1,0.4c0.2-1.6,0-3.4-0.4-5.4C73.6,1.4,74.9,0.9,76.4,0z"/>
	</g>
	<g>
		<path d="M284.6,39.9c10.4,3,14.3,12,11.8,26.9c-2,0.9-3.8,2.3-5.4,4.3c-5.4-1.8-6.8-5.4-4.3-10.8c-2.7-1.8-4.2-4.6-4.3-8.6
			c-5,1.4-10.7,1.4-17.2,0h-7.5c8.2,5.4,5.7,6.4-7.6,3.2l-1,7.5c1.4,5.6,1.1,11.7-1.1,18.3c5.8,0.9,9.3-1.3,10.8-6.5
			c2.9,1.4,5.8-1.4,8.6-8.6l8.6,3.2c-1.4,6.1-1.1,12.6,1.1,19.4c-1.6,1.4-3.1,3.2-4.3,5.4c-5.6-1.1-12.4-1.1-20.5,0
			c0.7,2.1,2.5,3.6,5.4,4.3c-4.7-1.1-7.5,0.7-8.6,5.4l2.2-2.2l1,4.3c-3.4,1.6-4.1,4.8-2.2,9.7c24.8,1.1,34.4-2.9,29-11.8
			c2.2-1.4,3.3-3.6,3.3-6.5l6.5-4.3l8.6,2.2c-0.7,5,0,10.4,2.2,16.1c-1.1,1.1-1.4,2.2-1,3.2c-1.4,2.3-2.2,5.2-2.2,8.6l-3.3,4.3
			c-6.3,1-13.4,0.7-21.5-1.1l-7.5-1H261h-8.6H248l-2.1,2.2c-6.3-1.8-12.7-1.8-19.4,0c-0.2-0.7-0.9-1.5-2.2-2.2
			c-0.9-8.8,4.8-12.4,17.2-10.8c-3.2-19.3-0.4-28.3,8.6-26.9c-7-9.3-9.8-20.4-8.6-33.3c-4.1-3.2-9.5-3.9-16.1-2.2l-1-5.4
			c1.6-0.9,3-2.3,4.3-4.3c4-0.7,8.6-0.4,14,1c4.3-0.9,9.3-0.9,15.1,0c4.6-1,10.7-1.8,18.2-2.2l4.3,1.1
			C281.9,41.9,283.4,41.2,284.6,39.9z M275,103.3c1.8,1.6,1.4,2.7-1.1,3.2L275,103.3z"/>
	</g>
	<g>
		<path d="M299.6,40.7l16.8,1l2.1-1h3.2l5.2,1h3.1h11.6c3,2.4,6.8,4.2,11.5,5.2c4.2,5.8,7.4,13.2,9.5,22.2c0.2,0.7,0.9,1.4,2.1,2.1
			l1,7.3l-3.1,1c1.2,12.5-0.2,19.5-4.2,21l2.1,8.5c-2.4,1.7-4.2,4.2-5.3,7.3c-1.9,0.9-3.7,2.3-5.2,4.3c-2.3,1-4.4,2.4-6.3,4.2
			c-6.3-1.4-12.7-0.3-18.9,3.1c-4.2-1.6-9.2-1.9-14.7-1l-14.7-2.1c-0.2-8.9,4.8-13.2,14.7-12.7c1.2-6.8,1.6-15.6,1-26.3l1.1-3.2
			c0.9-0.2,1.6-0.9,2.1-2.1c-3.8-5.2-4.5-14-2.1-26.3l-17.9-4.2C295.1,47.4,296.8,44.2,299.6,40.7z M333.3,50.2
			c-4.7,2.1-9,5.6-12.6,10.5c1.1,3,1.1,6.2,0,9.5c2.3,3.7,2.3,7.5,0,11.5l1.1,6.4l1,7.3v4.2l-2.2,2.1l2.2,4.3
			c-0.3,0.7-1.1,1.4-2.2,2.1l1.1,3.1c9.4,2.6,18.6,0.5,27.3-6.3c6-1,7.7-3.9,5.2-8.5c6-7.3,5.6-14.7-1-22.1c1-6.1-1.4-10.4-7.3-12.7
			C343.9,56.2,339.7,52.3,333.3,50.2z"/>
	</g>
	<g>
		<path d="M367.4,116.3c0.9,0,2,0,3.1,0.3h0.8c2.4,3.9,1.8,7.2-1.7,10.2v0.8c-3.4,0.4-5.8-1.1-7.1-4.5l1.1-1.1
			C364.1,119.8,365.3,117.9,367.4,116.3z"/>
	</g>
</g>
</svg>
