<?xml version="1.0" encoding="utf-8"?>
<!-- Generator: Adobe Illustrator 18.0.0, SVG Export Plug-In . SVG Version: 6.00 Build 0)  -->
<!DOCTYPE svg PUBLIC "-//W3C//DTD SVG 1.1//EN" "http://www.w3.org/Graphics/SVG/1.1/DTD/svg11.dtd">
<svg version="1.1" id="Layer_1" xmlns="http://www.w3.org/2000/svg" xmlns:xlink="http://www.w3.org/1999/xlink" x="0px" y="0px"
	 viewBox="0 0 900 650" enable-background="new 0 0 900 650" xml:space="preserve">
<polyline fill="#00A651" points="112.3,295.5 66.8,164.1 24.7,164.1 24.7,358.8 65.9,358.8 65.9,288.8 90.2,358.8 134.3,358.8 
	158.2,290.9 158.2,358.8 202.2,358.8 202.2,164.1 158.2,164.1 112.3,295.5 "/>
<polyline fill="#00A651" points="266.2,358.8 222.4,358.8 222.4,164.1 266.2,164.1 266.2,358.8 "/>
<polyline fill="#00A651" points="554.5,164.1 429.8,164.1 401,164.1 386,164.1 386,272.8 331,164.1 286.3,164.1 286.3,358.8 
	330.4,358.8 330.4,249.8 385.3,358.8 429.8,358.8 429.8,208.1 471.3,208.1 471.3,358.8 515.3,358.8 515.3,208.1 554.5,208.1 
	554.5,164.1 "/>
<polyline fill="#00A651" points="55.9,556.4 36,499 17.6,499 17.6,584.1 35.6,584.1 35.6,553.5 46.2,584.1 65.5,584.1 75.9,554.4 
	75.9,584.1 95.2,584.1 95.2,499 75.9,499 55.9,556.4 "/>
<polyline fill="#00A651" points="123.1,584.1 104,584.1 104,499 123.1,499 123.1,584.1 "/>
<polyline fill="#00A651" points="249.2,499 194.7,499 182.1,499 175.5,499 175.5,546.5 151.5,499 131.9,499 131.9,584.1 
	151.2,584.1 151.2,536.5 175.2,584.1 194.7,584.1 194.7,518.2 212.8,518.2 212.8,584.1 232,584.1 232,518.2 249.2,518.2 249.2,499 
	"/>
<g>
	<path d="M43.4,66.3c7.6-1.4,15.5,0.2,23.9,4.9l3-0.9c2.3-4.4,6.7-4.9,13-2.1v6c-4.6,4.2-6.3,10.2-5.1,18.1l-3.9,3.9l-6-0.9
		c-2.3-19.5-13-23.2-31.8-11.1c-7,19-6.3,32.9,2.1,41.7c4.2,9,12.1,11.6,23.9,7.9c0.9-4.4,3.9-8.6,9-12.1c-0.7-6.3-3.9-8.6-10-7
		c-7.4-3.2-7.9-6.3-0.9-9c3.2,0.5,7.4,0.2,12.1-0.9h3c2.1,0.7,4.6,0.9,7.9,0.9h3c0.9,5.1-1.6,8.6-7.9,10.9c0.5,4.9,2.1,10.2,5.1,16
		v3l0.9,3l0.9,2.1l-2.1,4.9c-3.9,0.7-7.9-0.2-12.1-3l-5.1,3c-4.9,0.9-10.9,1.4-17.8,0.9l-2.1,0.9h-3c-0.9-2.5-2.5-4.6-4.9-6
		c-10.4-8.1-15.5-19.5-15.1-33.8c-0.5-2.5-1.9-5.1-3.9-7.9l3.9-1.6C25.1,85.5,31.6,74.9,43.4,66.3z"/>
	<path d="M158.4,66c9.7,2.8,13.2,11.1,10.9,25c-1.9,0.9-3.5,2.1-5.1,3.9c-5.1-1.6-6.3-5.1-3.9-10c-2.5-1.6-3.9-4.4-3.9-7.9
		c-4.6,1.4-10,1.4-16,0h-7c7.6,5.1,5.3,6-7,3l-0.9,7c1.4,5.1,0.9,10.9-0.9,17.2c5.3,0.9,8.8-1.2,10-6c2.8,1.4,5.3-1.4,8.1-7.9l7.9,3
		c-1.4,5.8-0.9,11.6,0.9,18.1c-1.6,1.4-2.8,3-3.9,5.1c-5.1-0.9-11.6-0.9-19,0c0.7,2.1,2.3,3.2,5.1,3.9c-4.4-0.9-7,0.7-8.1,5.1
		l2.1-2.1l0.9,3.9c-3.2,1.4-3.7,4.4-2.1,9c23.2,0.9,32-2.5,27.1-11.1c2.1-1.4,3-3.2,3-6l6-3.9l7.9,2.1c-0.7,4.6,0,9.7,2.1,15.1
		c-0.9,0.9-1.4,2.1-0.9,3c-1.4,2.1-2.1,4.9-2.1,8.1l-3,3.9c-5.8,0.9-12.5,0.7-19.9-0.9l-7-0.9h-3h-8.1h-3.9l-1.9,2.1
		c-5.8-1.6-11.8-1.6-18.1,0c-0.2-0.7-0.9-1.4-2.1-2.1c-0.9-8.1,4.4-11.6,16-10c-3-18.1-0.2-26.4,7.9-25c-6.5-8.6-9-19-7.9-31.1
		c-3.9-3-8.8-3.7-15.1-2.1l-0.9-5.1c1.4-0.9,2.8-2.1,3.9-3.9c3.5-1.4,7.9-0.9,12.7,0.5c3.9-0.9,8.8-0.9,14.1,0
		c4.4-0.9,10-1.6,16.9-2.1l3.9,0.9C155.8,67.9,157.2,67.2,158.4,66z M149.3,125.1c1.6,1.6,1.4,2.5-0.9,3L149.3,125.1z"/>
	<path d="M188.3,82.3c2.8,3.9,7,7.4,12.5,10.4c-0.5,3.7-3.2,4.6-8.3,3.2C187.1,106.6,185.7,102,188.3,82.3z M196.6,65.6
		c6,1.9,13.2,1.9,20.9,0c7,3,16.5,3,28.3,0c1.6,4.6,4.6,8.1,9.5,10.4c-0.9,1.9-2.5,3.2-5.1,4.2c3.2,15.1,0.9,23.4-7.4,25.3
		c-0.7-3-2.1-6-4.2-9.5c3-4.6,3.7-9.7,2.1-15.8c-5.1,0-10.2,1.2-15.8,3.2l-4.2-3.2c-3.2,13-0.5,17.6,8.3,13.7v8.3L224,98
		c-3.2,10.9-2.8,22.9,0.9,35.7L224,137c12.7-1.9,18.5,0.9,17.8,8.3c-7.4,2.8-15.1,2.5-22.9-0.9c-4.2,1.9-9,3-14.6,3.2h-4.2l-4.4-1.4
		c-0.5-3.7,0.7-7.2,3.2-10.4c4.6,2.1,10.2,2.5,16.7,0.9l-2.1-16.7c3.5-7.2,3.5-15.5,0-25.3c1.6-2.8,2.5-6.3,3.2-10.4
		c-3.7-2.3-5.6-6.3-5.3-11.6c-1.9,0.5-3.9,0.5-6.3,0c-5.1-1.9-7.4,0.7-7.4,7.4l-9.5,0.9c0.5-3.7,0-7.9-0.9-12.5
		C190.1,68.8,193.1,67.7,196.6,65.6z"/>
</g>
<g>
	<path d="M679.2,158.1c24.1,7,33.1,27.8,27.3,62.3c-4.6,2.1-8.8,5.3-12.5,10c-12.5-4.2-15.8-12.5-10-25c-6.3-4.2-9.7-10.7-10-19.9
		c-11.6,3.2-24.8,3.2-39.9,0h-17.4c19,12.5,13.2,14.8-17.6,7.4l-2.3,17.4c3.2,13,2.5,27.1-2.5,42.4c13.4,2.1,21.6-3,25-15.1
		c6.7,3.2,13.4-3.2,19.9-19.9l19.9,7.4c-3.2,14.1-2.5,29.2,2.5,45c-3.7,3.2-7.2,7.4-10,12.5c-13-2.5-28.7-2.5-47.5,0
		c1.6,4.9,5.8,8.3,12.5,10c-10.9-2.5-17.4,1.6-19.9,12.5l5.1-5.1l2.3,10c-7.9,3.7-9.5,11.1-5.1,22.5c57.5,2.5,79.7-6.7,67.2-27.3
		c5.1-3.2,7.6-8.3,7.6-15.1l15.1-10l19.9,5.1c-1.6,11.6,0,24.1,5.1,37.3c-2.5,2.5-3.2,5.1-2.3,7.4c-3.2,5.3-5.1,12.1-5.1,19.9
		l-7.6,10c-14.6,2.3-31.1,1.6-49.8-2.5l-17.4-2.3h-7.4h-19.9h-10.2l-4.9,5.1c-14.6-4.2-29.4-4.2-45,0c-0.5-1.6-2.1-3.5-5.1-5.1
		c-2.1-20.4,11.1-28.7,39.9-25c-7.4-44.7-0.9-65.6,19.9-62.3c-16.2-21.6-22.7-47.3-19.9-77.2c-9.5-7.4-22-9-37.3-5.1l-2.3-12.5
		c3.7-2.1,7-5.3,10-10c9.3-1.6,19.9-0.9,32.4,2.3c10-2.1,21.6-2.1,35,0c10.7-2.3,24.8-4.2,42.2-5.1l10,2.5
		C672.9,162.7,676.4,161.1,679.2,158.1z M656.9,305c4.2,3.7,3.2,6.3-2.5,7.4L656.9,305z"/>
</g>
<g>
	<path d="M713.9,159.9l38.9,2.3l4.9-2.3h7.4l12.1,2.3h7.2h26.9c7,5.6,15.8,9.7,26.7,12.1c9.7,13.4,17.2,30.6,22,51.5
		c0.5,1.6,2.1,3.2,4.9,4.9l2.3,16.9l-7.2,2.3c2.8,29-0.5,45.2-9.7,48.7l4.9,19.7c-5.6,3.9-9.7,9.7-12.3,16.9
		c-4.4,2.1-8.6,5.3-12.1,10c-5.3,2.3-10.2,5.6-14.6,9.7c-14.6-3.2-29.4-0.7-43.8,7.2c-9.7-3.7-21.3-4.4-34.1-2.3l-34.1-4.9
		c-0.5-20.6,11.1-30.6,34.1-29.4c2.8-15.8,3.7-36.2,2.3-61l2.5-7.4c2.1-0.5,3.7-2.1,4.9-4.9c-8.8-12.1-10.4-32.4-4.9-61l-41.5-9.7
		C703.5,175.4,707.4,168,713.9,159.9z M792,181.9c-10.9,4.9-20.9,13-29.2,24.3c2.5,7,2.5,14.4,0,22c5.3,8.6,5.3,17.4,0,26.7
		l2.5,14.8l2.3,16.9v9.7l-5.1,4.9l5.1,10c-0.7,1.6-2.5,3.2-5.1,4.9l2.5,7.2c21.8,6,43.1,1.2,63.3-14.6c13.9-2.3,17.8-9,12.1-19.7
		c13.9-16.9,13-34.1-2.3-51.2c2.3-14.1-3.2-24.1-16.9-29.4C816.6,195.8,806.8,186.8,792,181.9z"/>
</g>
<g>
	<path d="M871,335.1c2.1,0,4.6,0,7.2,0.7h1.9c5.6,9,4.2,16.7-3.9,23.6v1.9c-7.9,0.9-13.4-2.5-16.5-10.4l2.5-2.5
		C863.4,343.2,866.2,338.8,871,335.1z"/>
</g>
<text transform="matrix(0.6294 0 0 0.583 252.3167 584.0922)" font-family="'HelveticaNeueLTStd-LtCn'" font-size="204.703">EDITION</text>
<text transform="matrix(0.6294 0 0 0.583 624.0447 584.0922)" font-family="'HelveticaNeueLTStd-LtCn'" font-size="204.703">.COM</text>
</svg>
