<?xml version="1.0" encoding="utf-8"?>
<!-- Generator: Adobe Illustrator 18.0.0, SVG Export Plug-In . SVG Version: 6.00 Build 0)  -->
<!DOCTYPE svg PUBLIC "-//W3C//DTD SVG 1.1//EN" "http://www.w3.org/Graphics/SVG/1.1/DTD/svg11.dtd">
<svg version="1.1" id="Layer_1" xmlns="http://www.w3.org/2000/svg" xmlns:xlink="http://www.w3.org/1999/xlink" x="0px" y="0px"
	 viewBox="0 0 900 650" enable-background="new 0 0 900 650" xml:space="preserve">
<rect fill="#231F20" width="900" height="650"/>
<g>
	<path fill="#FFFFFF" d="M794.9,294.2v63.2l-32.1-63.2H747h-10.5H726l0,0h-9l-14.8,61.4l-14.8-61.4h-25.8L647,355.6l-14.3-61.4
		h-48.6c-5.1-1.7-10.9-2.6-17.3-2.6c-6.4,0-12.1,0.9-17.2,2.6H460v25.1h25.4v46.4c-3.9,2.4-10,6.2-11.2,7c-3.4,2.4-7,4.7-10.9,6.8
		c-3.8,2.1-7.8,3.8-11.8,5.2c-4,1.4-7.9,2.1-11.5,2.1c-1.2,0-2.2-0.1-3.3-0.3c-1-0.2-2-0.6-2.9-1.2s-1.8-1.4-2.7-2.4
		c-0.9-1-1.8-2.3-2.7-3.9c5.3-1.4,10.2-3.3,14.8-5.8c4.5-2.5,8.5-5.3,11.8-8.5s6.2-7,8.6-11.4c2.5-4.4,3.7-8.4,3.7-12
		c0-3.3-0.6-6.4-1.8-9.1c-1.2-2.7-2.9-5-5.1-6.9s-4.7-3.4-7.6-4.5s-6.1-1.6-9.5-1.6c-4.2,0-8,0.7-11.4,2.1s-6.5,3.3-9.3,5.7
		c-2.8,2.4-5.2,5.2-7.2,8.4c-2.1,3.2-3.8,6.5-5.1,10c-1.4,3.5-2.7,7.5-3.9,12c-1.3,4.5-1.9,8.4-1.9,11.6c0,1.6,0.1,3.3,0.3,4.8
		c-1.9-0.1-3.5-0.4-4.7-0.9c-1.6-0.6-2.8-1.5-3.7-2.6c-0.9-1.1-1.6-2.3-1.9-3.7c-0.4-1.4-0.5-2.7-0.5-4.1s0.1-2.7,0.3-3.9
		c0.2-1.3,0.5-2.4,0.8-3.4c0.4-1.1,0.7-2.2,1.1-3.3c0.4-1,1.9-4.7,4.7-11c0.4-0.8,1.3-2.7,2.9-5.7c0.7-1.4,1.3-3,1.8-4.9
		c0.5-1.5,0.7-3,0.7-4.7c0-2.2-1.1-4-3.2-5.3c-2.1-1.4-5-2.1-8.5-2.1c-1.3,0-2.6,0.2-3.8,0.5c-1.2,0.4-2.3,0.8-3.2,1.4
		c-1,0.6-1.8,1.2-2.4,2s-1,1.6-1.2,2.4l-24.9,58.9l-0.6,0.1l1.7-58.5c0-1.5-0.5-2.9-1.3-4.1s-2-1.8-3.6-1.8c-0.4,0-0.7,0-1,0
		l-0.9,0.2l-11.6,1.7c-2.1,0.3-3.4,2.1-4,5.5s-0.9,9-0.9,16.8c0,2.4,0,4.6,0.1,6.9c0.1,2.2,0.2,4.7,0.3,7.3c0.2,2.6,0.3,5.6,0.5,8.9
		c0,0.2,0,0.3,0,0.5c0,0,0,0.3,0,0.7c-3.5,2.6-6.6,5-8,5.9c-3.4,2.4-7,4.7-10.9,6.8c-3.8,2.1-7.8,3.8-11.8,5.2
		c-4,1.4-7.9,2.1-11.5,2.1c-1.2,0-2.2-0.1-3.3-0.3c-1-0.2-2-0.6-2.9-1.2s-1.8-1.4-2.7-2.4c-0.9-1-1.8-2.3-2.7-3.9
		c5.3-1.4,10.2-3.3,14.8-5.8c4.5-2.5,8.5-5.3,11.8-8.5s6.2-7,8.6-11.4c2.5-4.4,3.7-8.4,3.7-12c0-3.3-0.6-6.4-1.8-9.1
		c-1.2-2.7-2.9-5-5.1-6.9s-4.7-3.4-7.6-4.4c-2.9-1.1-6.1-1.6-9.5-1.6c-4.2,0-8,0.7-11.4,2.1s-6.5,3.3-9.3,5.7
		c-2.8,2.4-5.2,5.2-7.2,8.4c-2.1,3.2-3.8,6.5-5.1,10c-1.4,3.5-2.7,7.5-3.9,12c-1.3,4.5-1.9,8.4-1.9,11.6c0,2.2,0.2,4.4,0.4,6.5
		c-1.7,0.9-3.3,1.8-4.9,2.5c-1.7,0.8-3.3,1.4-4.9,1.9c-1.5,0.5-2.9,0.7-4.1,0.7c-0.5,0-1-0.3-1.6-1c-0.5-0.7-1.1-1.6-1.6-2.8
		c-0.5-1.2-0.9-2.5-1.2-3.9c-0.3-1.5-0.5-3-0.5-4.5v-1.2c0.2-1.2,0.4-2.4,0.7-3.6s0.6-2.4,0.9-3.5c0.3-1.1,0.6-2.1,1-3.1
		c0.3-0.9,0.7-1.7,1-2.3c2.8-5.3,5.9-10.8,9.2-16.4s6.6-11.3,9.9-17c3.3-5.8,6.5-11.6,9.5-17.4c3-5.9,5.7-11.7,8-17.5
		s4.1-11.6,5.5-17.4s2-11.4,2-17c0-2.2-0.2-4.4-0.6-6.6c-0.4-2.2-1.2-4.1-2.2-5.8s-2.5-3.1-4.3-4.1s-4.2-1.6-7-1.6
		c-3.9,0-7.7,1.1-11.4,3.2c-3.7,2.1-7.3,5.1-10.8,8.9c-3.4,3.8-6.7,8.2-9.9,13.2c-3.1,5.1-6,10.5-8.7,16.3s-5.3,13.5-8,23.2
		c-2.7,9.6-4,14.4-4,14.4s-0.9,4.8-2.6,14.5c-1.8,9.6-2.6,17.3-2.6,23.1c0,3,0.1,5.9,0.4,8.7c-3.2,2.1-6.4,4.2-9.6,6.4
		c-5,3.5-9.9,7-14.9,10.4c-5,3.5-10.1,6.6-15.4,9.3c-5.3,2.8-10.9,5-16.7,6.7c-5.9,1.7-12.2,2.5-18.9,2.5c-5.4,0-10.3-0.8-14.7-2.4
		c-4.3-1.6-8-4-11-7.3s-5.3-7.3-7-12.2c-1.6-4.9-2.4-10.6-2.4-17.2c0-4.5,0.5-9.4,1.4-14.7c0.9-5.3,2.3-10.8,4-16.5
		s3.8-11.4,6.3-17.1s5.2-11.2,8.3-16.5s6.4-10.2,10-14.8c3.6-4.6,7.4-8.6,11.5-12c4-3.4,8.2-6,12.6-8c4.4-2,8.9-2.9,13.5-2.9
		c3.9,0,7.2,0.6,9.9,1.7s4.9,2.7,6.7,4.5c1.7,1.9,3,4.1,3.7,6.6c0.8,2.5,1.2,5.1,1.2,7.9c0,5.3-1.1,10.1-3.2,14.4
		c-2.1,4.4-4.9,8.1-8.2,11.3c-3.4,3.2-7.1,5.6-11.3,7.3c-4.2,1.7-8.3,2.6-12.4,2.6c-1.5,0-2.8-0.1-3.8-0.3c-1-0.2-1.8-0.4-2.5-0.7
		c-0.7-0.2-1.3-0.5-1.9-0.7c-0.6-0.2-1.2-0.3-2-0.3c-1.3,0-2.3,0.3-3,0.9s-1.3,1.4-1.7,2.4s-0.6,2.1-0.8,3.3
		c-0.1,1.2-0.2,2.4-0.2,3.5c0,0.7,0,1.5,0,2.1c0,0.7,0,1.3,0,1.8c0,2.8,1.4,5,4.3,6.5c2.9,1.5,7.2,2.3,13,2.3
		c4.4,0,8.8-0.8,13.2-2.4s8.7-3.8,12.8-6.5c4.1-2.8,7.9-6,11.5-9.8c3.5-3.8,6.6-7.8,9.3-12.1c2.6-4.3,4.7-8.8,6.2-13.4
		c1.5-4.7,2.3-9.3,2.3-13.9c0-6.8-1.2-12.7-3.6-17.7c-2.4-5-5.5-9.1-9.3-12.4c-3.8-3.3-8-5.7-12.8-7.3c-4.7-1.6-9.4-2.4-14-2.4
		c-7.1,0-13.9,1.1-20.5,3.4c-6.6,2.2-12.9,5.3-18.8,9.3c-5.9,4-11.5,8.6-16.8,13.9c-5.2,5.3-10.1,11.1-14.4,17.3
		c-4.4,6.2-8.3,12.7-11.7,19.5c-3.5,6.8-6.4,13.6-8.8,20.4s-4.2,13.5-5.5,20.1s-1.9,12.7-1.9,18.4c0,8.2,1.3,16.1,4,23.6
		s6.4,14,11.4,19.7c4.9,5.6,10.9,10.1,17.8,13.5c6.9,3.3,14.7,5,23.4,5c7.8,0,14.9-0.5,21.3-1.5c6.4-1,12.3-2.4,17.6-4.1
		s10.2-3.7,14.6-6c4.4-2.3,8.5-4.7,12.2-7.2s7.2-5.2,10.5-8.1c3.2-2.9,6.3-5.7,9.3-8.3c0.1-0.1,0.2-0.2,0.3-0.3
		c0.6,1.9,1.3,3.6,2.1,5.3c2.1,4.6,4.5,8.3,7.4,11.1c2.8,2.8,5.9,4.1,9.1,4.1c2.1,0,4.4-0.3,6.9-0.8c2.4-0.5,4.9-1.2,7.5-2.1
		s5.1-1.9,7.7-3.1c1.5-0.7,3-1.4,4.4-2.1c0.5,0.7,1,1.4,1.6,2.1c2.8,3.4,6.4,6.2,10.7,8.2c4.3,2,9.2,3.1,14.9,3.1
		c4.5,0,7-0.3,10.8-1.2c3.6-0.8,7-1.9,10.3-3.3s6.5-2.9,9.5-4.7c3-1.8,5.8-3.5,8.4-5.4c1.4-1,3.5-2.6,5.9-4.4c0,0.4,0.1,0.8,0.1,1.2
		c0.3,3.1,0.9,6,1.9,8.6s2.5,4.8,4.6,6.6c2.1,1.7,5,2.6,8.8,2.6c2,0,4.1-1,6.5-2.9s4.7-4.4,7.1-7.4s4.7-6.4,7-10.1
		c2.2-3.7,4.3-7.3,6-10.9c0.1,2.2,0.6,4.4,1.6,6.4c1,2.1,2.4,3.9,4.2,5.6c1.8,1.6,4,3,6.6,3.9c2.6,1,5.5,1.5,8.8,1.5
		c2.8,0,5.8-0.4,8.8-1.2c0.6,0.9,1.3,1.8,2,2.7c2.8,3.4,6.4,6.2,10.7,8.2c4.3,2,9.2,3.1,14.9,3.1c3.7,0,7.3-0.4,10.8-1.2
		c3.6-0.8,7-1.9,10.3-3.3s6.5-2.9,9.5-4.7c2.5-1.4,11.5-6.8,16.1-9.6c0,4.4,0,8.7,0.1,8.6v9H511v-86h13.8
		c-3.4,8.9-5.2,19.7-5.2,32.7c0,19.8,4,34.9,12,45c8,10.2,19.8,15.3,35.5,15.3s27.5-5.1,35.5-15.3c8-10.2,12-25.2,12-45
		c0-12.8-1.7-23.5-5-32.2h3.6l21.1,87.5h25.8l14.8-61.4l14.8,61.4H715l21.1-87.5h0.5v87.8h25.8v-63.4l32.2,63.1h26.1V294.2H794.9z
		 M243.3,311c1.6-8,2.5-12,2.5-12s1.3-4.3,4-12.9s5-14.8,6.9-18.6c1.9-3.8,3.9-6.8,5.8-9.1c1.9-2.2,3.7-3.4,5.4-3.4
		c0.5,0,0.7,0.6,0.8,1.8c0.1,1.2,0.1,2.7,0.1,4.4c-0.6,5.4-1.8,11.2-3.8,17.5s-4.4,12.5-7.1,18.8c-2.7,6.3-5.7,12.4-8.7,18.3
		c-3.1,5.9-6,11.3-8.7,16C240.7,326,241.7,319,243.3,311z M281.9,360.7c0.1-1.8,0.7-4.1,1.7-6.8c1-2.8,1.9-5.1,2.7-6.9
		c0.8-1.9,1.8-3.5,3-5c1.3-1.5,2.8-2.7,4.7-3.6c1.9-0.9,4.1-1.4,6.7-1.4c1.5,0,2.7,0.8,3.7,2.5s1.5,3.8,1.5,6.4c0,1.8-1.1,4.2-3.2,7
		s-4.3,5.1-6.5,6.7c-2.2,1.7-4.6,3-7.2,4.1s-5,1.6-7.2,1.6C281.7,364,281.8,362.4,281.9,360.7z M426.5,359.8
		c0.1-1.8,0.7-4.1,1.7-6.8c1-2.8,1.9-5.1,2.7-6.9c0.8-1.9,1.8-3.5,3-5c1.3-1.5,2.8-2.7,4.7-3.6c1.9-0.9,4.1-1.4,6.7-1.4
		c1.5,0,2.7,0.8,3.7,2.5s1.5,3.8,1.5,6.4c0,1.8-1.1,4.2-3.2,7s-4.3,5.1-6.5,6.7c-2.2,1.7-4.6,3-7.2,4.1s-5,1.6-7.2,1.6
		C426.3,363.1,426.4,361.6,426.5,359.8z M581.8,382.3c-3.1,6.3-8.1,9.4-15,9.4c-6.8,0-11.8-3.1-14.9-9.4c-3.1-6.3-4.7-16.3-4.7-30.3
		s1.6-24.1,4.7-30.3c3.1-6.3,8.1-9.4,14.9-9.4c6.9,0,11.9,3.1,15,9.4s4.7,16.4,4.7,30.3S584.9,376,581.8,382.3z"/>
	<polygon fill="#FEBB12" points="537.8,286.2 537.8,290.1 595.3,290.1 595.3,286.5 595.3,285.9 537.8,285.9 	"/>
	<polygon fill="#FEBB12" points="582.5,277.3 576.1,277.3 566.7,265.1 557.3,277.3 551,277.3 537.8,267.4 537.8,277.3 537.8,285 
		595.3,285 595.3,277.3 595.3,267.8 	"/>
	<polygon fill="#88123A" points="537.7,285 537.7,285.9 537.8,285.9 595.3,285.9 595.3,285 537.8,285 	"/>
	<polygon fill="#88123A" points="537.7,290.1 537.7,294.4 537.8,294.4 595.3,294.4 595.3,290.1 537.8,290.1 	"/>
	<g enable-background="new    ">
		<path fill="#FFFFFF" d="M512.4,477.7c-0.4,6.8-3.5,10.6-8.8,10.6c-6.1,0-9.5-4.7-9.5-15.4s3.4-15.4,9.5-15.4c6,0,8.5,4.3,8.5,9.2
			h-2.7c0-4-2-6.9-5.9-6.9c-4.2,0-6.8,3.5-6.8,13.1s2.6,13.1,6.8,13.1c3.7,0,5.9-3.2,6.2-8.3H512.4z"/>
		<path fill="#FFFFFF" d="M533.2,457.6c6.1,0,9.5,4.7,9.5,15.4s-3.4,15.4-9.5,15.4s-9.5-4.7-9.5-15.4S527.1,457.6,533.2,457.6z
			 M533.2,486.1c4.2,0,6.8-3.5,6.8-13.1s-2.6-13.1-6.8-13.1c-4.2,0-6.8,3.5-6.8,13.1S528.9,486.1,533.2,486.1z"/>
	</g>
	<g enable-background="new    ">
		<path fill="#FFFFFF" d="M555.9,458.1h4.6l7.2,26.4h0.1l7.2-26.4h4.4v29.7h-2.7v-27.2h-0.1l-7.7,27.2h-2.5l-7.7-27.2h-0.1v27.2
			h-2.7V458.1z"/>
	</g>
	<g enable-background="new    ">
		<path fill="#FFFFFF" d="M592.7,458.1h2.7v29.7h-2.7V458.1z"/>
		<path fill="#FFFFFF" d="M608.2,458.1h3.6l11.4,25.9h0.1v-25.9h2.7v29.7h-3.6l-11.4-25.9h-0.1v25.9h-2.7V458.1z"/>
		<path fill="#FFFFFF" d="M647,474.9v-2.2h9.5v15.2h-2.1v-4.9h-0.1c-0.9,3.3-3.6,5.4-6.5,5.4c-6.1,0-9.5-4.7-9.5-15.4
			s3.4-15.4,9.5-15.4c5.7,0,8.2,3.7,8.5,8.8h-2.7c0-3.6-2-6.6-5.9-6.6c-4.2,0-6.8,3.5-6.8,13.1s2.6,13.1,6.8,13.1
			c4,0,6.2-3.6,6.2-10.5v-0.6H647z"/>
	</g>
	<g enable-background="new    ">
		<path fill="#FFFFFF" d="M701.2,465.7c0-3.7-1.7-5.9-5.3-5.9c-3.6,0-5.6,2.4-5.6,5.3c0,8.9,14.4,4,14.4,14.4c0,5.7-3.6,8.7-9,8.7
			c-5.6,0-8.7-3-8.7-8.8v-0.9h2.7v1.1c0,3.8,2,6.3,5.9,6.3c3.7,0,6.4-1.9,6.4-6c0-8.8-14.4-3.8-14.4-14.6c0-4.7,3-7.9,8.2-7.9
			c5.5,0,8.1,2.8,8.1,8.1H701.2z"/>
	</g>
	<g enable-background="new    ">
		<path fill="#FFFFFF" d="M725.7,457.6c6.1,0,9.5,4.7,9.5,15.4s-3.4,15.4-9.5,15.4c-6.1,0-9.5-4.7-9.5-15.4S719.6,457.6,725.7,457.6
			z M725.7,486.1c4.2,0,6.8-3.5,6.8-13.1s-2.6-13.1-6.8-13.1c-4.2,0-6.8,3.5-6.8,13.1S721.4,486.1,725.7,486.1z"/>
	</g>
	<g enable-background="new    ">
		<path fill="#FFFFFF" d="M757.2,457.6c6.1,0,9.5,4.7,9.5,15.4s-3.4,15.4-9.5,15.4c-6.1,0-9.5-4.7-9.5-15.4S751.1,457.6,757.2,457.6
			z M757.2,486.1c4.2,0,6.8-3.5,6.8-13.1s-2.6-13.1-6.8-13.1c-4.2,0-6.8,3.5-6.8,13.1S752.9,486.1,757.2,486.1z"/>
	</g>
	<g enable-background="new    ">
		<path fill="#FFFFFF" d="M779.3,458.1h3.6l11.4,25.9h0.1v-25.9h2.7v29.7h-3.6l-11.4-25.9H782v25.9h-2.7V458.1z"/>
	</g>
</g>
</svg>
