<?xml version="1.0" encoding="utf-8"?>
<!-- Generator: Adobe Illustrator 18.0.0, SVG Export Plug-In . SVG Version: 6.00 Build 0)  -->
<!DOCTYPE svg PUBLIC "-//W3C//DTD SVG 1.1//EN" "http://www.w3.org/Graphics/SVG/1.1/DTD/svg11.dtd">
<svg version="1.1" id="Layer_1" xmlns="http://www.w3.org/2000/svg" xmlns:xlink="http://www.w3.org/1999/xlink" x="0px" y="0px"
	 viewBox="0 0 900 650" enable-background="new 0 0 900 650" xml:space="preserve">
<rect fill="#FFFFFF" width="900" height="650"/>
<g>
	<path fill="none" d="M277,363.8c2.5-1.9,5-4.4,7.4-7.6c2.4-3.2,3.6-5.8,3.6-7.9c0-2.9-0.6-5.3-1.7-7.2c-1.1-1.9-2.5-2.8-4.2-2.8
		c-3,0-5.5,0.5-7.6,1.6c-2.1,1-3.8,2.4-5.3,4c-1.4,1.6-2.5,3.5-3.4,5.6c-0.9,2.1-1.9,4.7-3,7.8c-1.1,3.1-1.8,5.7-1.9,7.7
		c-0.1,2-0.2,3.7-0.2,5.1c2.5,0,5.2-0.6,8.1-1.8C271.8,367.2,274.5,365.7,277,363.8z"/>
	<path fill="none" d="M234,294.2c3.1-7.1,5.8-14.1,8-21.2c2.3-7,3.7-13.6,4.3-19.7c0-1.9,0-3.6-0.1-5c-0.1-1.4-0.4-2.1-0.9-2.1
		c-1.9,0-3.9,1.3-6.1,3.8c-2.2,2.5-4.3,5.9-6.5,10.2c-2.2,4.3-4.8,11.3-7.8,20.9c-3,9.7-4.5,14.5-4.5,14.5c0,0-0.9,4.5-2.8,13.5
		c-1.8,9-2.9,16.8-3.3,23.6c3.1-5.3,6.4-11.3,9.8-18C227.6,308.2,230.9,301.3,234,294.2z"/>
	<path fill="none" d="M439.6,362.9c2.5-1.9,5-4.4,7.4-7.6c2.4-3.2,3.6-5.8,3.6-7.9c0-2.9-0.6-5.3-1.7-7.2c-1.1-1.9-2.5-2.8-4.2-2.8
		c-3,0-5.5,0.5-7.6,1.6c-2.1,1-3.8,2.4-5.3,4c-1.4,1.7-2.5,3.5-3.4,5.6c-0.9,2.1-1.9,4.7-3,7.8c-1.1,3.1-1.8,5.7-1.9,7.7
		c-0.1,2-0.2,3.7-0.2,5.1c2.5,0,5.2-0.6,8.1-1.8C434.4,366.3,437.1,364.8,439.6,362.9z"/>
	<path fill="none" d="M581.3,310.7c-7.7,0-13.3,3.5-16.8,10.6c-3.5,7-5.3,18.4-5.3,34.1c0,15.7,1.8,27,5.3,34
		c3.5,7,9.1,10.6,16.8,10.6c7.7,0,13.4-3.5,16.9-10.6c3.5-7,5.3-18.4,5.3-34c0-15.7-1.8-27.1-5.3-34.1
		C594.7,314.2,589,310.7,581.3,310.7z"/>
	<path fill="#231F20" d="M837.9,290.4v71.1l-36.1-71.1h-17.7h-11.8h-11.8v0h-10.3l-16.6,69l-16.6-69h-29l-16.6,69l-16.1-69h-54.6
		c-0.1,0-0.2,0-0.2-0.1h-38.4c-0.1,0-0.1,0-0.2,0.1H461.1v28.2h28.6v52.2c-4.4,2.7-11.3,6.9-12.6,7.8c-3.8,2.7-7.9,5.3-12.2,7.6
		c-4.3,2.3-8.7,4.3-13.3,5.8c-4.5,1.6-8.9,2.3-13,2.3c-1.3,0-2.5-0.1-3.7-0.4c-1.1-0.3-2.2-0.7-3.2-1.4c-1-0.6-2-1.6-3-2.7
		c-1-1.2-2-2.6-3-4.4c6-1.6,11.5-3.7,16.6-6.5c5.1-2.8,9.5-6,13.2-9.5c3.7-3.6,6.9-7.8,9.7-12.8c2.8-5,4.2-9.5,4.2-13.5
		c0-3.8-0.7-7.2-2.1-10.2c-1.4-3-3.3-5.6-5.7-7.8c-2.4-2.1-5.3-3.8-8.6-5c-3.3-1.2-6.8-1.8-10.7-1.8c-4.7,0-9,0.8-12.8,2.4
		c-3.8,1.6-7.3,3.8-10.4,6.5c-3.1,2.7-5.8,5.8-8.1,9.4c-2.3,3.6-4.2,7.3-5.8,11.2c-1.5,3.9-3,8.4-4.4,13.5
		c-1.4,5.1-2.1,9.4-2.1,13.1c0,1.8,0.1,3.7,0.3,5.5c-2.1-0.1-3.9-0.5-5.3-1c-1.8-0.7-3.2-1.7-4.2-2.9c-1-1.2-1.7-2.6-2.2-4.1
		c-0.4-1.5-0.6-3.1-0.6-4.7c0-1.5,0.1-3,0.4-4.4c0.2-1.4,0.5-2.7,0.9-3.8c0.4-1.3,0.8-2.5,1.2-3.7c0.4-1.1,2.2-5.3,5.2-12.4
		c0.4-0.9,1.5-3.1,3.3-6.5c0.8-1.6,1.5-3.4,2.1-5.5c0.5-1.7,0.8-3.4,0.8-5.3c0-2.4-1.2-4.4-3.6-6c-2.4-1.6-5.6-2.3-9.5-2.3
		c-1.5,0-2.9,0.2-4.3,0.6c-1.3,0.4-2.5,0.9-3.6,1.5c-1.1,0.6-2,1.4-2.7,2.2c-0.7,0.9-1.1,1.8-1.3,2.7l-28,66.2l-0.7,0.1l1.9-65.8
		c-0.1-1.7-0.6-3.2-1.5-4.6c-1-1.3-2.3-2-4.1-2c-0.4,0-0.8,0-1.1,0l-1,0.2l-13.1,1.9c-2.3,0.3-3.8,2.4-4.5,6.2
		c-0.7,3.8-1,10.1-1,18.9c0,2.6,0,5.2,0.1,7.7c0.1,2.5,0.2,5.3,0.4,8.2c0.2,3,0.4,6.3,0.6,10c0,0.2,0,0.4,0,0.6c0,0,0,0.3,0,0.8
		c-3.9,2.9-7.4,5.6-9,6.7c-3.8,2.7-7.9,5.3-12.2,7.6c-4.3,2.3-8.7,4.3-13.3,5.8c-4.5,1.6-8.9,2.3-13,2.3c-1.3,0-2.5-0.1-3.7-0.4
		c-1.1-0.3-2.2-0.7-3.2-1.4c-1-0.6-2-1.6-3-2.7c-1-1.2-2-2.6-3-4.4c6-1.6,11.5-3.7,16.6-6.5c5.1-2.8,9.5-6,13.2-9.5
		c3.7-3.6,6.9-7.8,9.7-12.8c2.8-5,4.2-9.5,4.2-13.5c0-3.8-0.7-7.2-2.1-10.2c-1.4-3-3.3-5.6-5.7-7.8c-2.4-2.1-5.3-3.8-8.6-5
		c-3.3-1.2-6.8-1.8-10.7-1.8c-4.7,0-9,0.8-12.8,2.4c-3.8,1.6-7.3,3.8-10.4,6.5c-3.1,2.7-5.8,5.8-8.1,9.4c-2.3,3.6-4.2,7.3-5.8,11.2
		c-1.5,3.9-3,8.4-4.4,13.5c-1.4,5.1-2.1,9.4-2.1,13.1c0,2.5,0.2,4.9,0.5,7.3c-1.9,1.1-3.7,2-5.5,2.9c-1.9,0.9-3.7,1.6-5.5,2.2
		c-1.7,0.5-3.2,0.8-4.6,0.8c-0.6,0-1.1-0.4-1.8-1.1c-0.6-0.8-1.2-1.8-1.8-3.1c-0.5-1.3-1-2.8-1.4-4.4s-0.6-3.3-0.6-5.1v-1.4
		c0.2-1.3,0.5-2.7,0.8-4.1c0.3-1.4,0.7-2.7,1-4c0.3-1.2,0.7-2.4,1.1-3.5c0.4-1.1,0.7-1.9,1.1-2.6c3.2-6,6.6-12.1,10.3-18.4
		c3.7-6.3,7.5-12.7,11.1-19.2c3.7-6.5,7.3-13,10.7-19.6c3.4-6.6,6.4-13.2,9-19.7c2.6-6.6,4.7-13.1,6.2-19.6
		c1.5-6.5,2.3-12.9,2.3-19.1c0-2.5-0.2-5-0.7-7.4c-0.5-2.4-1.3-4.6-2.5-6.5c-1.2-1.9-2.8-3.5-4.9-4.6c-2.1-1.2-4.7-1.8-7.8-1.8
		c-4.4,0-8.6,1.2-12.9,3.6c-4.2,2.4-8.3,5.7-12.1,10c-3.9,4.2-7.6,9.2-11.1,14.9c-3.5,5.7-6.8,11.8-9.8,18.3c-3,6.5-6,15.2-9,26.1
		c-3,10.8-4.5,16.2-4.5,16.2c0,0-1,5.4-3,16.3c-2,10.8-3,19.5-3,26c0,3.3,0.2,6.6,0.4,9.8c-3.6,2.3-7.2,4.7-10.7,7.2
		c-5.6,3.9-11.1,7.8-16.7,11.7c-5.6,3.9-11.3,7.4-17.3,10.5c-6,3.1-12.2,5.6-18.8,7.5c-6.6,1.9-13.7,2.9-21.3,2.9
		c-6.1,0-11.6-0.9-16.5-2.7c-4.9-1.8-9-4.5-12.4-8.2c-3.4-3.7-6-8.3-7.8-13.8c-1.8-5.5-2.8-12-2.8-19.4c0-5,0.5-10.6,1.6-16.6
		c1-6,2.5-12.2,4.5-18.6c1.9-6.4,4.3-12.8,7.1-19.2c2.8-6.4,5.9-12.6,9.3-18.5c3.5-5.9,7.2-11.5,11.3-16.7
		c4.1-5.2,8.4-9.7,12.9-13.5c4.5-3.8,9.3-6.8,14.2-9c4.9-2.2,10-3.3,15.2-3.3c4.4,0,8.1,0.6,11.2,1.9c3.1,1.3,5.6,3,7.5,5.1
		c1.9,2.1,3.3,4.6,4.2,7.4c0.9,2.8,1.3,5.8,1.3,8.9c0,5.9-1.2,11.3-3.6,16.2c-2.4,4.9-5.5,9.1-9.3,12.7c-3.8,3.5-8,6.3-12.7,8.2
		c-4.7,1.9-9.4,2.9-14,2.9c-1.7,0-3.1-0.1-4.3-0.4c-1.1-0.2-2.1-0.5-2.9-0.8c-0.8-0.3-1.5-0.5-2.2-0.8c-0.6-0.2-1.4-0.4-2.3-0.4
		c-1.4,0-2.6,0.3-3.4,1c-0.8,0.7-1.5,1.6-1.9,2.7c-0.4,1.1-0.7,2.3-0.9,3.7c-0.1,1.4-0.2,2.7-0.2,3.9c0,0.8,0,1.6,0.1,2.4
		c0,0.8,0.1,1.4,0.1,2c0,3.2,1.6,5.7,4.9,7.4c3.2,1.7,8.1,2.6,14.7,2.6c5,0,9.9-0.9,14.9-2.7c5-1.8,9.7-4.3,14.3-7.4
		c4.6-3.1,8.9-6.8,12.9-11c4-4.2,7.5-8.8,10.4-13.6c2.9-4.8,5.3-9.9,7-15.1c1.7-5.2,2.5-10.4,2.5-15.6c0-7.6-1.3-14.3-4-19.9
		c-2.7-5.6-6.2-10.3-10.4-14c-4.2-3.7-9-6.4-14.3-8.2c-5.3-1.8-10.6-2.7-15.7-2.7c-8,0-15.7,1.3-23.1,3.8c-7.4,2.5-14.5,6-21.1,10.4
		c-6.7,4.4-13,9.7-18.9,15.6c-5.9,6-11.3,12.5-16.2,19.5c-4.9,7-9.3,14.3-13.2,21.9c-3.9,7.6-7.2,15.3-9.9,22.9
		c-2.7,7.7-4.8,15.2-6.2,22.6c-1.4,7.4-2.2,14.3-2.2,20.7c0,9.3,1.5,18.1,4.5,26.5c3,8.4,7.2,15.8,12.8,22.1
		c5.5,6.3,12.2,11.4,20,15.1c7.8,3.7,16.6,5.6,26.3,5.6c8.8,0,16.8-0.6,24-1.7c7.2-1.1,13.8-2.7,19.8-4.6c6-1.9,11.5-4.2,16.4-6.8
		c5-2.6,9.5-5.3,13.7-8.1c4.2-2.8,8.1-5.9,11.8-9.1c3.6-3.3,7.1-6.4,10.5-9.3c0.1-0.1,0.3-0.2,0.4-0.3c0.7,2.1,1.5,4.1,2.3,6
		c2.4,5.2,5.1,9.4,8.3,12.5c3.2,3.1,6.6,4.6,10.3,4.6c2.4,0,5-0.3,7.7-0.9c2.7-0.6,5.6-1.4,8.5-2.4c2.9-1,5.8-2.2,8.6-3.4
		c1.7-0.8,3.3-1.5,5-2.3c0.6,0.8,1.1,1.6,1.8,2.4c3.2,3.9,7.2,7,12,9.2c4.8,2.3,10.4,3.4,16.8,3.4c5,0,7.8-0.4,12.2-1.4
		c4-0.9,7.9-2.1,11.6-3.7c3.7-1.5,7.3-3.3,10.7-5.3c3.4-2,6.6-4,9.5-6c1.6-1.1,4-2.9,6.7-4.9c0,0.5,0.1,0.9,0.1,1.4
		c0.3,3.5,1.1,6.7,2.2,9.7c1.1,3,2.9,5.4,5.2,7.4c2.3,1.9,5.6,2.9,9.9,2.9c2.2,0,4.6-1.1,7.3-3.2c2.6-2.2,5.3-4.9,8-8.3
		c2.7-3.4,5.3-7.1,7.9-11.3c2.5-4.2,4.8-8.2,6.8-12.2c0.1,2.5,0.7,4.9,1.8,7.2c1.1,2.3,2.7,4.4,4.7,6.3c2,1.9,4.5,3.3,7.4,4.4
		c2.9,1.1,6.2,1.6,9.9,1.6c3.2,0,6.5-0.5,9.9-1.3c0.7,1.1,1.5,2.1,2.3,3c3.2,3.9,7.2,7,12,9.2c4.8,2.3,10.4,3.4,16.8,3.4
		c4.1,0,8.2-0.5,12.2-1.4c4-0.9,7.9-2.1,11.6-3.7c3.7-1.5,7.3-3.3,10.7-5.3c2.8-1.6,13-7.6,18.1-10.8c0,5,0,9.8,0.1,9.7v10.1h28.4
		v-96.7h15.5c-3.8,10-5.8,22.2-5.8,36.8c0,22.3,4.5,39.2,13.5,50.6c9,11.4,22.3,17.2,39.9,17.2c17.6,0,31-5.7,40-17.2
		c9-11.4,13.5-28.3,13.5-50.6c0-14.3-1.9-26.4-5.6-36.3l4,0l23.7,98.4h29l16.6-69l16.6,69h29l23.7-98.3h0.6v98.7h29v-71.3l36.2,70.9
		h29.3V290.4H837.9z M217.6,309.3c1.8-9,2.8-13.5,2.8-13.5c0,0,1.5-4.8,4.5-14.5c3-9.7,5.6-16.6,7.8-20.9c2.2-4.3,4.3-7.7,6.5-10.2
		c2.2-2.5,4.2-3.8,6.1-3.8c0.5,0,0.8,0.7,0.9,2.1c0.1,1.4,0.1,3,0.1,5c-0.6,6.1-2.1,12.6-4.3,19.7c-2.3,7-4.9,14.1-8,21.2
		c-3.1,7.1-6.4,13.9-9.8,20.6c-3.5,6.7-6.7,12.7-9.8,18C214.7,326.1,215.8,318.2,217.6,309.3z M261,365.1c0.1-2,0.8-4.6,1.9-7.7
		c1.1-3.1,2.1-5.7,3-7.8c0.9-2.1,2-4,3.4-5.6c1.4-1.7,3.2-3,5.3-4c2.1-1,4.6-1.6,7.6-1.6c1.6,0,3,0.9,4.2,2.8
		c1.1,1.9,1.7,4.3,1.7,7.2c0,2.1-1.2,4.7-3.6,7.9c-2.4,3.2-4.9,5.7-7.4,7.6c-2.5,1.9-5.2,3.4-8.1,4.6c-2.9,1.2-5.6,1.8-8.1,1.8
		C260.8,368.8,260.8,367.1,261,365.1z M423.6,364.1c0.1-2,0.8-4.6,1.9-7.7c1.1-3.1,2.1-5.7,3-7.8c0.9-2.1,2-4,3.4-5.6
		c1.4-1.6,3.2-3,5.3-4c2.1-1,4.6-1.6,7.6-1.6c1.6,0,3,0.9,4.2,2.8c1.1,1.9,1.7,4.3,1.7,7.2c0,2.1-1.2,4.7-3.6,7.9
		c-2.4,3.2-4.9,5.7-7.4,7.6c-2.5,1.9-5.2,3.4-8.1,4.6c-2.9,1.2-5.6,1.8-8.1,1.8C423.4,367.9,423.4,366.1,423.6,364.1z M598.2,389.4
		c-3.5,7-9.2,10.6-16.9,10.6c-7.7,0-13.3-3.5-16.8-10.6c-3.5-7-5.3-18.4-5.3-34c0-15.7,1.8-27.1,5.3-34.1c3.5-7,9.1-10.6,16.8-10.6
		c7.7,0,13.4,3.5,16.9,10.6c3.5,7,5.3,18.4,5.3,34.1C603.5,371,601.7,382.4,598.2,389.4z"/>
	<polygon fill="#00A651" points="613.8,281.4 613.8,280.7 549,280.7 549,281 549,285.4 613.8,285.4 	"/>
	<polygon fill="#ED1C24" points="613.8,271 613.8,260.2 599.5,271 592.2,271 581.6,257.2 571,271 563.9,271 549,259.8 549,271 
		549,279.6 613.8,279.6 	"/>
	<polygon fill="#231F20" points="613.8,279.6 549,279.6 548.9,279.6 548.9,280.7 549,280.7 613.8,280.7 	"/>
	<polygon fill="#FFF200" points="606.4,290.3 613.8,290.3 613.8,285.4 549,285.4 548.9,285.4 548.9,290.3 549,290.3 557.8,290.3 
		562.1,290.3 600.5,290.3 	"/>
</g>
</svg>
