<?xml version="1.0" encoding="utf-8"?>
<!-- Generator: Adobe Illustrator 18.0.0, SVG Export Plug-In . SVG Version: 6.00 Build 0)  -->
<!DOCTYPE svg PUBLIC "-//W3C//DTD SVG 1.1//EN" "http://www.w3.org/Graphics/SVG/1.1/DTD/svg11.dtd">
<svg version="1.1" id="Layer_1" xmlns="http://www.w3.org/2000/svg" xmlns:xlink="http://www.w3.org/1999/xlink" x="0px" y="0px"
	 viewBox="0 0 154.1 15.9" enable-background="new 0 0 154.1 15.9" xml:space="preserve">
<g>
	<polyline fill="#00A651" points="6.9,10.6 3.3,0.3 0,0.3 0,15.6 3.2,15.6 3.2,10.1 5.1,15.6 8.6,15.6 10.5,10.3 10.5,15.6 14,15.6 
		14,0.3 10.5,0.3 6.9,10.6 	"/>
	<polyline fill="#00A651" points="19,15.6 15.6,15.6 15.6,0.3 19,0.3 19,15.6 	"/>
	<polyline fill="#00A651" points="41.7,0.3 31.9,0.3 29.6,0.3 28.4,0.3 28.4,8.8 24.1,0.3 20.6,0.3 20.6,15.6 24,15.6 24,7 
		28.4,15.6 31.9,15.6 31.9,3.7 35.1,3.7 35.1,15.6 38.6,15.6 38.6,3.7 41.7,3.7 41.7,0.3 	"/>
	<g enable-background="new    ">
		<path d="M43.5,0.3h8.2v1.2H45V7h6.3v1.2H45v6.3H52v1.2h-8.4V0.3z"/>
		<path d="M53.8,0.3h4c4.8,0,6,2.7,6,7.7c0,5-1.2,7.7-6,7.7h-4V0.3z M55.3,14.4h2.4c3.2,0,4.6-1.5,4.6-6.5c0-5-1.4-6.5-4.6-6.5h-2.4
			V14.4z"/>
		<path d="M66.4,0.3h1.5v15.3h-1.5V0.3z"/>
		<path d="M73.7,1.4h-4.3V0.3h10v1.2h-4.3v14.2h-1.5V1.4z"/>
		<path d="M81,0.3h1.5v15.3H81V0.3z"/>
		<path d="M90.3,0c3.4,0,5.3,2.4,5.3,7.9s-1.9,7.9-5.3,7.9c-3.4,0-5.3-2.4-5.3-7.9S86.9,0,90.3,0z M90.3,14.7c2.4,0,3.8-1.8,3.8-6.8
			c0-5-1.4-6.8-3.8-6.8c-2.4,0-3.8,1.8-3.8,6.8C86.5,12.9,87.9,14.7,90.3,14.7z"/>
		<path d="M98,0.3h2l6.3,13.4h0V0.3h1.5v15.3h-2L99.6,2.2h0v13.4H98V0.3z"/>
	</g>
	<g enable-background="new    ">
		<path d="M111.2,13.4h1.6v2.2h-1.6V13.4z"/>
		<path d="M126.1,10.4c-0.2,3.5-1.9,5.5-4.9,5.5c-3.4,0-5.3-2.4-5.3-7.9s1.9-7.9,5.3-7.9c3.4,0,4.8,2.2,4.8,4.7h-1.5
			c0-2.1-1.1-3.6-3.3-3.6c-2.4,0-3.8,1.8-3.8,6.8c0,5,1.4,6.8,3.8,6.8c2.1,0,3.3-1.7,3.4-4.3H126.1z"/>
		<path d="M133.2,0c3.4,0,5.3,2.4,5.3,7.9s-1.9,7.9-5.3,7.9c-3.4,0-5.3-2.4-5.3-7.9S129.8,0,133.2,0z M133.2,14.7
			c2.4,0,3.8-1.8,3.8-6.8c0-5-1.4-6.8-3.8-6.8c-2.4,0-3.8,1.8-3.8,6.8C129.4,12.9,130.8,14.7,133.2,14.7z"/>
		<path d="M141.1,0.3h2.6l4,13.6h0l4-13.6h2.4v15.3h-1.5v-14h0l-4.3,14h-1.4l-4.3-14h0v14h-1.5V0.3z"/>
	</g>
</g>
</svg>
