<?xml version="1.0" encoding="utf-8"?>
<!-- Generator: Adobe Illustrator 18.0.0, SVG Export Plug-In . SVG Version: 6.00 Build 0)  -->
<!DOCTYPE svg PUBLIC "-//W3C//DTD SVG 1.1//EN" "http://www.w3.org/Graphics/SVG/1.1/DTD/svg11.dtd">
<svg version="1.1" id="Layer_1" xmlns="http://www.w3.org/2000/svg" xmlns:xlink="http://www.w3.org/1999/xlink" x="0px" y="0px"
	 viewBox="0 0 900 650" enable-background="new 0 0 900 650" xml:space="preserve">
<g>
	<g>
		<path fill="#00A651" d="M719.3,54c0-18-14.7-32.6-32.6-32.6H213.3c-18,0-32.6,14.7-32.6,32.6v212.5h44L271,400.1l46.6-133.6h44.7
			v198h-44.7v-69.2l-24.2,69.2h-44.7l-24.8-71.3v71.3h-43.2v62.8c0,18,14.7,32.6,32.6,32.6h473.4c18,0,32.6-14.7,32.6-32.6V311.3
			h-39.5v153.3h-44.7V311.3h-43.3v152.9h-45.2l-55.9-110.7v110.7h-44.7v-198h45.5l55.6,110.4V266.2h172.3V54z M426.6,464.2h-44.7
			v-198h44.7V464.2z"/>
	</g>
	<g>
		<path d="M206.6,620.7c2.1,1.2,5.9,2.2,9,2.2c6.5,0,10.4-3.7,10.4-9.3c0-5.1-3.4-8.1-8.3-11.4c-4.9-3-11.8-8.1-11.8-15.2
			c0-8.3,6.6-14.4,16.6-14.4c3.9,0,7.4,1.1,8.8,2l-1.8,5.4c-1.6-1-4.2-1.9-7.4-1.9c-6.1,0-9,4.1-9,7.8c0,5.5,3.3,7.6,9.2,11.3
			c7.5,4.6,10.9,9.7,10.9,15.8c0,9.5-7.6,15.4-17.6,15.4c-4.3,0-8.8-1.2-10.6-2.4L206.6,620.7z"/>
		<path d="M290.9,578.7h-11.5v-5.6h30.1v5.6h-11.5V628h-7.2V578.7z"/>
		<path d="M365.5,573.1v36.8c0,9.9,3.7,13.2,8.6,13.2c5.3,0,8.7-3.6,8.7-13.2v-36.8h7.2v35.9c0,14.3-6.7,19.7-16,19.7
			c-9.4,0-15.6-5.4-15.6-19v-36.6H365.5z"/>
		<path d="M442.9,573.9c2.8-0.7,6.1-1.1,9.7-1.1c6.6,0,11.3,1.5,14.7,4.2c4.8,3.7,8.5,10.8,8.5,22.2c0,12.5-3.5,19.4-7.5,23.1
			c-4.1,4.1-10.1,5.9-17.3,5.9c-2.9,0-5.9-0.2-8-0.6V573.9z M450,622.9c1,0.2,2,0.2,2.7,0.2c7.9,0,15.6-5,15.6-23.6
			c0-13.9-4.8-21.4-14.9-21.4c-1.1,0-2.4,0.1-3.4,0.3V622.9z"/>
		<path d="M533.4,573.1V628h-7.2v-54.9H533.4z"/>
		<path d="M619.6,600.1c0,20.6-8.1,28.5-18.2,28.5c-10.4,0-17.4-9.7-17.4-28.2c0-18.2,7.4-28,18.4-28
			C613.2,572.4,619.6,582.6,619.6,600.1z M591.5,600.5c0,11.3,2.5,22.6,10.4,22.6c8.1,0,10.2-12,10.2-22.7
			c0-10.3-2.1-22.4-10.3-22.4C594,578,591.5,589.4,591.5,600.5z"/>
		<path d="M668.7,620.7c2.1,1.2,5.9,2.2,9,2.2c6.5,0,10.4-3.7,10.4-9.3c0-5.1-3.4-8.1-8.3-11.4c-4.9-3-11.8-8.1-11.8-15.2
			c0-8.3,6.6-14.4,16.6-14.4c3.9,0,7.4,1.1,8.8,2l-1.8,5.4c-1.6-1-4.2-1.9-7.4-1.9c-6.1,0-9,4.1-9,7.8c0,5.5,3.3,7.6,9.2,11.3
			c7.5,4.6,10.9,9.7,10.9,15.8c0,9.5-7.6,15.4-17.6,15.4c-4.3,0-8.8-1.2-10.6-2.4L668.7,620.7z"/>
	</g>
	<g>
		<path fill="#FFFFFF" d="M382.7,479.2h17.1v2.5h-14v12.2h13.1v2.5h-13.1v13.7h14.5v2.5h-17.6V479.2z"/>
		<path fill="#FFFFFF" d="M431.2,479.2h8.3c10.1,0,12.5,5.8,12.5,16.7s-2.5,16.7-12.5,16.7h-8.3V479.2z M434.3,510.1h5
			c6.8,0,9.6-3.3,9.6-14.2c0-11-2.9-14.3-9.6-14.3h-5V510.1z"/>
		<path fill="#FFFFFF" d="M484.5,479.2h3.1v33.5h-3.1V479.2z"/>
		<path fill="#FFFFFF" d="M526.7,481.7h-8.9v-2.5h20.9v2.5h-8.9v31h-3.1V481.7z"/>
		<path fill="#FFFFFF" d="M569,479.2h3.1v33.5H569V479.2z"/>
		<path fill="#FFFFFF" d="M615.5,478.6c7.1,0,11,5.3,11,17.3c0,12-4,17.3-11,17.3s-11-5.3-11-17.3
			C604.5,483.9,608.4,478.6,615.5,478.6z M615.5,510.7c4.9,0,7.9-3.9,7.9-14.8c0-10.8-3-14.8-7.9-14.8c-4.9,0-7.9,3.9-7.9,14.8
			C607.6,506.8,610.6,510.7,615.5,510.7z"/>
		<path fill="#FFFFFF" d="M658.7,479.2h4.2l13.2,29.2h0.1v-29.2h3.1v33.5h-4.2l-13.2-29.2h-0.1v29.2h-3.1V479.2z"/>
	</g>
</g>
</svg>
