<?xml version="1.0" encoding="utf-8"?>
<!-- Generator: Adobe Illustrator 18.0.0, SVG Export Plug-In . SVG Version: 6.00 Build 0)  -->
<!DOCTYPE svg PUBLIC "-//W3C//DTD SVG 1.1//EN" "http://www.w3.org/Graphics/SVG/1.1/DTD/svg11.dtd">
<svg version="1.1" id="Layer_1" xmlns="http://www.w3.org/2000/svg" xmlns:xlink="http://www.w3.org/1999/xlink" x="0px" y="0px"
	 viewBox="379 0 841.2 799.2" enable-background="new 379 0 841.2 799.2" xml:space="preserve">
<g>
	<circle fill="#00A651" cx="624.2" cy="313.7" r="120.1"/>
	<path fill="#00A651" d="M624.2,435.7c-67.4,0-122-54.9-122-122s54.6-122,122-122s122,54.9,122,122S691.6,435.7,624.2,435.7z
		 M624.2,195.2c-65.2,0-118.5,53-118.5,118.5s53,118.5,118.5,118.5s118.5-53,118.5-118.5S689.5,195.2,624.2,195.2z"/>
	<path fill="#FFFFFF" d="M817.8,271.1c-5.1-22.6-13.8-43.9-26.1-63.1l23.4-46.3l-37.8-37.8l-45.8,23.4c-19.2-12.8-41.3-22.1-65-27.4
		l-15.7-48.2h-53.3l-15.7,48.2c-23.7,5.1-45.8,14.6-65.8,27.4L470,123.8l-37.5,37.8l24,46.9c-12,18.9-20.8,40.2-25.6,62.8
		l-48.7,15.7v53.3l48.5,15.7c5.3,24,14.9,46.3,28,66.3l-23.2,45.5l37.8,37.8l46.3-23.7c18.1,11.5,38.3,20,59.9,24.8l16,49h53.3
		l15.4-47.9c23.4-4.8,45.3-13.6,65-25.8l46.3,23.7l37.8-37.8l-23.2-45.3c13-20,22.6-42.3,28-66.3l49.3-16v-53.3L817.8,271.1z
		 M624.2,433.8c-66.3,0-120.1-53.8-120.1-120.1s53.8-120.1,120.1-120.1s120.1,53.8,120.1,120.1S690.5,433.8,624.2,433.8z"/>
	<path fill="#00A651" stroke="#00A651" stroke-miterlimit="10" d="M817.8,271.1l2.7-0.5c-5.1-23.2-14.1-44.7-26.4-63.9L792,208
		l2.4,1.3l24.5-47.9l-40.5-40.5L731,145.1l1.3,2.4l1.3-2.1c-20.2-13.3-42.6-22.9-66.6-28l-0.5,2.7l2.7-0.8L653,69.2h-57.3L579.2,119
		l2.7,0.8l-0.5-2.7c-24,5.3-46.6,14.9-66.6,28l1.3,2.1l1.3-2.4l-47.9-24.5L429,161.1l24.8,48.5l2.4-1.3l-2.1-1.3
		c-12,19.2-21,40.7-26.1,63.6l2.7,0.5l-0.8-2.7l-50.3,16.8v57.3l50.1,16.2l0.8-2.7l-2.7,0.5c5.3,24.2,14.9,47.1,28.2,67.1l2.1-1.3
		l-2.4-1.3l-24,47.1l40.5,40.5l48.2-24.5l-1.3-2.4l-1.3,2.1c18.4,11.5,38.9,20.2,60.7,25.3l0.5-2.7l-2.7,0.8l16.5,50.9h57.3
		l16.2-49.8l-2.7-0.8l0.5,2.7c23.7-4.8,46.1-13.8,65.8-26.4l-1.3-2.1l-1.3,2.4l47.9,24.5l40.5-40.5l-24-47.1l-2.4,1.3l2.1,1.3
		c13.3-20.2,22.9-42.9,28.2-67.1l-2.7-0.5l0.8,2.7l51.1-16.5V285l-51.1-16.5V271.1l2.7-0.5L817.8,271.1l-0.8,2.7l47.4,15.4v49.5
		l-48.7,16l-0.3,1.6c-5.1,23.7-14.6,45.8-27.4,65.2l-0.8,1.3l22.9,45l-34.9,34.9l-45.8-23.4l-1.3,0.8c-19.4,12-41,20.8-64.2,25.6
		l-1.6,0.3l-15.4,47.4h-49.8l-15.7-48.5l-1.3-0.3c-21.3-5.1-41-13.3-59.1-24.5l-1.3-0.8l-46.1,23.4l-34.9-34.9l22.9-45.3l-0.8-1.3
		c-12.8-19.7-22.4-41.8-27.4-65.5l-0.3-1.6l-47.9-15.7v-49.5l47.9-15.7l0.3-1.6c4.8-22.4,13.6-43.1,25.3-62.1l0.8-1.3l-23.7-46.3
		l34.9-34.9l45.8,23.4l1.3-0.8c19.4-12.8,41.3-22.1,64.7-27.2l1.6-0.3l15.4-47.9H649l15.4,47.9l1.6,0.3c23.4,5.1,45,14.4,64.4,26.9
		l1.3,0.8l45.5-23.2l34.9,34.9l-23.4,45.8l0.8,1.3c12,18.9,20.8,39.9,25.6,62.3l0.3,1.6l1.3,0.5L817.8,271.1z M624.2,433.8v-2.7
		c-32.5,0-61.8-13-83.1-34.4s-34.4-50.6-34.4-83.1s13-61.8,34.4-83.1s50.6-34.4,83.1-34.4c32.5,0,61.8,13,83.1,34.4
		c21.3,21.3,34.4,50.6,34.4,83.1s-13,61.8-34.4,83.1s-50.6,34.4-83.1,34.4L624.2,433.8l0,2.7c67.9,0,122.8-55.1,122.8-122.8
		c0-67.9-55.1-122.8-122.8-122.8c-67.9,0-122.8,55.1-122.8,122.8c0,67.9,55.1,122.8,122.8,122.8V433.8z"/>
	<circle fill="#00A651" cx="987" cy="567" r="114.2"/>
	<path fill="#00A651" d="M987,683.1c-63.9,0-116.1-52.2-116.1-116.1S923,450.9,987,450.9s116.1,52.2,116.1,116.1
		S1051.1,683.1,987,683.1z M987,454.6c-62.1,0-112.4,50.3-112.4,112.4S924.9,679.4,987,679.4S1099.3,629,1099.3,567
		S1049,454.6,987,454.6z"/>
	<path fill="#FFFFFF" d="M1171.2,526.5c-4.8-21.6-13.3-41.8-24.8-59.9l22.4-43.9l-36-36l-43.4,22.1c-18.6-12.3-39.7-21-62.1-25.8
		l-14.9-45.8h-50.6L947,383c-22.6,5.1-43.7,13.8-62.3,26.1l-43.9-22.4l-36,36l22.6,44.5c-11.5,18.1-19.7,38.3-24.5,59.9l-46.1,14.9
		v50.6l46.1,14.9c5.1,22.9,14.1,44.2,26.6,63.1l-22.1,43.1l36,36l44.2-22.4c17.3,10.9,36.5,18.9,57,23.7l15.2,46.6h50.6l14.6-45.5
		c22.4-4.5,43.1-13,61.8-24.8l43.9,22.4l36-36l-21.8-43.1c12.5-18.9,21.6-40.2,26.6-62.8l46.9-15.2v-50.6L1171.2,526.5z M987,681.5
		c-63.1,0-114.2-51.1-114.2-114.2S923.8,453,987,453s114.2,51.1,114.2,114.2S1050.1,681.5,987,681.5z"/>
	<path fill="#00A651" d="M1171.2,526.5l2.7-0.5c-4.8-21.8-13.3-42.6-25-61l-2.1,1.3l2.4,1.3l23.2-45.8l-38.9-38.3l-45.3,23.2
		l1.3,2.4l1.3-2.1c-18.9-12.3-40.2-21.3-63.1-26.4l-0.5,2.7l2.7-0.8l-15.4-47.7h-54.6l-15.4,47.7l2.7,0.8l-0.5-2.7
		c-22.9,5.1-44.2,14.1-63.4,26.4l1.3,2.1l1.3-2.4l-45.5-23.2l-38.6,38.6l23.4,46.1l2.4-1.3l-2.1-1.3c-11.5,18.4-20,38.9-24.8,60.7
		l2.7,0.5l-0.8-2.7l-47.9,15.4v54.6l47.9,15.4l0.8-2.7l-2.7,0.5c5.1,23.2,14.4,44.7,26.9,63.9l2.1-1.3l-2.4-1.3l-22.9,45l38.6,38.6
		l45.8-23.4l-1.3-2.4l-1.3,2.1c17.6,10.9,37,19.2,57.8,24l0.5-2.7l-2.7,0.8l15.7,48.5h54.6l15.4-47.4l-2.7-0.8l0.5,2.7
		c22.6-4.5,43.7-13.3,62.6-25l-1.3-2.1l-1.3,2.4l45.8,23.2l38.6-38.6l-22.9-44.7l-2.4,1.3l2.1,1.3c12.5-19.2,21.8-40.7,26.9-63.9
		l-2.7-0.5l0.8,2.7l48.7-15.7v-54.6l-48.7-15.7L1171.2,526.5l2.7-0.5L1171.2,526.5l-0.8,2.7l45,14.6v46.9l-46.3,15.2l-0.3,1.6
		c-5.1,22.4-13.8,43.4-26.1,62.1l-0.8,1.3l21.8,42.6l-33,33l-43.7-22.1l-1.3,0.8c-18.4,11.5-38.9,19.7-61,24.2l-1.6,0.3l-14.6,45
		h-46.9l-14.9-46.1l-1.3-0.3c-20.2-4.8-39.1-12.5-56.2-23.2l-1.3-0.8l-43.7,22.4l-33-33l21.8-42.9l-0.8-1.3
		c-12.3-18.6-21.3-39.7-26.1-62.1l-0.3-1.6l-45.5-14.9v-46.9l45.5-14.9l0.3-1.6c4.5-21.3,12.8-41,24-58.9l0.8-1.3l-22.4-44.2l33-33
		l43.4,22.1l1.3-0.8c18.4-12,39.1-20.8,61.5-25.8l1.6-0.3l14.9-45.5h46.9l14.9,45.5l1.6,0.3c22.1,4.8,42.9,13.6,61.3,25.6l1.3,0.8
		l43.1-22.1l33,33l-22.1,43.7l0.8,1.3c11.5,17.8,19.7,37.8,24.2,59.1l0.3,1.6l1.3,0.5L1171.2,526.5z M987,681.5v-2.7
		c-30.9,0-58.9-12.5-78.8-32.8c-20.2-20.2-32.8-48.2-32.8-78.8c0-30.9,12.5-58.9,32.8-78.8c20.2-20.2,48.2-32.8,78.8-32.8
		c30.9,0,58.9,12.5,78.8,32.8c20.2,20.2,32.8,48.2,32.8,78.8c0,30.9-12.5,58.9-32.8,78.8c-20.2,20.2-48.2,32.8-78.8,32.8V681.5v2.7
		c64.7,0,116.9-52.5,116.9-116.9c0-64.7-52.5-116.9-116.9-116.9c-64.7,0-116.9,52.5-116.9,116.9c0,64.7,52.5,116.9,116.9,116.9
		V681.5z"/>
	<path fill="#00A651" d="M517.2,176.6l4.3-2.7l11.7,13.3l1.9,1.9c1.1,1.1,1.9,2.1,2.4,2.9l1.9,2.7l0.3,0.3c0,0.3,0.3,0.3,0.5,0.5
		l-0.5-1.1c-1.1-1.9-1.9-3.7-2.7-5.3c-0.8-1.6-1.6-3.2-2.1-4.5l-6.7-15.2l3.2-2.1l10.9,12c1.6,1.9,3.2,3.5,4.3,5.1
		c1.3,1.6,2.7,2.9,3.7,4.5c-0.8-1.6-1.9-3.5-2.7-5.1c-0.8-1.6-1.6-3.2-2.4-4.8l-1.1-2.4l-6.4-13.6l4-2.7l15.2,35.4l-3.5,2.1
		l-11.2-12.3c0,0-0.3-0.3-0.5-0.5c-0.3-0.3-0.8-0.8-1.3-1.6l-2.4-2.9c-0.3-0.3-0.5-0.5-0.8-1.1c-0.3-0.5-0.8-1.1-1.3-1.9l-1.1-1.3
		c0.3,0.3,0.3,0.5,0.5,0.8c0.3,0.3,0.3,0.5,0.3,0.5c0.5,1.1,0.8,1.6,1.3,2.1c0.3,0.5,0.5,0.8,0.5,1.1l1.6,3.5
		c0.3,0.8,0.5,1.3,0.8,1.9c0.3,0.5,0.3,0.8,0.3,0.8l6.7,15.2l-3.5,2.1L517.2,176.6z"/>
	<polygon fill="#00A651" points="549.4,157.1 561.7,151.8 563.5,155.8 555.8,159.3 560.6,170.2 567.5,167.2 569.1,171.2 
		562.2,174.2 567.5,186.2 575.2,182.7 576.8,186.7 564.6,192 	"/>
	<path fill="#00A651" d="M569.9,148.9l6.7-1.9c5.3-1.6,8.8,1.1,10.7,7.5c0.8,2.4,0.8,4.5,0.5,5.9c-0.3,1.3-1.3,2.7-2.9,3.7
		c2.1,0.3,3.7,0.8,4.8,1.9c1.1,1.1,1.9,2.7,2.7,5.1c1.9,6.7,0,10.9-5.9,12.5l-6.4,1.9L569.9,148.9z M579,163.8
		c1.9-0.5,3.2-1.3,3.7-2.4c0.5-1.1,0.3-2.9-0.3-5.3c-1.1-4-3.2-5.6-5.9-4.8h-0.3H576h-0.3L579,163.8z M583.8,180
		c2.1-0.5,3.2-1.3,3.7-2.4c0.5-1.1,0.5-2.7-0.3-5.1c-0.5-2.4-1.6-3.7-2.7-4.5s-2.7-0.8-4.5-0.3L583.8,180z"/>
	<path fill="#00A651" d="M606.7,141.1l6.4-0.3c1.9,0,3.5,0,4.8,0.3c1.3,0.3,2.4,1.1,3.5,2.1c1.6,1.6,2.7,3.5,3.5,5.9
		s1.3,5.9,1.3,10.4c0.3,4.3,0,7.7-0.5,10.4c-0.5,2.7-1.6,4.5-2.9,5.9c-1.9,1.9-5.1,2.7-9.9,2.9l-4.3,0.3L606.7,141.1z M613.6,174.2
		c3.2-0.3,5.1-1.3,6.1-3.2c1.1-1.9,1.3-5.6,1.1-11.2c-0.3-5.9-1.1-9.9-2.1-12s-3.2-3.2-5.9-2.9h-0.5L613.6,174.2z"/>
	<polygon fill="#00A651" points="634.4,140.6 647.7,141.7 647.4,146.2 638.9,145.4 637.8,157.4 645.3,157.9 645,162.2 637.3,161.7 
		636.2,174.4 644.7,175.2 644.2,179.5 630.6,178.4 	"/>
	<path fill="#00A651" d="M668.2,146.7l-1.1,4.8c-1.3-1.3-2.4-2.4-3.7-2.7s-2.4,0-3.5,0.8s-1.6,1.9-2.1,3.2c-0.3,1.3-0.3,2.4,0.3,3.5
		c0.3,0.5,0.5,1.3,1.1,2.1c0.5,1.1,1.3,2.1,2.1,3.5c1.6,2.4,2.7,4.5,2.9,6.4c0.5,1.6,0.3,3.5,0,5.6c-0.5,2.9-1.9,5.1-4,6.7
		c-2.1,1.3-4.3,1.9-6.9,1.3c-2.1-0.5-3.7-1.6-5.1-2.9l1.1-5.1c1.6,1.6,2.9,2.7,4.5,2.9c1.3,0.3,2.4,0,3.5-0.5
		c1.1-0.8,1.6-1.9,1.9-3.5c0.3-1.3,0.3-2.7,0-3.7c-0.3-0.5-0.5-1.3-0.8-2.1s-0.8-1.6-1.6-2.7c-1.1-1.6-1.9-2.9-2.4-4
		c-0.5-1.1-1.1-2.1-1.3-2.9c-0.5-1.6-0.5-3.5,0-5.6c0.5-2.9,1.9-5.1,3.7-6.4c1.9-1.3,4.3-1.9,6.7-1.1
		C665.2,144.6,666.8,145.4,668.2,146.7z"/>
	
		<rect x="670.9" y="148.3" transform="matrix(0.9478 0.319 -0.319 0.9478 88.5604 -206.0714)" fill="#00A651" width="5.1" height="38.1"/>
	<path fill="#00A651" d="M691.3,173.6l8.3,4l-0.5,1.3c-3.2,6.7-5.9,10.9-8.3,12.8c-2.4,1.9-5.1,2.1-8.3,0.5c-3.2-1.6-5.1-4-5.1-7.5
		c0-3.2,1.3-8,4.3-14.4c3.5-7.2,6.4-11.7,9.1-13.3c2.4-1.6,5.3-1.6,8.3-0.3c2.1,1.1,3.7,2.4,4.5,4s0.8,4,0.5,6.9l-5.1-0.3
		c0.3-1.1,0.3-1.9,0.5-2.7c0-0.8,0-1.3,0-1.9c-0.3-1.1-0.8-1.6-2.1-2.1c-1.6-0.8-2.9-0.3-4.5,1.3c-1.6,1.6-3.5,5.1-5.9,10.4
		c-2.4,5.1-4,8.8-4.3,10.9c-0.3,2.1,0.3,3.5,1.9,4.3c1.3,0.8,2.9,0.5,4-0.5c1.3-1.1,2.7-3.2,4-6.4l0.5-1.1l0.3-0.8l-4-1.9
		L691.3,173.6z"/>
	<path fill="#00A651" d="M715.8,166.2l4,2.7l-4.5,15.4c-1.3,4.3-2.7,8.8-4.5,13.6c1.3-2.7,2.7-5.1,3.7-7.2c1.1-2.1,2.4-4,3.5-5.6
		l8-11.7l4.3,2.9l-21.6,31.2l-4-2.7l5.1-17.3c0.5-1.6,1.1-3.2,1.6-4.8c0.5-1.6,1.3-3.2,1.9-5.1c0-0.3,0.3-0.5,0.3-0.8
		c0-0.3,0.3-0.8,0.5-1.1c-0.3,0.3-0.3,0.8-0.5,1.1c-0.3,0.3-0.3,0.5-0.3,0.8l-1.9,3.2l-2.4,4c-0.3,0.3-0.3,0.5-0.5,0.8
		c-0.3,0.3-0.5,0.8-0.8,1.1l-9.3,13.8l-4.3-2.9L715.8,166.2z"/>
	<path fill="#00A651" d="M492.1,404c-2.9,1.9-5.3,2.9-6.9,3.2c-1.6,0.3-3.2-0.5-4-2.1c-1.1-1.6-1.1-3.2-0.3-4.8
		c0.8-1.6,2.9-3.5,6.4-5.6c2.9-1.9,5.3-3.2,7.2-3.2c1.6-0.3,3.2,0.5,4,2.1c1.1,1.3,1.1,2.9,0.5,4.3c-0.3,0.8-1.1,1.9-2.1,2.9
		C495.9,401.3,494.3,402.4,492.1,404z M490.3,401.6c2.9-1.9,4.8-3.5,5.6-4.3c0.8-0.8,0.8-1.9,0.3-2.7c-0.5-0.8-1.3-1.1-2.4-0.8
		c-1.1,0.3-2.9,1.3-5.6,3.2c-2.4,1.6-4,2.9-4.8,3.7c-0.8,0.8-0.8,1.6-0.3,2.4c0.5,0.8,1.3,1.1,2.4,0.8
		C486.3,404,487.9,403.2,490.3,401.6z"/>
	<path fill="#00A651" d="M502.3,399.7l2.1,2.9c0.8,1.1,1.3,2.4,1.3,3.2c-0.3,1.3-1.1,2.4-2.4,3.7c-1.1,0.8-2.1,1.3-3.2,1.6
		c-1.1,0.3-1.9,0-2.7-0.5l-5.6,9.1l-1.6-2.1l5.6-9.1l-8,6.1l-1.6-2.1L502.3,399.7z M496.7,407.2c0.5,0.8,1.3,1.3,1.9,1.3
		s1.3-0.3,2.4-1.1c0.5-0.3,0.8-0.8,1.1-1.1c0.3-0.3,0.5-0.8,0.5-1.1c0-0.3,0-0.5,0-1.1c0-0.3-0.3-0.5-0.5-1.1l-0.3-0.3L496.7,407.2z
		"/>
	
		<rect x="500.8" y="405.9" transform="matrix(0.6543 0.7562 -0.7562 0.6543 488.1523 -235.9146)" fill="#00A651" width="2.7" height="20.2"/>
	<path fill="#00A651" d="M508.9,422.4l3.5,3.5l-0.5,0.5c-2.9,2.7-5.1,4.3-6.4,4.8c-1.6,0.5-2.9,0-4.3-1.3c-1.3-1.3-1.9-2.9-1.1-4.5
		c0.5-1.6,2.1-3.7,4.8-6.4c3.2-2.9,5.3-4.5,6.9-5.1c1.6-0.3,2.9,0.3,4.3,1.3c0.8,1.1,1.3,1.9,1.6,2.9c0,1.1-0.3,2.1-1.1,3.5
		l-2.7-1.1c0.3-0.5,0.5-0.8,0.8-1.3c0.3-0.3,0.3-0.5,0.3-0.8c0-0.5-0.3-1.1-0.5-1.6c-0.5-0.5-1.6-0.8-2.4-0.3
		c-1.1,0.5-2.7,1.9-4.8,4s-3.5,3.7-4.3,4.8c-0.5,1.1-0.5,1.9,0.3,2.4c0.5,0.5,1.3,0.8,2.1,0.5c0.8-0.3,1.9-1.1,3.2-2.4l0.3-0.3
		l0.3-0.3l-1.6-1.6L508.9,422.4z"/>
	
		<rect x="513.9" y="419" transform="matrix(0.736 0.677 -0.677 0.736 426.5261 -235.4852)" fill="#00A651" width="2.7" height="20.2"/>
	<path fill="#00A651" d="M525.2,424.5l1.9,1.6l-2.9,8c-0.8,2.4-1.9,4.5-2.9,6.9c0.8-1.3,1.6-2.7,2.4-3.7c0.8-1.1,1.3-2.1,2.1-2.9
		l4.8-5.9l2.1,1.9l-12.8,15.7l-1.9-1.6l3.5-9.1c0.3-0.8,0.8-1.6,1.1-2.7c0.3-0.8,0.8-1.6,1.3-2.7l0.3-0.5l0.3-0.5l-0.3,0.5l-0.3,0.3
		l-1.1,1.6l-1.6,2.1l-0.3,0.5l-0.5,0.5l-5.6,6.9l-2.1-1.6L525.2,424.5z"/>
	<path fill="#00A651" d="M537.2,433.8l1.9,1.3l-8,19.2l-2.1-1.6l1.6-3.7l-3.2-2.4l-2.9,2.9l-2.1-1.6L537.2,433.8z M531,447.1
		l1.3-2.9c1.1-2.1,2.1-4.3,3.2-6.4c-0.8,0.8-1.6,1.9-2.4,2.7c-0.8,0.8-1.9,1.9-2.9,2.9l-1.9,1.9L531,447.1z"/>
	<polygon fill="#00A651" points="543.3,438.1 545.7,439.4 536.4,454.9 540.1,457.3 539,459.1 532.6,455.4 	"/>
	<path fill="#00A651" d="M555.3,445l3.5,1.6c2.7,1.3,3.2,3.5,1.6,6.7c-0.5,1.3-1.3,2.1-1.9,2.4c-0.5,0.5-1.3,0.5-2.4,0.5
		c0.8,0.8,1.3,1.6,1.3,2.4c0,0.8-0.3,1.9-0.8,2.9c-1.6,3.5-4,4.3-6.7,2.9l-3.2-1.6L555.3,445z M549.7,462.3c1.1,0.5,1.9,0.5,2.4,0.3
		c0.5-0.3,1.1-1.1,1.6-2.1c0.5-1.1,0.8-2.1,0.5-2.7c-0.3-0.5-0.8-1.3-1.9-1.6L549.7,462.3z M553.7,454.1c1.1,0.5,1.9,0.5,2.4,0.3
		c0.5-0.3,1.1-1.1,1.9-2.1c1.1-1.9,0.8-3.2-0.8-4h-0.3l0,0l0,0L553.7,454.1z"/>
	<path fill="#00A651" d="M564.6,449.5l3.5,1.3c1.3,0.5,2.4,1.3,2.7,2.1c0.5,1.1,0.5,2.7-0.3,4.5c-0.5,1.3-1.3,2.4-1.9,2.9
		c-0.8,0.5-1.6,0.8-2.7,0.8l-0.3,10.7l-2.7-1.1l0.3-10.7l-3.7,9.3l-2.7-1.1L564.6,449.5z M563.8,458.9c1.1,0.3,1.9,0.5,2.4,0.3
		c0.5-0.3,1.1-1.1,1.6-2.1c0.3-0.5,0.3-1.1,0.5-1.6c0-0.5,0-0.8,0-1.1c0-0.3-0.3-0.5-0.5-0.8c-0.3-0.3-0.5-0.5-1.1-0.5l-0.5-0.3
		L563.8,458.9z"/>
	<path fill="#00A651" d="M577.4,454.3l2.1,0.5l-2.1,20.8l-2.7-0.8l0.5-4l-3.7-1.3l-1.9,3.5l-2.4-0.8L577.4,454.3z M575.5,468.7
		l0.5-3.2c0.3-2.1,0.8-4.5,1.3-6.9c-0.5,1.1-1.1,2.1-1.6,3.5c-0.5,1.1-1.1,2.4-1.9,3.5l-1.3,2.4L575.5,468.7z"/>
	<path fill="#00A651" d="M584.6,456.5l2.4,0.5l0.8,8.5c0.3,2.4,0.3,5.1,0.3,7.7c0.3-1.6,0.3-2.9,0.5-4.3c0.3-1.3,0.5-2.4,0.8-3.5
		l1.9-7.5l2.7,0.5l-4.8,19.7l-2.4-0.5l-0.8-9.6c0-0.8,0-1.9-0.3-2.7c0-0.8,0-1.9,0-2.9v-0.5v-0.5v0.5v0.5l-0.3,2.1l-0.5,2.4v0.5
		c0,0.3,0,0.5-0.3,0.8l-1.9,8.5l-2.7-0.5L584.6,456.5z"/>
	<path fill="#00A651" d="M596.3,459.1l3.5,0.5c1.1,0.3,1.9,0.5,2.4,0.8c0.5,0.3,1.1,0.8,1.6,1.3c0.5,1.1,1.1,2.1,1.1,3.5
		c0,1.3,0,3.2-0.3,5.6c-0.3,2.1-0.8,4-1.3,5.3c-0.5,1.3-1.3,2.1-2.1,2.7c-1.1,0.8-2.9,0.8-5.6,0.5l-2.1-0.3L596.3,459.1z
		 M596.3,477.2c1.6,0.3,2.9,0,3.5-1.1c0.8-0.8,1.3-2.9,1.9-5.6c0.5-3.2,0.5-5.3,0.3-6.4c-0.3-1.3-1.3-1.9-2.7-2.1h-0.3L596.3,477.2z
		"/>
	
		<rect x="607.2" y="460.9" transform="matrix(0.9952 9.804944e-02 -9.804944e-02 0.9952 49.1181 -57.3987)" fill="#00A651" width="2.7" height="20.2"/>
	<path fill="#00A651" d="M613.6,461.3h2.7l2.4,8.3c0.8,2.4,1.3,4.8,1.9,7.5c-0.3-1.6-0.3-2.9-0.3-4.3c0-1.3,0-2.4,0-3.7l0.3-7.5h2.7
		l-0.8,20.2h-2.7l-2.7-9.3c-0.3-0.8-0.5-1.9-0.8-2.7s-0.5-1.9-0.5-2.9v-0.5v-0.5v0.5v0.5v2.1v2.4v0.5c0,0.3,0,0.5,0,0.8l-0.3,8.8
		h-2.7L613.6,461.3z"/>
	<path fill="#00A651" d="M630.6,471.1l5.1-0.3v0.8c0.3,4,0,6.7-0.8,8c-0.5,1.3-1.9,2.1-3.7,2.4c-1.9,0-3.5-0.8-4.3-2.1
		c-0.8-1.6-1.3-4.3-1.6-8c-0.3-4.3,0.3-7.2,1.1-8.5c0.8-1.3,2.1-2.1,3.7-2.1c1.3,0,2.4,0.3,3.2,0.8c0.8,0.5,1.3,1.6,1.9,3.2
		l-2.4,1.1c-0.3-0.5-0.3-1.1-0.5-1.3s-0.3-0.5-0.5-0.8c-0.3-0.5-0.8-0.5-1.6-0.5s-1.6,0.5-1.9,1.9c-0.3,1.1-0.3,3.2-0.3,6.4
		c0,3.2,0.3,5.1,0.8,6.1c0.3,1.1,1.1,1.6,1.9,1.6s1.3-0.5,1.9-1.3c0.3-0.8,0.5-2.1,0.3-4v-0.5v-0.5h-2.4L630.6,471.1z"/>
	<polygon fill="#00A651" points="663.4,456.7 666,455.9 671.1,473.2 675.4,472.2 675.9,474.3 669,476.2 	"/>
	<path fill="#00A651" d="M684.7,461c1.3,3.5,1.6,5.9,1.3,7.7c-0.3,1.6-1.3,2.9-2.9,3.5c-1.9,0.8-3.5,0.3-4.8-0.8
		c-1.3-1.3-2.7-3.7-4-7.5c-1.3-3.5-1.6-5.9-1.6-7.7c0.3-1.6,1.3-2.9,2.9-3.5c1.6-0.5,2.9-0.5,4.3,0.3c0.8,0.5,1.6,1.3,2.1,2.7
		C683.1,456.7,683.6,458.6,684.7,461z M682,462.3c-1.1-3.2-2.1-5.3-2.9-6.4c-0.8-1.1-1.6-1.3-2.4-1.1c-0.8,0.3-1.3,1.1-1.3,2.1
		c0,1.1,0.5,3.2,1.9,6.1c1.1,2.9,1.9,4.8,2.7,5.6c0.8,0.8,1.6,1.3,2.4,0.8c0.8-0.3,1.3-1.1,1.3-2.1
		C683.4,466.6,682.8,464.7,682,462.3z"/>
	<path fill="#00A651" d="M691.3,457l4.5-2.1l0.3,0.8c1.6,3.7,2.4,6.1,2.4,7.7c0,1.6-0.8,2.7-2.7,3.5c-1.9,0.8-3.5,0.5-4.8-0.5
		c-1.3-1.1-2.9-3.5-4.5-6.7c-1.9-4-2.4-6.7-2.4-8.3c0.3-1.6,1.1-2.7,2.7-3.5c1.3-0.5,2.4-0.8,3.2-0.5c1.1,0.3,1.9,1.1,2.9,2.1
		l-1.9,2.1c-0.3-0.5-0.5-0.8-0.8-1.1c-0.3-0.3-0.5-0.5-0.8-0.5c-0.5-0.3-1.1-0.3-1.6,0c-0.8,0.3-1.1,1.1-1.1,2.4
		c0.3,1.3,0.8,3.2,2.1,5.9c1.3,2.9,2.4,4.5,2.9,5.6c0.8,0.8,1.6,1.1,2.4,0.8c0.8-0.3,1.1-1.1,1.1-1.9s-0.3-2.1-1.1-3.7l-0.3-0.5
		l-0.3-0.3l-2.1,1.1L691.3,457z"/>
	<path fill="#00A651" d="M707.9,449.5c1.9,3.2,2.7,5.6,2.7,7.2c0,1.6-0.8,2.9-2.4,4c-1.6,1.1-3.5,0.8-4.8,0
		c-1.6-1.1-3.2-3.2-5.1-6.9c-1.9-3.2-2.7-5.6-2.7-7.2c0-1.6,0.8-2.9,2.4-4c1.6-0.8,2.9-0.8,4.3-0.3c0.8,0.5,1.9,1.3,2.7,2.4
		C705.5,445.8,706.5,447.4,707.9,449.5z M705.5,451.1c-1.6-3.2-2.9-5.1-3.7-5.9s-1.6-1.1-2.7-0.5c-0.8,0.5-1.1,1.3-1.1,2.4
		c0.3,1.1,1.1,2.9,2.7,5.9c1.3,2.7,2.7,4.3,3.5,5.1c0.8,0.8,1.6,1.1,2.4,0.5c0.8-0.5,1.1-1.1,0.8-2.1
		C707.3,455.4,706.8,453.5,705.5,451.1z"/>
	<path fill="#00A651" d="M715.6,432l1.3,2.1c-0.8,0-1.3,0.3-1.9,0.5c-0.5,0.3-0.8,0.8-1.1,1.3c-0.3,0.5-0.3,1.1,0,1.9
		c0.3,0.8,0.5,1.6,0.8,2.4c0.5,0.8,1.1,1.9,1.9,3.2c2.9,4,5.3,5.3,7.5,4c0.3-0.3,0.8-0.8,1.1-1.3l1.3,2.1c-0.3,0.8-0.8,1.3-1.6,1.6
		c-3.5,2.4-6.9,0.8-10.9-4.8c-2.1-2.9-3.2-5.6-3.5-7.5c-0.3-2.1,0.5-3.7,2.1-4.8C714,432.2,714.8,432,715.6,432z"/>
	<path fill="#00A651" d="M716.6,430.6l2.9-2.4c1.1-1.1,2.1-1.3,3.2-1.3c1.3,0.3,2.7,1.1,3.7,2.4c0.8,1.1,1.3,2.1,1.6,3.2
		c0.3,1.1,0,1.9-0.5,2.7l9.1,5.3l-2.1,1.9l-9.1-5.3l6.4,7.7l-2.1,1.6L716.6,430.6z M724.6,436c0.8-0.8,1.3-1.3,1.3-1.9
		c0-0.5-0.3-1.3-1.1-2.4c-0.3-0.5-0.8-0.8-1.1-1.1c-0.3-0.3-0.8-0.5-1.1-0.5c-0.3,0-0.5,0-1.1,0c-0.3,0-0.5,0.3-1.1,0.5l-0.3,0.3
		L724.6,436z"/>
	<polygon fill="#00A651" points="725.2,423.7 730.5,418.9 732.1,420.5 728.6,423.7 732.9,428.2 735.8,425.6 737.4,427.2 
		734.5,430.1 739.3,435.2 742.7,432 744.1,433.8 738.7,438.6 	"/>
	<path fill="#00A651" d="M733.7,415.4l1.6-1.6l17.8,10.9l-1.9,1.9l-3.5-2.1l-2.7,2.9l2.4,3.2l-1.9,1.9L733.7,415.4z M745.9,423.2
		l-2.7-1.9c-1.9-1.3-3.7-2.7-5.9-4.3c0.8,0.8,1.6,1.9,2.4,2.9c0.8,1.1,1.6,2.1,2.4,3.2l1.6,2.1L745.9,423.2z"/>
	<polygon fill="#00A651" points="737.7,411.2 743.3,404.5 745.1,406.1 743.3,408.3 756.9,420 755.3,422.1 741.4,410.4 739.5,412.8 	
		"/>
	
		<rect x="751.7" y="398.6" transform="matrix(0.6098 -0.7926 0.7926 0.6098 -30.1144 756.3484)" fill="#00A651" width="2.7" height="20.2"/>
	<path fill="#00A651" d="M761.9,396.8c2.9,2.1,4.8,3.7,5.6,5.3c0.8,1.6,0.8,2.9-0.3,4.5c-1.1,1.6-2.7,2.4-4.3,2.1
		c-1.9-0.3-4.3-1.6-7.7-3.7c-2.9-2.1-4.8-3.7-5.6-5.3c-0.8-1.6-0.5-2.9,0.5-4.5c1.1-1.3,2.1-2.1,3.5-2.1c1.1,0,2.1,0.3,3.5,0.8
		C758.2,394.4,759.8,395.5,761.9,396.8z M760.6,399.5c-2.9-1.9-5.1-3.2-6.1-3.5s-1.9-0.3-2.4,0.5c-0.5,0.8-0.5,1.6,0.3,2.4
		s2.4,2.1,5.1,4c2.4,1.6,4.3,2.7,5.3,3.2c1.1,0.3,1.9,0,2.4-0.8c0.5-0.8,0.5-1.6-0.3-2.4C764.3,402.1,762.7,401.1,760.6,399.5z"/>
	<path fill="#00A651" d="M754.2,389.1l1.3-2.1l8.5,1.6c2.4,0.5,4.8,1.1,7.5,1.9c-1.6-0.5-2.7-1.1-4-1.6c-1.1-0.5-2.1-1.1-3.2-1.6
		l-6.7-3.7l1.3-2.4l17.6,10.1l-1.3,2.1l-9.6-1.9c-0.8-0.3-1.9-0.3-2.7-0.5c-0.8-0.3-1.9-0.5-2.7-0.8l-0.5-0.3l-0.5-0.3l0.5,0.3
		l0.3,0.3l1.9,0.8l2.1,1.1l0.5,0.3l0.5,0.3l7.7,4.3l-1.3,2.4L754.2,389.1z"/>
	<path fill="#00A651" d="M894.3,676.2l-1.6,2.1c-0.3-1.1-0.5-1.6-1.1-2.1c-0.5-0.5-1.1-0.5-1.9-0.5c-0.5,0-1.3,0.5-1.9,1.1
		c-0.5,0.5-0.8,1.1-0.8,1.6c0,0.3,0,0.8,0,1.3s0,1.3,0.3,2.1c0,1.6,0,2.9,0,3.7c-0.3,0.8-0.8,1.9-1.3,2.7c-1.1,1.3-2.1,1.9-3.5,2.1
		c-1.3,0.3-2.4-0.3-3.5-1.1c-0.8-0.8-1.3-1.6-1.6-2.7l1.9-2.1c0.3,1.1,0.8,2.1,1.3,2.4c0.5,0.5,1.1,0.5,1.9,0.5
		c0.5,0,1.3-0.5,1.9-1.1c0.5-0.5,0.8-1.1,0.8-1.9c0-0.3,0-0.8,0-1.1c0-0.5,0-1.1,0-1.6c0-1.1-0.3-1.9-0.3-2.4c0-0.8,0-1.3,0-1.6
		c0.3-0.8,0.5-1.9,1.3-2.7c1.1-1.3,2.1-1.9,3.5-2.1c1.3-0.3,2.4,0.3,3.5,1.1C893.5,674.3,894,675.1,894.3,676.2z"/>
	<path fill="#00A651" d="M897.7,678l1.9,1.3l-3.2,7.7c-0.5,1.1-0.8,1.9-1.3,2.9c-0.5,1.1-1.1,1.9-1.6,2.9l0.3-0.3l0,0l1.6-1.6
		l1.6-1.6l1.1-1.1l5.9-5.9l1.9,1.3l-10.1,17.8l-2.1-1.6l3.5-5.9c0.3-0.3,0.3-0.5,0.5-0.8l0.3-0.5l1.6-2.4l1.3-2.1l0,0v-0.3l-0.3,0.3
		c-0.3,0.3-0.5,0.5-0.8,0.8c-0.3,0.3-0.5,0.5-0.5,0.5l-1.3,1.3l-0.5,0.5l-6.4,6.4l-1.6-1.1l3.2-7.2c0.5-1.1,0.8-1.9,1.3-2.9
		c0.5-1.1,1.1-1.9,1.6-2.9l-8.8,10.9l-2.1-1.6L897.7,678z"/>
	<path fill="#00A651" d="M911.9,687.4l1.9,1.1l-6.4,19.7l-2.4-1.3l1.3-3.7l-3.5-2.1l-2.7,2.9l-2.4-1.3L911.9,687.4z M906.8,701.2
		l1.1-3.2c0.8-2.1,1.6-4.3,2.7-6.7c-0.8,1.1-1.6,1.9-2.4,2.9c-0.8,1.1-1.6,2.1-2.7,3.2l-1.9,2.1L906.8,701.2z"/>
	<polygon fill="#00A651" points="918.5,691.3 920.9,692.4 912.9,708.7 916.9,710.5 916.1,712.6 909.5,709.5 	"/>
	<polygon fill="#00A651" points="926.2,695.1 928.9,696.1 922,712.6 926,714.5 925.2,716.6 918.5,713.7 	"/>
	<path fill="#00A651" d="M937.9,699.9l2.7,0.8l-1.3,9.6l-0.3,1.3c0,0.8-0.3,1.3-0.3,2.1l-0.3,1.6v0.3v0.5l0.3-0.5
		c0.5-1.1,0.8-2.1,1.1-2.9c0.3-0.8,0.8-1.6,1.1-2.4l3.7-8l2.1,0.5l-1.1,8.5c-0.3,1.3-0.3,2.4-0.5,3.5c-0.3,1.1-0.3,2.1-0.5,3.2
		c0.3-1.1,0.8-1.9,1.1-2.9c0.3-0.8,0.8-1.9,1.1-2.7l0.5-1.3l3.2-7.5l2.4,0.8l-9.1,18.6l-2.1-0.5l1.1-8.8c0,0,0-0.3,0-0.5
		c0-0.3,0-0.5,0.3-1.1l0.3-2.1c0-0.3,0-0.3,0-0.8c0-0.3,0-0.8,0.3-1.1l0.3-0.8l-0.3,0.5l-0.3,0.3c-0.3,0.5-0.3,1.1-0.5,1.3
		c0,0.3-0.3,0.5-0.3,0.5l-0.8,1.9c-0.3,0.5-0.3,0.8-0.5,1.1l-0.3,0.5l-3.7,8l-2.1-0.5L937.9,699.9z"/>
	<polygon fill="#00A651" points="954.5,704.1 961.7,705.7 961.1,707.9 956.6,707.1 955.5,713.4 959.3,714.2 959,716.4 955,715.6 
		953.7,722.5 958.2,723.3 957.7,725.7 950.5,724.1 	"/>
	<path fill="#00A651" d="M963.8,706l3.7,0.5c2.9,0.3,4,2.4,3.7,5.9c-0.3,1.3-0.5,2.4-1.1,2.9c-0.5,0.5-1.1,1.1-2.1,1.3
		c1.1,0.5,1.6,1.3,2.1,1.9c0.3,0.8,0.5,1.9,0.3,3.2c-0.5,3.7-2.4,5.3-5.3,5.1l-3.5-0.5L963.8,706z M964,724.1c1.1,0.3,1.9,0,2.4-0.5
		c0.5-0.5,0.8-1.3,1.1-2.4c0.3-1.3,0-2.1-0.3-2.7c-0.3-0.5-1.1-1.1-2.1-1.1L964,724.1z M965.1,715c1.1,0,1.9,0,2.4-0.5
		c0.5-0.5,0.8-1.3,1.1-2.7c0.3-2.1-0.3-3.5-1.9-3.5h-0.3l0,0h-0.3L965.1,715z"/>
	<path fill="#00A651" d="M981.1,707.9l-0.3,2.7c-0.8-0.5-1.6-1.1-2.1-1.1c-0.8,0-1.3,0.3-1.9,0.8c-0.5,0.5-0.8,1.1-0.8,1.9
		c0,0.8,0,1.3,0.3,1.9c0.3,0.3,0.5,0.5,0.8,1.1c0.3,0.5,0.8,1.1,1.3,1.6c1.1,1.1,1.9,2.1,2.1,2.9c0.3,0.8,0.5,1.9,0.5,2.9
		c0,1.6-0.5,2.9-1.6,3.7c-1.1,1.1-2.1,1.3-3.5,1.3c-1.1,0-2.1-0.5-2.9-1.1l0.3-2.7c1.1,0.8,1.9,1.1,2.7,1.3c0.8,0,1.3-0.3,1.9-0.5
		c0.5-0.5,0.8-1.1,0.8-1.9c0-0.8,0-1.3-0.3-2.1c-0.3-0.3-0.3-0.5-0.5-1.1c-0.3-0.3-0.5-0.8-1.1-1.3c-0.5-0.8-1.1-1.3-1.6-1.9
		c-0.5-0.5-0.8-1.1-1.1-1.3c-0.3-0.8-0.5-1.9-0.5-2.9c0-1.6,0.5-2.9,1.3-3.7s2.1-1.3,3.5-1.3C979.5,707.1,980.3,707.6,981.1,707.9z"
		/>
	
		<rect x="984.8" y="707.7" transform="matrix(0.9999 1.602074e-02 -1.602074e-02 0.9999 11.6261 -15.7059)" fill="#00A651" width="2.7" height="20.2"/>
	<polygon fill="#00A651" points="988.3,707.6 997.3,707.3 997.3,709.7 994.4,709.7 995.2,727.6 992.5,727.8 991.7,710 988.5,710 	
		"/>
	<polygon fill="#00A651" points="998.7,707.1 1005.9,706.3 1006.1,708.7 1001.6,709.2 1002.1,715.6 1006.1,715 1006.4,717.4 
		1002.4,717.7 1003.2,724.6 1007.7,724.1 1008,726.5 1000.8,727.3 	"/>
	<path fill="#00A651" d="M1014.9,705.2l0.5,2.7c-0.8-0.5-1.6-0.5-2.4-0.5c-0.8,0-1.3,0.5-1.6,1.1c-0.3,0.5-0.5,1.3-0.3,2.1
		c0,0.8,0.3,1.3,0.8,1.6c0.3,0.3,0.5,0.5,1.1,0.8c0.5,0.3,1.1,0.8,1.6,1.3c1.3,0.8,2.1,1.9,2.7,2.4c0.5,0.8,0.8,1.6,1.1,2.7
		c0.3,1.6,0,2.9-0.5,4c-0.8,1.1-1.9,1.9-3.2,2.1c-1.1,0.3-2.1,0-3.2-0.5l-0.5-2.7c1.1,0.5,2.1,0.8,2.9,0.5c0.8,0,1.3-0.5,1.6-1.1
		c0.3-0.5,0.5-1.3,0.3-2.1c0-0.8-0.5-1.3-0.8-1.9c-0.3-0.3-0.5-0.5-0.8-0.8c-0.3-0.3-0.8-0.5-1.3-1.1c-0.8-0.5-1.6-1.1-2.1-1.6
		c-0.5-0.5-1.1-0.8-1.3-1.1c-0.5-0.8-0.8-1.6-1.1-2.7c-0.3-1.6,0-2.9,0.5-4c0.5-1.1,1.6-1.6,3.2-1.9
		C1012.8,704.9,1013.8,704.9,1014.9,705.2z"/>
	<path fill="#00A651" d="M1043.9,695.9l3.5-1.6c2.7-1.3,4.8-0.3,6.1,3.2c0.5,1.3,0.8,2.1,0.8,2.9s-0.5,1.6-1.1,2.1
		c1.1,0,2.1,0,2.7,0.5c0.5,0.5,1.3,1.3,1.9,2.4c1.6,3.5,0.8,5.9-1.9,7.2l-3.2,1.6L1043.9,695.9z M1050.1,702.8
		c1.1-0.5,1.6-1.1,1.6-1.6c0.3-0.5,0-1.6-0.5-2.7c-0.8-1.9-2.1-2.7-3.5-1.9h-0.3l0,0l0,0L1050.1,702.8z M1053.8,711.1
		c1.1-0.5,1.6-1.1,1.9-1.6c0.3-0.5,0-1.6-0.5-2.7c-0.5-1.1-1.1-1.9-1.9-2.1c-0.5-0.3-1.3-0.3-2.4,0.3L1053.8,711.1z"/>
	<polygon fill="#00A651" points="1053.5,691.1 1055.9,689.7 1064.7,705.7 1068.7,703.3 1069.8,705.5 1063.4,708.9 	"/>
	<path fill="#00A651" d="M1075.6,690.5c1.9,2.9,2.9,5.3,3.2,7.2c0.3,1.6-0.5,2.9-2.1,4c-1.6,1.1-3.2,1.1-4.8,0.3
		c-1.6-0.8-3.5-2.9-5.6-6.4c-1.9-2.9-2.9-5.3-3.2-7.2c-0.3-1.6,0.5-3.2,2.1-4c1.3-0.8,2.9-1.1,4.3-0.5c0.8,0.3,1.9,1.1,2.9,2.1
		C1073,686.8,1074,688.1,1075.6,690.5z M1073.2,692.1c-1.9-2.9-3.2-4.8-4.3-5.6c-0.8-0.8-1.9-1.1-2.7-0.5c-0.8,0.5-1.1,1.3-0.8,2.4
		s1.3,2.9,3.2,5.6c1.6,2.4,2.9,4.3,3.7,5.1c0.8,0.8,1.6,0.8,2.4,0.3c0.8-0.5,1.1-1.3,0.8-2.4
		C1075.6,696.1,1074.8,694.5,1073.2,692.1z"/>
	<path fill="#00A651" d="M1081.2,684.7l4-2.9l0.5,0.5c2.4,3.2,3.7,5.6,4,6.9c0.3,1.6-0.3,2.9-1.9,4c-1.6,1.1-3.2,1.3-4.8,0.5
		c-1.6-0.8-3.5-2.7-5.9-5.6c-2.7-3.5-4-5.9-4.3-7.5c-0.3-1.6,0.5-2.9,1.9-4c1.1-0.8,2.1-1.1,2.9-1.1c1.1,0,2.1,0.5,3.5,1.3l-1.3,2.4
		c-0.5-0.3-0.8-0.5-1.1-0.8c-0.3-0.3-0.5-0.3-0.8-0.3c-0.5,0-1.1,0-1.6,0.5c-0.8,0.5-0.8,1.3-0.5,2.4c0.5,1.1,1.6,2.9,3.5,5.3
		c1.9,2.4,3.2,4,4.3,4.5s1.9,0.8,2.7,0c0.8-0.5,1.1-1.3,0.8-2.1s-0.8-2.1-1.9-3.5l-0.3-0.5l-0.3-0.3l-1.9,1.3L1081.2,684.7z"/>
	<path fill="#00A651" d="M1086.6,668.4l1.9,1.9c-1.1,0-1.9,0.3-2.4,0.8s-0.8,1.1-0.8,1.9c0,0.5,0.3,1.3,0.8,1.9
		c0.5,0.5,1.1,0.8,1.6,1.1c0.3,0,0.8,0.3,1.3,0.3c0.5,0,1.3,0,2.1,0.3c1.6,0,2.9,0.3,3.7,0.8c0.8,0.3,1.6,0.8,2.4,1.9
		c1.1,1.1,1.6,2.4,1.6,3.7c0,1.3-0.5,2.4-1.6,3.5c-0.8,0.8-1.9,1.3-2.9,1.3l-1.9-2.1c1.3,0,2.1-0.5,2.7-1.1c0.5-0.5,0.8-1.1,0.8-1.6
		s-0.3-1.3-0.8-1.9c-0.5-0.5-1.1-1.1-1.6-1.1c-0.3,0-0.8-0.3-1.1-0.3c-0.5,0-1.1,0-1.6-0.3c-1.1,0-1.9,0-2.4-0.3
		c-0.8,0-1.3-0.3-1.6-0.3c-0.8-0.3-1.6-0.8-2.4-1.9c-1.1-1.1-1.6-2.4-1.6-3.7c0-1.3,0.5-2.4,1.6-3.2
		C1084.7,669,1085.5,668.7,1086.6,668.4z"/>
	<path fill="#FFFFFF" d="M662.6,341.1c-0.8-1.1-2.1-1.9-3.5-2.1l-67.6-95.3l-7.2,5.1l67.6,95.3c0,1.3,0.3,2.7,1.1,4l21.3,29.8
		c0.8,1.1,2.1,1.9,3.5,2.1l2.7,3.7c0.8,1.1,2.1,1.6,3.5,1.9l16.2,10.9l0,0l-12.3-17.3l0,0V379l-2.7-3.7c0-1.3-0.3-2.7-1.1-4
		L662.6,341.1z"/>
	<path fill="#FFFFFF" d="M577.1,379.2c0-1.6-0.3-2.9-0.8-4.3c1.3,0.8,2.9,0.5,4-0.5c0.8-1.3,0.5-2.9-0.5-4l-1.1-0.8
		c9.3-9.3,26.6-30.9,45.3-56.7c25.8-36.2,44.5-67.4,41.3-69.5c-2.9-2.1-26.4,25.3-52.5,61.8c-18.6,25.8-33.3,49.3-39.1,61.3
		l-1.1-0.8c-1.3-0.8-2.9-0.5-4,0.5c-0.8,1.3-0.5,2.9,0.5,4l0,0c-0.5,0-1.1,0-1.6,0c-2.7,0.3-4.8,1.9-6.1,4c-1.1,1.9-2.4,3.7-4,5.3
		c-0.3,0.3-0.5,0.5-0.5,0.5c-1.9,1.9-4.5,2.7-7.2,2.7c-1.1,0-1.6,1.3-0.8,2.1l0,0c5.1,4.5,12.5,5.3,18.6,2.4l5.6-2.9
		C575.5,383.5,576.8,381.4,577.1,379.2z"/>
	<path fill="#FFFFFF" d="M1066.6,544.6h-1.9c-8,0-14.6,6.7-14.6,14.6v28.2c0,8,6.7,14.6,14.6,14.6h1.9c8,0,14.6-6.7,14.6-14.6v-28.2
		C1081.2,551.3,1074.8,544.6,1066.6,544.6z M1060.5,597.6c-1.1-1.3-1.6-2.7-1.6-4.5c0-0.5,0-1.1,0.3-1.6h1.3l0.3,0.3v5.9H1060.5z
		 M1063.4,596.5c0,0.5-0.3,0.8-0.3,1.1v-1.3h0.3V596.5z M1065.8,600.3h-0.3c0.3-0.3,0.8-0.5,1.3-1.1v-1.1c-0.5,0.5-0.8,0.8-1.3,1.1
		c-0.3,0.3-0.5,0.3-0.8,0.3s-0.3-0.3-0.3-1.1c0-0.3,0-0.5,0-0.8c0-0.3,0.3-0.8,0.3-1.1v-0.3h1.3l0.3-0.8h-1.1l0.8-2.7h-1.1l-1.1,2.9
		h-0.3h-0.3l0,0V592l0.3-0.3h1.3l0.3-0.3v-2.7l-0.3-0.3h-4c1.3-1.3,3.2-2.4,5.1-2.4c3.7,0,6.7,3.2,6.7,6.9
		C1072.7,596.8,1069.5,600.3,1065.8,600.3z"/>
	<path fill="#FFFFFF" d="M1033.6,535.8H898.8c-1.6,0-2.7,1.3-2.7,2.7v63.6c0,1.6,1.3,2.7,2.7,2.7h134.8c1.6,0,2.7-1.3,2.7-2.7v-63.6
		C1036.5,537.2,1035.2,535.8,1033.6,535.8z M994.4,545.7h10.7v10.7h-10.7V545.7z M976.6,545.7h10.7v10.7h-10.7V545.7z M979.2,565.6
		v10.7h-10.7v-10.7H979.2z M961.1,545.7h10.7v10.7h-10.7V545.7z M963.5,565.6v10.7h-10.7v-10.7H963.5z M945.7,545.7h10.7v10.7h-10.7
		V545.7z M948.9,565.6v10.7h-10.7v-10.7H948.9z M928.1,545.7h10.7v10.7h-10.7V545.7z M907.1,546.7c0-0.5,0.5-1.1,1.1-1.1h2.1h7.2
		h2.1c0.5,0,1.1,0.5,1.1,1.1v8.3c0,0.5-0.5,1.1-1.1,1.1h-2.1h-7.2h-2.1c-0.5,0-1.1-0.5-1.1-1.1V546.7z M907.1,566.7
		c0-0.5,0.5-1.1,1.3-1.1h10.4h10.4c0.8,0,1.3,0.5,1.3,1.1v8.3c0,0.5-0.5,1.1-1.3,1.1h-10.4h-10.4c-0.8,0-1.3-0.5-1.3-1.1V566.7z
		 M933.4,594.9c0,0.5-0.5,1.1-1.1,1.1h-7.7h-1.9h-5.3H914h-5.9c-0.5,0-1.1-0.5-1.1-1.1v-8.3c0-0.5,0.5-1.1,1.1-1.1h5.9h3.5h5.3h1.9
		h7.7c0.5,0,1.1,0.5,1.1,1.1L933.4,594.9L933.4,594.9z M994.7,596.3H983h-9.6h-2.1h-9.6h-11.7h-11.7v-11.5h11.7h11.7h9.6h2.1h9.6
		h11.7V596.3z M994.7,576H984v-10.7h10.7V576z M1025.8,595.2c0,0.5-0.5,1.1-1.1,1.1h-7.7h-1.9h-5.3h-3.5h-5.9
		c-0.5,0-1.1-0.5-1.1-1.1V587c0-0.5,0.5-1.1,1.1-1.1h5.9h3.5h5.3h1.9h7.7c0.5,0,1.1,0.5,1.1,1.1V595.2z M1025.8,575
		c0,0.5-0.5,1.1-1.3,1.1h-10.4h-10.4c-0.8,0-1.3-0.5-1.3-1.1v-8.3c0-0.5,0.5-1.1,1.3-1.1h10.4h10.4c0.8,0,1.3,0.5,1.3,1.1V575z
		 M1025.8,555c0,0.5-0.5,1.1-1.1,1.1h-2.1h-7.2h-2.1c-0.5,0-1.1-0.5-1.1-1.1v-8.3c0-0.5,0.5-1.1,1.1-1.1h2.1h7.2h2.1
		c0.5,0,1.1,0.5,1.1,1.1V555z"/>
	<path fill="none" d="M1033.6,534.2H898.8c-2.4,0-4.5,2.1-4.5,4.5v63.6c0,2.4,2.1,4.5,4.5,4.5h134.8c2.4,0,4.5-2.1,4.5-4.5v-63.6
		C1038.1,536.1,1036.2,534.2,1033.6,534.2z M1036.5,602.4c0,1.6-1.3,2.7-2.7,2.7h-135c-1.6,0-2.7-1.3-2.7-2.7v-63.6
		c0-1.6,1.3-2.7,2.7-2.7h134.8c1.6,0,2.7,1.3,2.7,2.7v63.6H1036.5z"/>
	<path fill="#00A651" d="M1024.8,545.7h-2.1h-7.2h-2.1c-0.5,0-1.1,0.5-1.1,1.1v8.3c0,0.5,0.5,1.1,1.1,1.1h2.1h7.2h2.1
		c0.5,0,1.1-0.5,1.1-1.1v-8.3C1025.8,546.2,1025.3,545.7,1024.8,545.7z"/>
	<path fill="#00A651" d="M908.4,556.1h2.1h7.2h2.1c0.5,0,1.1-0.5,1.1-1.1v-8.3c0-0.5-0.5-1.1-1.1-1.1h-2.1h-7.2h-2.1
		c-0.5,0-1.1,0.5-1.1,1.1v8.3C907.1,555.5,907.6,556.1,908.4,556.1z"/>
	<path fill="#00A651" d="M1024.8,565.6h-10.4H1004c-0.8,0-1.3,0.5-1.3,1.1v8.3c0,0.5,0.5,1.1,1.3,1.1h10.4h10.4
		c0.8,0,1.3-0.5,1.3-1.1v-8.3C1025.8,565.9,1025.3,565.6,1024.8,565.6z"/>
	<path fill="#00A651" d="M908.4,576h10.4h10.4c0.8,0,1.3-0.5,1.3-1.1v-8.3c0-0.5-0.5-1.1-1.3-1.1h-10.4h-10.4
		c-0.8,0-1.3,0.5-1.3,1.1v8.3C907.1,575.5,907.6,576,908.4,576z"/>
	<rect x="938.2" y="565.6" fill="#00A651" width="10.7" height="10.7"/>
	<path fill="#00A651" d="M932.4,585.6h-7.7h-1.9h-5.3H914h-5.9c-0.5,0-1.1,0.5-1.1,1.1v8.3c0,0.5,0.5,1.1,1.1,1.1h5.9h3.5h5.3h1.9
		h7.7c0.5,0,1.1-0.5,1.1-1.1v-8.3C933.4,586.2,932.9,585.6,932.4,585.6z"/>
	<path fill="#00A651" d="M1024.8,585.6h-7.7h-1.9h-5.3h-3.5h-5.9c-0.5,0-1.1,0.5-1.1,1.1v8.3c0,0.5,0.5,1.1,1.1,1.1h5.9h3.5h5.3h1.9
		h7.7c0.5,0,1.1-0.5,1.1-1.1v-8.3C1025.8,586.2,1025.6,585.6,1024.8,585.6z"/>
	<rect x="953.1" y="565.6" fill="#00A651" width="10.7" height="10.7"/>
	<rect x="968.6" y="565.6" fill="#00A651" width="10.7" height="10.7"/>
	<rect x="984" y="565.6" fill="#00A651" width="10.7" height="10.7"/>
	<rect x="928.1" y="545.7" fill="#00A651" width="10.7" height="10.7"/>
	<rect x="945.7" y="545.7" fill="#00A651" width="10.7" height="10.7"/>
	<rect x="961.1" y="545.7" fill="#00A651" width="10.7" height="10.7"/>
	<rect x="976.6" y="545.7" fill="#00A651" width="10.7" height="10.7"/>
	<rect x="994.4" y="545.7" fill="#00A651" width="10.7" height="10.7"/>
	<polygon fill="#00A651" points="973.4,584.8 971.2,584.8 961.7,584.8 949.9,584.8 938.2,584.8 938.2,596.3 949.9,596.3 
		961.7,596.3 971.2,596.3 973.4,596.3 983,596.3 994.7,596.3 994.7,584.8 983,584.8 	"/>
	<path fill="none" d="M1066.6,543.8h-1.9c-8.5,0-15.4,6.9-15.4,15.4v28.2c0,8.5,6.9,15.4,15.4,15.4h1.9c8.5,0,15.4-6.9,15.4-15.4
		v-28.2C1082.3,550.7,1075.4,543.8,1066.6,543.8z M1081.2,587.5c0,8-6.7,14.6-14.6,14.6h-1.9c-8,0-14.6-6.7-14.6-14.6v-28.2
		c0-8,6.7-14.6,14.6-14.6h1.9c8,0,14.6,6.7,14.6,14.6V587.5z"/>
	<path fill="#00A651" d="M1063.1,597.6c0-0.3,0.3-0.5,0.3-1.1v-0.3h-0.3V597.6z"/>
	<path fill="#00A651" d="M1065.8,586.2c-2.1,0-4,1.1-5.1,2.4h4l0.3,0.3v2.7l-0.3,0.3h-1.3l-0.3,0.3v3.7l0,0h0.3h0.3l1.1-2.9h1.1
		l-0.8,2.7h1.1l-0.3,0.8h-1.3v0.3c0,0.5-0.3,0.8-0.3,1.1s0,0.5,0,0.8c0,0.8,0,1.1,0.3,1.1c0.3,0,0.3,0,0.8-0.3
		c0.5-0.3,0.8-0.8,1.3-1.1v1.1c-0.3,0.3-0.8,0.8-1.3,1.1h0.3c3.7,0,6.7-3.2,6.7-6.9S1069.5,586.2,1065.8,586.2z"/>
	<path fill="#00A651" d="M1060.5,591.7h-1.3c0,0.5-0.3,1.1-0.3,1.6c0,1.6,0.5,3.2,1.6,4.5V591.7L1060.5,591.7z"/>
	<path fill="#00A651" d="M869.2,439.4l4.8-4c1.6-1.3,2.9-2.1,4.3-2.7c1.1-0.5,2.4-0.5,4-0.3c2.1,0.3,4.3,1.3,6.4,2.7
		c2.1,1.6,4.5,4,7.5,7.5c2.7,3.2,4.5,6.1,5.9,8.5c1.1,2.4,1.6,4.5,1.1,6.4c-0.3,2.4-2.4,5.3-6.1,8.3l-3.2,2.7L869.2,439.4z
		 M894.5,461.8c2.4-1.9,3.5-4,2.9-6.1c-0.3-2.1-2.4-5.3-5.9-9.6c-3.7-4.5-6.7-7.2-8.8-8.3c-2.1-1.1-4.3-0.8-6.4,1.1l-0.5,0.5
		L894.5,461.8z"/>
	<polygon fill="#00A651" points="891.1,422.4 902.8,415.4 905.2,419.2 897.7,423.4 904.1,433.8 910.5,429.8 912.6,433.6 
		906.3,437.3 912.9,448.5 920.4,444.2 922.5,447.7 910.8,454.9 	"/>
	<path fill="#00A651" d="M907.6,412.8l4.5-2.1l7.7,12l1.3,2.1l2.9,4.8c0.5,0.8,1.1,1.6,1.3,2.1c0.5,0.5,0.8,1.3,1.1,1.9l1.1,1.6
		c0-0.3-0.3-0.8-0.3-1.1c0-0.3-0.3-0.5-0.3-0.8L926,429l-1.6-5.6c-0.3-0.5-0.3-1.1-0.3-1.3c0-0.5-0.3-0.8-0.3-1.1l-3.5-13.8l4.3-1.9
		l8.5,37.8l-3.7,1.6L907.6,412.8z"/>
	<polygon fill="#00A651" points="931,402.9 944.1,399.2 945.4,403.5 937.2,405.9 940.6,417.3 947.8,415.2 949.1,419.2 941.9,421.3 
		945.4,433.8 953.7,431.4 954.7,435.7 941.7,439.4 	"/>
	<polygon fill="#00A651" points="952.3,397.6 957.1,396.5 962.7,429.8 971,428.5 971.5,432.8 958.5,434.9 	"/>
	<path fill="#00A651" d="M992.3,414.1c0,6.7-0.5,11.5-1.9,14.4c-1.3,2.9-4,4.3-7.5,4.3c-3.7,0-6.4-1.3-8-4.5
		c-1.6-2.9-2.4-8.3-2.7-15.7c0-6.7,0.5-11.5,1.9-14.4c1.3-2.9,4-4.3,7.5-4.3c3.2,0,5.6,1.1,7.2,3.2c1.1,1.3,1.9,3.5,2.4,6.1
		C991.7,405.6,992,409.3,992.3,414.1z M987,414.6c0-6.7-0.5-10.9-1.1-13c-0.5-2.1-1.9-3.2-3.7-3.2c-1.9,0-2.9,1.1-3.5,2.9
		c-0.5,2.1-0.8,6.1-0.5,12c0,5.6,0.5,9.3,1.1,11.5c0.8,2.1,1.9,2.9,3.7,2.9c1.6,0,2.9-1.1,3.5-2.9C986.7,423.4,987,420,987,414.6z"
		/>
	<path fill="#00A651" d="M1001.3,394.9l6.7,0.8c3.2,0.5,5.3,1.6,6.7,3.5s1.6,4.5,1.1,8c-0.8,5.1-2.7,8-5.6,9.1
		c-1.6,0.5-3.7,0.5-6.7,0.3l-2.1,16.8l-5.1-0.8L1001.3,394.9z M1004.3,412.3c2.1,0.3,3.7,0,4.5-0.8c0.8-0.8,1.6-2.1,1.9-4.5
		c0.3-2.1,0.3-4-0.5-5.1c-0.5-1.1-1.9-1.9-3.5-2.1h-0.8L1004.3,412.3z"/>
	<path fill="#00A651" d="M1027.7,399.5l4.3,1.3l-1.6,15.7c-0.3,1.9-0.5,4-0.8,5.9s-0.5,4-1.1,6.1c0-0.3,0.3-0.5,0.3-0.5l0.3-0.3
		l1.9-4l1.9-3.7l1.3-2.4l7.5-13.6l4.3,1.3l-8,37.3l-4.8-1.6l2.9-12.5c0.3-0.5,0.3-1.1,0.5-1.6c0-0.5,0.3-0.8,0.3-1.1l1.3-4.8
		l1.3-4.5v-0.3v-0.5l-0.3,0.8c-0.3,0.8-0.8,1.6-1.1,2.1c-0.3,0.5-0.5,1.1-0.8,1.6l-1.6,3.2l-0.5,1.1l-8,14.9l-3.2-1.1l1.3-14.6
		c0.3-1.9,0.5-3.7,0.8-5.9c0.3-1.9,0.5-4,1.1-6.1l-9.3,24.5l-4.5-1.3L1027.7,399.5z"/>
	<polygon fill="#00A651" points="1057.5,410.1 1069.5,416.5 1067.6,420.2 1060.2,416.2 1054.6,427.2 1061.3,430.6 1059.4,434.4 
		1052.7,430.9 1046.9,442.3 1054.3,446.3 1052.5,450.1 1040.2,443.9 	"/>
	<path fill="#00A651" d="M1077.2,421l4,2.7l-4.5,15.2c-1.3,4.3-2.9,8.8-4.8,13.3c1.3-2.7,2.7-5.1,4-6.9c1.3-2.1,2.4-4,3.7-5.6
		l8.3-11.5l4.3,2.9l-22.1,30.9l-4-2.7l5.3-17.3c0.5-1.6,1.1-3.2,1.6-4.8c0.5-1.6,1.3-3.2,2.1-5.1c0-0.3,0.3-0.5,0.3-0.8
		s0.3-0.8,0.5-1.1c-0.3,0.3-0.3,0.8-0.5,1.1c-0.3,0.3-0.3,0.5-0.3,0.8l-2.1,3.2l-2.4,4c-0.3,0.3-0.3,0.5-0.5,0.8s-0.5,0.5-0.8,1.1
		l-9.3,13.6l-4-2.9L1077.2,421z"/>
	<polygon fill="#00A651" points="1096.9,435.7 1109.2,447.1 1106,450.3 1102,446.3 1078.8,470.6 1075.1,467.1 1098.3,442.9 
		1094,438.9 	"/>
	<polygon fill="#FFFFFF" points="544.3,291.9 544.6,292.1 544.9,292.4 544.9,294.3 544.6,294.5 544.3,294.5 543.5,294.5 
		543.3,294.5 543.3,294.3 543.3,294 543,293.7 542.7,293.5 535.6,293.5 535.3,293.7 535.3,294 535.3,295.6 535.3,295.9 535.6,295.9 
		539.5,295.9 539.8,296.1 539.8,296.4 539.8,296.9 539.8,297.2 539.5,297.5 535.6,297.5 535.3,297.5 535.3,297.7 535.3,299.3 
		535.3,299.6 535.6,299.9 542.7,299.9 543,299.6 543.3,299.3 543.3,298.8 543.3,298.5 543.5,298.5 544.3,298.5 544.6,298.5 
		544.9,298.8 544.9,301.2 544.6,301.5 544.3,301.5 531.8,301.5 531.6,301.5 531.3,301.2 531.3,300.1 531.6,299.9 531.8,299.9 
		533.2,299.9 533.4,299.6 533.4,299.3 533.4,294 533.4,293.7 533.2,293.5 531.8,293.5 531.6,293.5 531.3,293.2 531.3,292.1 
		531.6,291.9 531.8,291.9 	"/>
	<polygon fill="#FFFFFF" points="549.4,294 549.1,294.3 549.1,294.5 549.1,294.8 549.1,295.1 549.4,295.3 549.7,295.6 549.9,295.9 
		550.2,295.9 557.9,295.9 558.5,295.9 558.7,296.1 560.1,297.2 560.3,297.5 560.3,297.7 560.3,299.6 560.3,299.9 560.1,300.1 
		558.7,301.2 558.5,301.5 557.9,301.5 549.7,301.5 549.4,301.5 549.1,301.2 547.5,300.4 547.5,300.1 547.5,299.9 548.1,299.1 
		548.1,298.8 548.3,299.1 549.7,299.6 549.9,299.6 550.2,299.9 557.4,299.9 557.9,299.6 558.2,299.6 558.5,299.3 558.7,299.1 
		558.7,298.8 558.7,298.5 558.7,298.3 558.5,298 558.2,297.7 557.9,297.5 557.4,297.5 549.7,297.5 549.4,297.5 549.1,297.2 
		547.5,296.1 547.5,295.9 547.3,295.6 547.3,293.7 547.5,293.5 547.5,293.2 549.1,292.1 549.4,291.9 549.7,291.9 558.2,291.9 
		558.5,291.9 559,292.1 560.1,292.9 560.3,293.2 560.3,293.5 559.8,294.3 559.5,294.3 559.3,294.3 558.5,293.7 558.2,293.7 
		557.7,293.5 550.2,293.5 549.9,293.7 549.7,293.7 	"/>
	<polygon fill="#FFFFFF" points="575.5,291.9 575.8,291.9 575.8,292.1 575.8,294.3 575.8,294.5 575.5,294.5 574.4,294.5 
		574.2,294.5 574.2,294.3 574.2,294 574.2,293.7 573.9,293.5 570.4,293.5 570.2,293.7 569.9,294 569.9,299.3 570.2,299.6 
		570.4,299.9 571.8,299.9 572,299.9 572,300.1 572,301.2 572,301.5 571.8,301.5 566.4,301.5 566.2,301.5 566.2,301.2 566.2,300.1 
		566.2,299.9 566.4,299.9 568,299.9 568.3,299.6 568.3,299.3 568.3,294 568.3,293.7 568,293.5 564.6,293.5 564.3,293.7 564,294 
		564,294.3 564,294.5 563.8,294.8 563,294.8 562.7,294.5 562.5,294.3 562.5,292.1 562.7,291.9 563,291.9 	"/>
	<path fill="#FFFFFF" d="M678.8,301.2h4.3v1.6h-7.7l4-4.8c0.3-0.5,0.8-0.8,1.1-1.3c0.3-0.3,0.5-0.5,0.5-0.8c0.3-0.5,0.5-0.8,0.5-1.3
		c0-0.5-0.3-1.1-0.5-1.3c-0.3-0.3-0.8-0.5-1.3-0.5c-1.1,0-1.9,0.8-1.9,2.1h-1.6c0.3-2.4,1.6-3.5,3.7-3.5c1.1,0,1.9,0.3,2.7,1.1
		c0.8,0.5,1.1,1.6,1.1,2.4c0,0.5-0.3,1.3-0.5,1.9c-0.3,0.3-0.5,0.8-0.8,1.1c-0.3,0.5-0.8,0.8-1.3,1.6L678.8,301.2z"/>
	<path fill="#FFFFFF" d="M687.6,296.9c0-1.9,0.5-3.2,1.3-4.3s1.6-1.3,2.7-1.3c1.1,0,1.9,0.5,2.7,1.3c0.8,1.1,1.3,2.7,1.3,4.5
		s-0.5,3.2-1.3,4.3s-1.6,1.3-2.7,1.3c-1.1,0-1.9-0.5-2.7-1.3C687.9,300.4,687.6,298.8,687.6,296.9z M689.2,296.9
		c0,1.3,0.3,2.4,0.5,3.2c0.5,0.8,1.1,1.3,1.6,1.3c0.8,0,1.3-0.5,1.6-1.3c0.5-0.8,0.5-1.9,0.5-3.2c0-1.3-0.3-2.4-0.5-3.2
		c-0.5-0.8-1.1-1.3-1.6-1.3c-0.5,0-1.3,0.5-1.6,1.3C689.5,294.8,689.2,295.9,689.2,296.9z"/>
	<polygon fill="#FFFFFF" points="701.7,292.9 699.9,292.9 700.9,291.3 703.6,291.3 703.6,302.8 701.7,302.8 	"/>
	<path fill="#FFFFFF" d="M715.8,299.6h1.3v1.6h-1.3v1.6h-1.6v-1.6h-5.6l7.2-10.7V299.6z M714.2,299.6v-3.7l-2.7,3.7H714.2z"/>
	<circle fill="#00A651" cx="1031.2" cy="710.8" r="5.1"/>
	<circle fill="#00A651" cx="651.1" cy="471.6" r="5.3"/>
	<polygon fill="#FFFFFF" points="593.1,390.7 596,376 600.8,386.7 605.6,376 608.3,390.7 606.1,390.7 604.8,382.4 600.8,391.5 
		596.8,382.4 595.2,390.7 	"/>
	<polygon fill="#FFFFFF" points="610.7,390.7 613.6,376 618.1,386.7 623.2,376 625.6,390.7 623.4,390.7 622.1,382.4 618.1,391.5 
		614.1,382.4 612.8,390.7 	"/>
	<polygon fill="#FFFFFF" points="631.4,383.5 627.7,377.1 630.1,377.1 632.8,381.6 635.4,377.1 637.8,377.1 633.8,383.5 
		638.1,390.7 635.7,390.7 632.5,385.6 629.6,390.7 627.2,390.7 	"/>
	<rect x="639.7" y="377.1" fill="#FFFFFF" width="2.1" height="13.6"/>
	<polygon fill="#FFFFFF" points="645.8,377.1 649.5,386.4 653.5,377.1 655.7,377.1 649.5,391.7 643.7,377.1 	"/>
	<path fill="#FFFFFF" d="M854.9,498.3c0,0-38.1,49.5-10.4,125.2"/>
	<path fill="#6D6E71" d="M853.8,497.5c0,0.3-20.8,26.9-20.8,71.4c0,16.2,2.7,34.6,10.1,55.1l2.4-0.8c-7.5-20-10.1-38.1-10.1-54.1
		c0-21.8,5.1-39.4,10.1-51.4c2.7-6.1,5.1-10.7,6.9-13.8c1.1-1.6,1.9-2.7,2.4-3.5c0.3-0.3,0.5-0.8,0.5-0.8l0.3-0.3L853.8,497.5
		L853.8,497.5z"/>
	<path fill="#00A651" d="M843.4,624c-14.4-39.4-10.9-71.4-5.3-91.6c6.1-21.8,15.7-34.4,15.7-34.6l1.3,1.1
		c-0.3,0.5-37.5,50.1-10.4,124.4L843.4,624z"/>
	<path fill="#FFFFFF" d="M1120.4,498.3c0,0,37.5,50.1,8.8,125.4"/>
	<path fill="#00A651" d="M1130,624l-1.6-0.5c28.2-74-8.3-124.1-8.5-124.4l1.3-1.1C1121.7,498.3,1158.7,549.1,1130,624z"/>
	<path fill="#FFFFFF" d="M761.9,232.2c0,0,38.9,49,12,125.2"/>
	<path fill="#00A651" d="M774.7,357.4l-1.6-0.5c26.4-74.8-11.5-123.8-11.7-124.1l1.3-1.1C763,232,801.3,281.8,774.7,357.4z"/>
	<path fill="#FFFFFF" d="M486.6,232.2c0,0-38.9,49-12,125.2"/>
	<path fill="#00A651" d="M473.8,357.4c-13.8-39.4-9.9-71.6-4-91.6c6.4-21.6,16-34.1,16.2-34.4l1.3,1.1c-0.5,0.8-38.3,49.8-12,124.4
		L473.8,357.4z"/>
	<path fill="#FFFFFF" d="M893.2,117.7c-3.2-1.3-6.7-2.7-10.1-4.3c1.6,1.1,2.9,2.4,4.5,3.7c1.6,1.3,3.2,2.7,4.8,4l3.2,2.7l2.7-4.3
		L893.2,117.7z"/>
	<path fill="#FFFFFF" d="M978.2,64.2c-1.1-3.2-2.1-6.9-2.9-10.7c0,1.9,0,3.7,0,5.9c0,1.9-0.3,4-0.3,6.4l-0.3,4l5.1-0.5L978.2,64.2z"
		/>
	<path fill="#FFFFFF" d="M1160.6,234.9l-28.2-25l0.3-1.6c3.7-17.3,4-35.2,1.3-52.7l-0.3-1.6l29.6-24.2l-13-33.6l-38.1,2.4l-0.8-1.3
		c-9.3-13.8-21-26.1-34.6-36.2l-1.3-0.8l3.7-38.1l-33-14.1l-25,28.5l-1.6-0.3c-17-3.5-34.9-3.7-51.9-1.1l-1.6,0.3l-23.7-29l-33.6,13
		l2.4,37.5l-1.3,0.8c-14.6,9.9-27.2,22.1-37.3,36.2l-0.8,1.3l-38.1-3.7l-14.6,33l29,25.8l-0.3,1.6c-3.2,16.5-3.2,33.3-0.5,49.8
		l0.3,1.6l-29,24l13,33.6l37.5-2.4l0.8,1.3c9.9,14.6,22.4,27.4,36.8,37.8l1.3,0.8l-3.7,37l33,14.4l25.6-28.8l1.6,0.3
		c15.7,2.9,31.7,3.2,47.4,0.8l1.6-0.3l24.2,29.3l33.6-13l-2.1-37l1.3-0.8c14.4-9.3,27.2-21.3,37.3-35.2l0.8-1.3l38.1,3.7
		L1160.6,234.9z M1096.9,99.3l2.4,3.7l-4.5,5.6l-0.5,0.5l-0.5,0.5c-1.6,2.1-3.2,3.7-4.3,4.8c1.6-0.8,2.7-1.1,3.2-1.3l2.7-1.1
		l1.1-0.5l6.9-2.4l2.4,3.7l-18.1,5.3l-11.5,7.5l-2.4-3.5l11.5-7.5L1096.9,99.3z M1084.2,84.7l9.3,10.4l-2.7,2.4l-3.2-3.5l-20.8,18.6
		l-2.9-3.2l20.8-18.6l-3.2-3.7L1084.2,84.7z M1056.5,97.7c0.8,0.8,1.9,1.1,2.9,0.8c1.1-0.3,1.9-0.8,2.7-1.9c0.8-0.8,1.3-1.9,1.3-2.9
		c0-0.5,0-1.1,0-1.9s0-1.6,0-2.7c-0.3-1.6-0.3-2.9-0.3-4c0-1.1,0-1.9,0.3-2.7c0.3-1.3,1.1-2.7,2.1-4.3c1.6-1.9,3.2-2.9,5.3-3.2
		c1.9-0.3,3.7,0.3,5.3,1.6c1.1,1.1,2.1,2.1,2.7,3.7l-2.7,3.2c-0.5-1.6-1.1-2.7-1.9-3.2c-0.8-0.8-1.9-1.1-2.9-0.8
		c-1.1,0-1.9,0.8-2.7,1.6c-0.8,0.8-1.1,1.9-1.3,2.7c0,0.5,0,1.1,0,2.1c0,0.8,0,2.1,0.3,3.5c0.3,2.4,0.3,4.3-0.3,5.9
		c-0.3,1.3-1.1,2.7-2.1,4c-1.6,1.9-3.5,2.9-5.3,3.2c-2.1,0.3-4-0.3-5.6-1.6c-1.3-1.1-2.4-2.7-2.7-4.3l2.7-3.2
		C1054.9,95.6,1055.7,96.9,1056.5,97.7z M1046.6,58.9c1.3,0.8,2.7,1.3,3.5,2.1c0.8,0.8,1.3,1.6,1.6,2.9c0.5,1.6,0.5,3.7,0,5.6
		c-0.5,2.1-1.6,4.8-3.2,8.3c-1.6,3.2-2.9,5.6-4.5,7.2c-1.3,1.6-2.9,2.7-4.5,3.2c-1.9,0.5-4.8,0-8.3-1.9l-3.2-1.6l13.8-28.5
		L1046.6,58.9z M1023.4,50.6l10.9,3.2l-1.1,3.5l-6.7-2.1l-2.9,9.6l6.1,1.9l-1.1,3.5l-6.1-1.9l-3.2,10.4l6.7,2.1l-1.1,3.5l-10.9-3.2
		L1023.4,50.6z M1004.5,46.9l13.6,2.1l-0.5,3.7l-4.8-0.8l-4.3,27.7l-4.3-0.5l4.3-27.7l-4.8-0.8L1004.5,46.9z M989.1,46.3l11.5,0.3
		v3.7l-7.2-0.3l-0.3,10.1l6.4,0.3v3.7l-6.4-0.3l-0.3,14.4h-4.3L989.1,46.3z M952.9,51.9c2.1-0.5,4-0.5,5.3,0c1.9,1.1,3.2,2.9,4,5.6
		c0.5,2.1,0.8,4,0.5,5.6c-0.3,1.6-1.1,2.7-2.4,3.5l9.6,12.8l2.9-32l3.2-0.5l10.7,30.6l-4.3,0.5l-1.9-5.9l-6.1,0.8l-0.5,6.4l-3.7,0.5
		l0,0l-4.3,1.3l-9.9-13.3l4.3,14.9l-4,1.3l-9.1-30.4L952.9,51.9z M937.4,57.3c1.1-0.5,2.4-0.8,3.5-0.5l1.6,3.5c-1.3,0-2.1,0-2.9,0.5
		c-0.8,0.5-1.6,1.1-2.1,1.9c-0.5,0.8-0.5,1.6-0.5,2.9c0,1.1,0.3,2.4,0.8,4c0.5,1.6,1.1,3.2,2.1,5.3c3.2,7.2,6.9,9.9,10.4,8
		c0.5-0.3,1.3-0.8,2.1-1.6l1.6,3.5c-0.8,1.1-1.6,1.6-2.7,2.1c-5.9,2.7-10.9-0.5-15.4-10.1c-2.4-5.1-3.5-9.3-3.2-12.5
		C932.9,61,934.5,58.6,937.4,57.3z M935,80.4l1.6,2.7l-6.4,4l-1.6-2.7L935,80.4z M906.5,76.7c1.3-1.1,2.4-1.6,3.5-2.1
		c1.1-0.3,2.1-0.5,3.2-0.3c1.9,0.3,3.5,1.1,5.1,2.4c1.6,1.3,3.7,3.5,6.1,6.4c2.1,2.7,3.7,5.1,4.8,7.2c0.8,1.9,1.1,3.7,0.8,5.3
		c-0.3,2.1-2.1,4.3-5.1,6.9l-2.7,2.1l-19.7-24.8L906.5,76.7z M888.7,94.5l12.3,5.1c3.5,1.3,7.2,3.2,10.7,5.1c-2.1-1.3-4-2.7-5.6-3.7
		c-1.6-1.1-3.2-2.4-4.5-3.5l-9.1-7.7l2.7-3.2l24,20.8l-2.7,2.9l-13.8-5.6c-1.3-0.5-2.7-1.1-4-1.9c-1.3-0.5-2.7-1.3-4-2.1
		c-0.3,0-0.3-0.3-0.5-0.3c-0.3,0-0.5-0.3-0.8-0.5c0.3,0.3,0.5,0.3,0.8,0.5l0.5,0.3l2.7,1.9l3.2,2.4c0.3,0,0.3,0.3,0.5,0.5
		s0.5,0.5,0.8,0.8l10.7,8.8l-2.7,3.2l-24-20.8L888.7,94.5z M878.6,108.7l30.6,10.7l-2.1,3.7l-5.9-2.1l-3.2,5.3l4.5,4.3l-2.1,3.5
		L877,111.6L878.6,108.7z M886.3,235.7c-24.8-36-11.5-67.6-11.2-67.9l2.4,1.1c0,0.3-12.8,30.6,10.9,65.5L886.3,235.7z M894.5,148.9
		L865,137.4l1.6-4l11.5,4.5l2.4-5.9l-11.5-4.5l1.6-4l29.6,11.5l-1.6,4l-14.6-5.9l-2.4,5.9l14.6,5.9L894.5,148.9z M929.4,290.3
		l3.2-6.1c0.3-0.3,0.3-0.5,0.5-0.8l0.3-0.5l1.3-2.4l1.3-2.1l0,0V278l-0.3,0.3c-0.3,0.3-0.5,0.8-0.8,1.1c-0.3,0.3-0.5,0.5-0.5,0.8
		l-1.3,1.3l-0.5,0.5l-6.1,6.7l-1.6-1.1l2.7-7.5c0.3-1.1,0.8-1.9,1.1-2.9c0.5-1.1,0.8-1.9,1.3-2.9l-8.3,11.5l-2.1-1.3l12.3-16.2
		l1.9,1.3l-2.9,8c-0.3,1.1-0.8,1.9-1.1,2.9c-0.5,1.1-0.8,1.9-1.3,2.9l0.3-0.3v-0.3l1.6-1.9l1.6-1.6l1.1-1.1l5.6-6.1l2.1,1.3
		l-9.3,18.1L929.4,290.3z M940.9,296.1l1.1-4l-3.7-1.9l-2.4,3.2l-2.4-1.1l12.8-16.5l1.9,0.8l-4.8,20.2L940.9,296.1z M956.3,297.5
		c-0.8,1.1-1.6,1.9-2.7,2.4c-1.3,0.5-2.9,0.3-5.6-0.5l-2.1-0.8l6.9-19.2l3.2,1.1c1.1,0.3,1.9,0.8,2.4,1.3c0.5,0.5,1.1,1.1,1.3,1.6
		c0.5,1.1,0.5,2.4,0.5,3.7c-0.3,1.3-0.5,3.2-1.3,5.6C957.9,294.5,957.1,296.1,956.3,297.5z M970.4,287.1l-4.5-1.1l-1.6,6.1l4,1.1
		l-0.5,2.1l-4-1.1l-1.6,6.7l4.5,1.1l-0.5,2.1l-7.2-1.9l5.1-19.7l7.2,1.9L970.4,287.1z M986.7,307.3l-2.1-0.3l-0.5-8.8
		c0,0,0-0.3,0-0.5c0-0.3,0-0.5,0-1.1v-2.1c0-0.3,0-0.3,0-0.8c0-0.3,0-0.8,0-1.3v-0.8v0.5v0.3c0,0.5-0.3,1.1-0.3,1.3
		c0,0.3,0,0.5,0,0.5l-0.5,1.9c0,0.5-0.3,0.8-0.3,1.1c0,0.3,0,0.5,0,0.5l-2.1,8.5l-2.1-0.3l-1.9-20.5l2.7,0.3l0.5,9.6v1.3
		c0,0.8,0,1.3,0,2.1v1.9v0.3v0.5v-0.5c0.3-1.1,0.5-2.1,0.5-3.2c0.3-1.1,0.5-1.9,0.5-2.7l2.1-8.5l2.1,0.3l0.5,8.5
		c0,1.3,0.3,2.4,0.3,3.5s0,2.1,0,3.2c0.3-1.1,0.3-2.1,0.5-2.9c0.3-1.1,0.3-1.9,0.5-2.9l0.3-1.3l1.9-7.7l2.7,0.3L986.7,307.3z
		 M993.1,307.6l-0.3-20.2h2.7l0.3,20.2H993.1z M1004,307.1l-2.7,0.3l-1.3-17.8l-3.2,0.3l-0.3-2.4l8.8-0.5l0.3,2.4l-3.2,0.3
		L1004,307.1z M1016.5,305.5l-1.6-9.9l-4,0.8l1.6,9.9l-2.7,0.5l-3.5-20l2.7-0.5l1.3,7.7l4-0.8l-1.3-7.7l2.7-0.5l3.5,20L1016.5,305.5
		z M1029.3,302.3l-6.4-19.4l2.7-0.8l5.6,17l4.3-1.3l0.8,2.1L1029.3,302.3z M1043.4,297.2c-1.9,0.8-3.5,0.5-4.8-0.5s-2.9-3.5-4.5-7.2
		c-1.3-3.2-2.1-5.9-1.9-7.5c0-1.6,1.1-2.9,2.9-3.7c1.6-0.8,2.9-0.5,4.3,0c0.8,0.5,1.6,1.3,2.4,2.7c0.8,1.1,1.6,2.9,2.7,5.3
		c1.3,3.2,2.1,5.9,1.9,7.5S1045.3,296.7,1043.4,297.2z M1053.8,292.1l-13.3-16l2.4-1.3l4.8,5.9l0.8,1.1l1.9,2.4
		c0.3,0.5,0.5,0.8,0.8,1.1c0.3,0.3,0.5,0.5,0.8,0.8l0.5,0.8l-0.3-0.5l-0.3-0.3l-0.8-2.1l-1.1-2.9c0-0.3-0.3-0.5-0.3-0.8l-0.3-0.5
		l-2.4-7.2l2.1-1.3l6.4,19.7L1053.8,292.1z M1061.3,287.6l-11.5-16.8l6.1-4l1.3,1.9l-3.7,2.7l3.7,5.3l3.5-2.4l1.3,1.9l-3.5,2.4
		l4,5.9l3.7-2.7l1.3,1.9L1061.3,287.6z M1024.2,264.4c-10.9,4.3-22.1,6.4-33.8,6.4c-38.3,0-71.9-22.9-86-58.6
		c-9.1-22.9-8.5-48.2,1.3-70.6c9.9-22.6,28-39.9,50.9-49c10.9-4.3,22.1-6.4,33.8-6.4c38.3,0,71.9,22.9,86,58.6
		C1095.1,192.3,1071.6,245.8,1024.2,264.4z M1079.9,131.8l28.8-13.3l1.9,3.7l-25.3,12l2.9,6.4l-3.2,1.6L1079.9,131.8z M1095.1,235.7
		l-2.1-1.6c23.7-34.9,11.2-65.2,10.9-65.5l2.4-1.1C1106.3,168,1119.6,199.7,1095.1,235.7z M1115.3,145.9l-2.1-6.7l-9.6,2.9l1.9,5.9
		l-3.5,1.1l-1.9-5.9l-10.4,3.2l2.1,6.7l-3.5,1.1l-3.5-10.9l30.1-9.6l3.5,10.9L1115.3,145.9z"/>
	<path fill="#FFFFFF" d="M1038.6,281.2c-0.8-1.1-1.6-1.3-2.4-0.8c-0.8,0.3-1.3,1.1-1.1,2.1s0.8,3.2,2.1,6.1c1.1,2.7,2.1,4.5,2.9,5.6
		c0.8,0.8,1.6,1.1,2.4,0.8c0.8-0.3,1.3-1.1,1.1-2.1c0-1.1-0.8-2.9-1.9-5.3C1040.5,284.4,1039.4,282.3,1038.6,281.2z"/>
	<path fill="#FFFFFF" d="M926,94c-0.3-1.9-1.9-4.5-4.8-8c-2.9-3.7-5.6-6.1-7.2-6.9c-1.9-0.8-3.7-0.5-5.3,0.8l-0.5,0.3l15.2,18.9
		C925.4,97.5,926.2,95.9,926,94z"/>
	<path fill="#FFFFFF" d="M941.1,286.8l-1.6,2.1l2.9,1.3l0.8-3.2c0.5-2.1,1.3-4.5,2.1-6.9c-0.5,1.1-1.3,2.1-2.1,3.2
		C942.5,284.4,941.9,285.5,941.1,286.8z"/>
	<path fill="#FFFFFF" d="M1039.1,83.6c1.6-1.1,3.2-3.5,5.3-7.7c2.1-4.5,3.2-7.7,3.2-9.6c0-2.1-1.1-3.5-3.2-4.5l-0.5-0.3l-10.7,21.8
		C1036,84.7,1037.8,84.7,1039.1,83.6z"/>
	<path fill="#FFFFFF" d="M955,282.6h-0.3l-5.3,14.6c1.6,0.5,2.7,0.5,3.7-0.3c0.8-0.8,1.9-2.4,2.9-5.3c1.1-2.9,1.6-5.1,1.3-6.4
		C957.1,283.9,956.3,283.1,955,282.6z"/>
	<path fill="#FFFFFF" d="M958.5,63.9c0.5-0.8,0.5-2.1,0-4c-0.3-1.1-0.5-1.6-0.8-2.4c-0.3-0.5-0.8-1.1-1.1-1.3
		c-0.5-0.3-0.8-0.5-1.3-0.5c-0.5,0-1.1,0-1.9,0.3l-0.8,0.3l2.9,10.1C957.1,65.5,958.2,64.7,958.5,63.9z"/>
	<path fill="#2C3E50" d="M1139.5,156.3l30.1-24.8l-16-40.7l-38.9,2.4c-9.3-13.6-20.8-25.3-33.8-35.2l3.7-38.9l-39.9-17.3l-25.6,29
		c-16.8-3.2-34.1-3.5-50.9-1.1L943.8,0l-40.7,16l2.4,38.3C891.3,63.9,879.1,75.9,869,90l-38.9-3.7l-17.3,39.9l29.6,26.4
		c-2.9,16.2-3.2,32.5-0.5,48.7l-29.6,24.5l16,40.7l38.3-2.4c9.9,14.4,21.8,26.9,36,37l-3.7,38.3l39.9,17.3l26.1-29.3
		c15.2,2.7,30.9,2.9,46.3,0.8l24.8,30.1l40.7-16l-2.4-37.8c14.1-9.3,26.4-20.8,36.5-34.4l39.1,3.7l17.3-39.9l-28.8-25.3
		C1141.7,190.9,1142.2,173.6,1139.5,156.3z M1107.1,265.2c-10.4,13.8-22.9,25.8-37.3,35.2l-1.3,0.8l2.1,37l-33.3,13.3l-24.2-29.3
		l-1.6,0.3c-15.7,2.4-32,2.1-47.4-0.8l-1.6-0.3l-25.6,28.8l-32.8-14.6l3.7-37.5l-1.3-0.8c-14.6-10.4-26.9-22.9-36.8-37.8l-0.8-1.3
		l-37.5,2.4l-13-33.6l29-24l-0.3-1.6c-2.7-16.5-2.4-33.3,0.5-49.8l0.3-1.6l-29-25.3l14.4-33l38.1,3.7l0.8-1.3
		c10.1-14.4,22.9-26.6,37.3-36.2l1.3-0.8l-2.4-37.5l33.6-13l23.7,29l1.6-0.3c17-2.7,34.9-2.4,51.9,1.1l1.6,0.3L1046.1,8l33,14.4
		l-3.7,38.1l1.3,0.8c13.6,9.9,25.3,22.1,34.6,36.2l0.8,1.3l38.1-2.4l13,33.6l-29.6,24.2l0.3,1.6c2.9,17.6,2.4,35.2-1.3,52.7
		l-0.3,1.6l28.2,25l-14.4,33l-38.1-3.7L1107.1,265.2z"/>
	<path fill="#2C3E50" d="M990.4,86.3c-11.5,0-22.9,2.1-33.8,6.4c-22.9,9.1-41,26.4-50.9,49c-9.9,22.6-10.4,47.7-1.3,70.6
		c14.1,35.7,47.7,58.6,86,58.6c11.5,0,22.9-2.1,33.8-6.4c47.4-18.6,70.8-72.4,52.2-119.8C1062.6,109.2,1028.8,86.3,990.4,86.3z
		 M1063.4,209.6l-2.4,1.3l-1.6-2.9c-0.3,0.5-0.3,1.1-0.5,1.9l2.7,4.8l-2.4,1.3l-1.3-2.7c-0.3,0.5-0.5,1.3-0.8,1.9l2.7,4.8l-2.4,1.3
		l-1.6-2.9c-0.3,0.8-0.8,1.6-1.1,2.7l2.1,5.1l-2.4,1.1l-1.9-4.5l-5.1,2.1l-1.1-2.4l5.9-2.4c0.3-0.5,0.5-1.1,0.8-1.6l-2.7,1.3
		l-1.3-2.4l5.6-2.9c0.3-0.5,0.3-0.8,0.5-1.3l-2.9,1.6l-1.3-2.4l5.6-2.9c0-0.3,0.3-0.8,0.3-1.1l-2.7,1.3l-1.3-2.4l5.1-2.7
		c8.3-28.8-0.8-50.1-3.7-55.9l-3.5,1.9l0.3-10.7l9.1,5.6l-3.5,1.9c3.2,6.1,12.3,28.2,4.3,57.5L1063.4,209.6z M1037.5,158.5h-0.8
		c-14.4,14.1-28.2,20-40.5,21.3c9.6-2.4,16.8-10.9,16.8-21.3c0-0.3,0-0.5,0-0.8c-0.5-11.7-10.1-21-21.8-21c-11.7,0-21.3,9.3-21.8,21
		c0,0.3,0,0.5,0,0.8c0,10.4,7.2,19.2,17,21.3c-22.1-2.1-37.8-17.8-41.3-21.6h-0.5l0.3-0.3l-0.3-0.3h0.5c5.6-6.1,45-45.5,91.6,0h0.8
		l-0.3,0.3L1037.5,158.5z M972,214.1c-0.5,0.3-1.3,0.5-1.9,0.5h-13.8c-0.8,0-1.3-0.3-2.1-0.5c-0.8-0.3-1.6-0.5-2.1-1.3l-1.9-1.1H947
		v-1.6h3.2l1.9-1.1c0.5-0.8,1.1-1.1,2.1-1.3c0.5-0.3,1.3-0.5,2.1-0.5h13.8c0.8,0,1.3,0.3,1.9,0.5h21.3v-1.1h40.5v-0.5l0,0h-23.2
		l-0.3-0.3l0.3-0.3h22.9l0,0l0,0h0.5v1.3v0.8v7.5h-40.7v-1.1H972z M998.1,148.6c0-1.6,1.3-2.9,2.9-2.9c1.6,0,2.9,1.3,2.9,2.9
		s-1.3,2.9-2.9,2.9C999.5,151.5,998.1,150.2,998.1,148.6z M924.4,220.2l-2.4-1.3l2.7-4.8c-0.3-0.5-0.5-1.3-0.8-1.9l-1.3,2.7
		l-2.4-1.3l2.7-4.8c-0.3-0.5-0.3-1.1-0.5-1.9l-1.6,2.9l-2.4-1.3l2.9-5.3c-4.3-15.2-3.7-28.2-2.1-37.3c1.6-9.9,4.8-17,6.4-20
		l-3.5-1.9l9.1-5.6l0.3,10.7l-3.5-1.9c-2.9,5.9-12,27.2-3.7,55.9l5.1,2.7l-1.3,2.4l-2.7-1.3c0,0.3,0.3,0.8,0.3,1.1l5.6,2.9l-1.3,2.4
		l-2.9-1.6c0.3,0.5,0.3,0.8,0.5,1.3l5.6,2.9l-1.3,2.4l-2.7-1.3c0.3,0.5,0.5,1.1,0.8,1.6l5.9,2.4l-1.1,2.4l-5.1-2.1l-1.9,4.5
		l-2.4-1.1l2.1-5.1c-0.5-0.8-0.8-1.6-1.1-2.7L924.4,220.2z"/>
	<polygon points="883.9,133.2 898.5,139 899.9,135 870.6,123.6 869,127.6 880.4,131.8 878.3,137.7 866.6,133.2 865.2,137.2 
		894.5,148.9 896.1,144.9 881.5,139 	"/>
	<path d="M902.5,130.2L898,126l3.2-5.3l5.9,2.1l2.1-3.7l-30.6-10.7l-1.6,2.9l23.4,22.4L902.5,130.2z M892.4,121.2
		c-1.6-1.6-3.2-2.9-4.8-4c-1.6-1.3-2.9-2.4-4.5-3.7c3.5,1.6,6.9,3.2,10.1,4.3l4.8,1.9l-2.7,4.3L892.4,121.2z"/>
	<path d="M912.9,115l-10.7-8.8c-0.3-0.3-0.5-0.5-0.8-0.8c-0.3-0.3-0.5-0.3-0.5-0.5l-3.2-2.4l-2.7-1.9l-0.5-0.3
		c-0.3-0.3-0.5-0.3-0.8-0.5c0.3,0.3,0.5,0.3,0.8,0.5c0.3,0,0.5,0.3,0.5,0.3c1.3,0.8,2.7,1.3,4,2.1c1.3,0.5,2.7,1.1,4,1.9l13.8,5.6
		l2.7-2.9l-24-20.8l-2.7,3.2l9.1,7.7c1.3,1.1,2.7,2.4,4.5,3.5c1.6,1.1,3.5,2.4,5.6,3.7c-3.7-1.9-7.2-3.7-10.7-5.1l-12.3-5.1
		l-2.7,2.9l24,20.8L912.9,115z"/>
	<path d="M924.9,102.5c3.2-2.4,4.8-4.8,5.1-6.9c0.3-1.6,0-3.5-0.8-5.3c-1.1-2.1-2.4-4.5-4.8-7.2c-2.4-2.9-4.3-5.1-6.1-6.4
		c-1.6-1.3-3.5-2.1-5.1-2.4c-1.1-0.3-2.1,0-3.2,0.3c-1.1,0.5-2.1,1.1-3.5,2.1l-4,3.2l19.7,24.8L924.9,102.5z M908.4,79.9
		c1.9-1.3,3.7-1.6,5.3-0.8c1.9,0.8,4.3,3.2,7.2,6.9c2.9,3.5,4.3,6.1,4.8,8c0.3,1.9-0.5,3.5-2.7,5.1l-15.2-18.9L908.4,79.9z"/>
	<rect x="931.1" y="79.9" transform="matrix(-0.5211 -0.8535 0.8535 -0.5211 1347.3932 923.1875)" width="3.2" height="7.5"/>
	<path d="M951.3,86.6c1.1-0.5,2.1-1.3,2.7-2.1l-1.6-3.5c-0.8,0.8-1.3,1.3-2.1,1.6c-3.7,1.6-7.2-1.1-10.4-8c-0.8-1.9-1.6-3.7-2.1-5.3
		c-0.5-1.6-0.8-2.9-0.8-4s0.3-2.1,0.5-2.9c0.5-0.8,1.1-1.3,2.1-1.9c0.5-0.3,1.6-0.5,2.9-0.5l-1.6-3.5c-1.3,0-2.4,0.3-3.5,0.5
		c-2.9,1.3-4.5,3.7-4.8,6.9c-0.3,3.2,0.8,7.2,3.2,12.5C940.3,86,945.4,89.5,951.3,86.6z"/>
	<path d="M960.6,82.8l-4.3-14.9l9.9,13.3l4.3-1.3l0,0l3.7-0.5l0.5-6.4l6.1-0.8l1.9,5.9l4.3-0.5l-10.7-30.6l-3.2,0.5l-2.9,32
		l-9.6-12.8c1.3-0.8,2.1-1.9,2.4-3.5c0.3-1.6,0.3-3.5-0.5-5.6c-0.8-2.9-2.1-4.8-4-5.6c-1.3-0.8-3.2-0.8-5.3,0l-5.3,1.6l9.1,30.4
		L960.6,82.8z M975,65.8c0.3-2.1,0.3-4.3,0.3-6.4c0-1.9,0-4,0-5.9c0.8,3.7,1.9,7.5,2.9,10.7l1.6,4.8l-5.1,0.5L975,65.8z M952.6,55.7
		l0.8-0.3c0.5-0.3,1.3-0.3,1.9-0.3c0.5,0,1.1,0.3,1.3,0.5c0.5,0.3,0.8,0.8,1.1,1.3c0.3,0.5,0.5,1.3,0.8,2.4c0.5,1.9,0.5,3.2,0,4
		c-0.5,0.8-1.3,1.6-2.9,2.1L952.6,55.7z"/>
	<polygon points="992.8,63.6 999.2,63.9 999.5,60.2 993.1,60.2 993.3,50.1 1000.3,50.3 1000.5,46.6 989.1,46.3 988.3,78 992.5,78 	
		"/>
	<polygon points="1004.3,79.1 1008.5,79.6 1012.8,52.2 1017.6,52.7 1018.1,49.3 1004.5,46.9 1003.7,50.6 1008.8,51.4 	"/>
	<polygon points="1025.3,84.2 1026.4,80.7 1019.7,78.6 1022.6,68.2 1028.8,70 1029.8,66.6 1023.7,64.7 1026.6,55.1 1033.3,57.3 
		1034.4,53.8 1023.4,50.6 1014.4,81 	"/>
	<path d="M1031.2,86.6c3.5,1.9,6.4,2.4,8.3,1.9c1.6-0.5,3.2-1.6,4.5-3.2c1.3-1.9,2.9-4.3,4.5-7.2c1.6-3.5,2.7-6.1,3.2-8.3
		s0.5-4,0-5.6c-0.3-1.1-0.8-2.1-1.6-2.9c-0.8-0.8-1.9-1.6-3.5-2.1l-4.8-2.4L1028,85.2L1031.2,86.6z M1044.2,61.5l0.5,0.3
		c2.1,1.1,3.2,2.4,3.2,4.5s-1.1,5.3-3.2,9.6c-1.9,4-3.7,6.7-5.3,7.7c-1.6,1.1-3.5,1.1-5.6-0.3L1044.2,61.5z"/>
	<path d="M1054.3,101.2c1.6,1.3,3.5,1.9,5.6,1.6c2.1-0.3,4-1.3,5.3-3.2c1.1-1.3,1.9-2.7,2.1-4c0.3-1.3,0.5-3.2,0.3-5.9
		c0-1.3-0.3-2.4-0.3-3.5c0-0.8,0-1.6,0-2.1c0-1.1,0.5-1.9,1.3-2.7c0.8-1.1,1.6-1.6,2.7-1.6c1.1-0.3,2.1,0,2.9,0.8
		c0.8,0.5,1.3,1.9,1.9,3.2l2.7-3.2c-0.5-1.3-1.6-2.7-2.7-3.7c-1.6-1.3-3.5-1.9-5.3-1.6c-1.9,0.3-3.7,1.3-5.3,3.2
		c-1.1,1.3-1.9,2.7-2.1,4.3c0,0.8-0.3,1.6-0.3,2.7c0,1.1,0,2.4,0.3,4c0,1.1,0,1.9,0,2.7c0,0.8,0,1.3,0,1.9c-0.3,1.1-0.5,1.9-1.3,2.9
		c-0.8,1.1-1.9,1.6-2.7,1.9c-1.1,0.3-1.9,0-2.9-0.8c-1.1-0.8-1.6-2.1-2.1-4l-2.7,3.2C1052.2,98.8,1053,100.1,1054.3,101.2z"/>
	<polygon points="1063.9,109.7 1066.8,112.9 1087.6,94 1090.8,97.5 1093.5,95.1 1084.2,84.7 1081.5,87.4 1084.7,90.8 	"/>
	<path d="M1074,122.2l2.4,3.5l11.5-7.5l18.1-5.3l-2.4-3.7l-6.9,2.4l-1.1,0.5l-2.7,1.1c-0.5,0.3-1.9,0.8-3.2,1.3
		c1.3-1.1,2.7-2.7,4.3-4.8l0.5-0.5l0.5-0.5l4.5-5.6l-2.4-3.7l-11.5,15.4L1074,122.2z"/>
	<polygon points="1085,134 1110.3,122.2 1108.4,118.2 1079.9,131.8 1084.7,141.9 1087.9,140.3 	"/>
	<polygon points="1085.2,143.5 1088.4,154.2 1091.9,153.1 1089.7,146.5 1100.1,143.3 1102,149.1 1105.5,148.1 1103.6,142.2 
		1113.2,139 1115.3,145.9 1118.8,144.9 1115.3,134 	"/>
	<path fill="#FFFFFF" d="M1037,157.7c-46.3-45.5-86-6.1-91.6,0h-0.5l0.3,0.3l-0.3,0.3h0.5c3.2,3.7,18.9,19.4,41.3,21.6
		c-9.9-2.1-17-10.9-17-21.3c0-0.3,0-0.5,0-0.8c0.5-11.7,10.1-21,21.8-21c11.7,0,21.3,9.3,21.8,21c0,0.3,0,0.5,0,0.8
		c0,10.4-7.2,18.9-16.8,21.3c12.3-1.3,26.1-7.2,40.5-21.3h0.8l-0.3-0.3l0.3-0.3h-0.8V157.7z"/>
	<circle fill="#FFFFFF" cx="1001.1" cy="148.6" r="2.9"/>
	<path fill="#2C3E50" d="M938.7,272.2l-5.6,6.1l-1.1,1.1l-1.6,1.6l-1.6,1.9v0.3l-0.3,0.3c0.5-1.1,0.8-2.1,1.3-2.9
		c0.5-1.1,0.8-1.9,1.1-2.9l2.9-8l-1.9-1.3l-12.3,16.2l2.1,1.3l8.3-11.5c-0.5,1.1-1.1,2.1-1.3,2.9c-0.5,1.1-0.8,1.9-1.1,2.9l-2.7,7.5
		l1.6,1.1l6.1-6.7l0.5-0.5l1.3-1.3c0.3-0.3,0.3-0.5,0.5-0.8c0.3-0.3,0.5-0.5,0.8-1.1l0.3-0.3v0.3l0,0l-1.3,2.1l-1.3,2.4l-0.3,0.5
		c0,0.3-0.3,0.5-0.5,0.8l-3.2,6.1l2.1,1.3l9.3-18.1L938.7,272.2z"/>
	<path fill="#2C3E50" d="M946.2,276.2l-12.8,16.5l2.4,1.1l2.4-3.2l3.7,1.9l-1.1,4l2.4,1.1l4.8-20.2L946.2,276.2z M943.3,287.1
		l-0.8,3.2l-2.9-1.3l1.6-2.1c0.8-1.1,1.6-2.1,2.4-3.2c0.8-1.1,1.3-2.1,2.1-3.2C944.6,282.6,943.8,285,943.3,287.1z"/>
	<path fill="#2C3E50" d="M959.5,283.4c-0.3-0.8-0.8-1.3-1.3-1.6c-0.5-0.5-1.3-0.8-2.4-1.3l-3.2-1.1l-6.9,19.2l2.1,0.8
		c2.4,0.8,4.3,1.1,5.6,0.5c1.1-0.3,1.9-1.1,2.7-2.4c0.8-1.3,1.6-2.9,2.4-5.1c0.8-2.4,1.3-4,1.3-5.6
		C960.3,285.8,960.1,284.4,959.5,283.4z M955.8,291.6c-1.1,2.7-1.9,4.5-2.9,5.3c-0.8,0.8-2.1,0.8-3.7,0.3l5.3-14.6h0.3
		c1.3,0.5,2.1,1.3,2.4,2.7C957.4,286.6,956.9,288.7,955.8,291.6z"/>
	<polygon fill="#2C3E50" points="959,302.8 966.2,304.7 966.7,302.5 962.2,301.2 964,294.5 967.8,295.6 968.3,293.2 964.6,292.4 
		966.2,286 970.4,287.1 971,285 964,283.1 	"/>
	<path fill="#2C3E50" d="M987.5,295.1l-0.3,1.3c-0.3,0.8-0.3,1.9-0.5,2.9c-0.3,1.1-0.3,1.9-0.5,2.9c0-1.1,0-2.1,0-3.2s0-2.4-0.3-3.5
		l-0.5-8.5l-2.1-0.3l-2.1,8.5c-0.3,0.8-0.5,1.6-0.5,2.7c-0.3,1.1-0.5,2.1-0.5,3.2v0.5v-0.5v-0.3v-1.9c0-0.5,0-1.3,0-2.1v-1.3
		l-0.5-9.6l-2.7-0.3l1.9,20.5l2.1,0.3l2.1-8.5c0,0,0-0.3,0-0.5c0-0.3,0.3-0.5,0.3-1.1l0.5-1.9c0,0,0-0.3,0-0.5s0-0.8,0.3-1.3v-0.3
		v-0.5v0.8c0,0.5,0,0.8,0,1.3c0,0.3,0,0.5,0,0.8v2.1c0,0.5,0,0.8,0,1.1s0,0.5,0,0.5l0.8,8.8l2.1,0.3l5.3-20l-2.7-0.3L987.5,295.1z"
		/>
	
		<rect x="984.2" y="295.9" transform="matrix(1.622935e-02 0.9999 -0.9999 1.622935e-02 1275.3828 -701.7001)" fill="#2C3E50" width="20.2" height="2.7"/>
	<polygon fill="#2C3E50" points="1005.6,286.6 996.8,287.1 996.8,289.5 1000,289.2 1001.3,307.3 1004,307.1 1002.7,289.2 
		1005.9,288.9 	"/>
	<polygon fill="#2C3E50" points="1013,285.2 1014.4,293.2 1010.4,293.7 1009.1,286 1006.4,286.6 1009.9,306.5 1012.5,306 
		1010.7,296.1 1014.6,295.3 1016.5,305.5 1019.2,304.9 1015.7,285 	"/>
	<polygon fill="#2C3E50" points="1031.2,299.3 1025.6,282 1022.9,282.8 1029.3,302.3 1036.2,300.1 1035.4,297.7 	"/>
	<path fill="#2C3E50" d="M1041.8,281c-0.8-1.3-1.6-2.1-2.4-2.7c-1.3-0.8-2.7-0.8-4.3,0c-1.9,0.8-2.7,1.9-2.9,3.7
		c0,1.6,0.5,4.3,1.9,7.5c1.6,3.7,3.2,6.1,4.5,7.2c1.3,1.1,2.9,1.3,4.8,0.5c1.6-0.8,2.7-1.9,2.7-3.7c0-1.6-0.5-4.3-1.9-7.5
		C1043.4,283.9,1042.3,282,1041.8,281z M1042.3,295.1c-0.8,0.3-1.6,0-2.4-0.8c-0.8-0.8-1.9-2.7-2.9-5.6c-1.3-2.9-2.1-5.1-2.1-6.1
		s0.3-1.9,1.1-2.1c0.8-0.3,1.6,0,2.4,0.8s1.9,2.9,3.2,6.1c1.1,2.4,1.6,4.3,1.9,5.3C1043.7,294,1043.4,294.8,1042.3,295.1z"/>
	<path fill="#2C3E50" d="M1046.9,272.4l2.4,7.2l0.3,0.5c0,0.3,0.3,0.5,0.3,0.8l1.1,2.9l0.8,2.1l0.3,0.3l0.3,0.5l-0.5-0.8
		c-0.3-0.3-0.5-0.5-0.8-0.8c-0.3-0.3-0.5-0.8-0.8-1.1l-1.9-2.4l-0.8-1.1l-4.8-5.9l-2.4,1.3l13.3,16l1.9-1.1l-6.4-19.7L1046.9,272.4z
		"/>
	<polygon fill="#2C3E50" points="1062.1,284.2 1058.3,278.6 1061.5,276.2 1060.2,274.3 1057,276.4 1053.3,271.1 1057,268.7 
		1055.9,266.6 1049.8,270.8 1061.3,287.6 1067.4,283.6 1066,281.8 	"/>
	<path fill="#FFFFFF" d="M1034.1,215.2v-7.5v-1.1v-1.3h-0.5l0,0l0,0h-22.9l-0.3,0.3l0.3,0.3h22.9l0,0v0.5h-40.5v1.3h-21.3
		c-0.5-0.3-1.3-0.5-1.9-0.5h-13.8c-0.8,0-1.3,0.3-2.1,0.5c-0.8,0.3-1.6,0.5-2.1,1.3l-1.9,1.1h-3.2v1.6h3.2l1.9,1.1
		c0.5,0.8,1.1,1.1,2.1,1.3c0.5,0.3,1.3,0.5,2.1,0.5h13.8c0.8,0,1.3-0.3,1.9-0.5h21.3v1.1H1034.1z"/>
	<path fill="#2C3E50" d="M1103.9,168.8c0,0.3,12.8,30.6-10.9,65.5l2.1,1.6c24.8-36.2,11.5-67.9,11.2-68.2L1103.9,168.8z"/>
	<path fill="#231F20" d="M877.5,168.8l-2.4-1.1c-0.3,0.3-13.3,32,11.2,68.2l2.1-1.6C864.7,199.5,877.2,169.1,877.5,168.8z"/>
	<path fill="#FFFFFF" d="M1056.5,147l3.5-1.9l-9.1-5.6l-0.3,10.7l3.5-1.9c2.9,5.9,12,27.2,3.7,55.9l-5.1,2.7l1.3,2.4l2.7-1.3
		c0,0.3-0.3,0.8-0.3,1.1l-5.6,2.9l1.3,2.4l2.9-1.6c-0.3,0.5-0.3,0.8-0.5,1.3l-5.6,2.9l1.3,2.4l2.7-1.3c-0.3,0.5-0.5,1.1-0.8,1.6
		l-5.9,2.4l1.1,2.4l5.1-2.1l1.9,4.5l2.4-1.1l-2.1-5.1c0.5-0.8,0.8-1.6,1.1-2.7l1.6,2.9l2.4-1.3l-2.7-4.8c0.3-0.5,0.5-1.3,0.8-1.9
		l1.3,2.7l2.4-1.3l-2.7-4.8c0.3-0.5,0.3-1.1,0.5-1.9l1.6,2.9l2.4-1.3l-2.9-5.3C1068.7,175,1059.7,153.1,1056.5,147z"/>
	<path fill="#FFFFFF" d="M924.9,225l2.4,1.1l1.9-4.5l5.1,2.1l1.1-2.4l-5.9-2.4c-0.3-0.5-0.5-1.1-0.8-1.6l2.7,1.3l1.3-2.4l-5.6-2.9
		c-0.3-0.5-0.3-0.8-0.5-1.3l2.9,1.6l1.3-2.4l-5.6-2.9c0-0.3-0.3-0.8-0.3-1.1l2.7,1.3l1.3-2.4l-5.1-2.7c-8.3-28.5,0.8-50.1,3.7-55.9
		l3.5,1.9l-0.3-10.7l-9.1,5.6l3.5,1.9c-1.6,3.2-4.8,10.1-6.4,20c-1.6,9.1-2.1,22.1,2.1,37.3l-2.9,5.3l2.4,1.3l1.6-2.9
		c0.3,0.5,0.3,1.1,0.5,1.9l-2.7,4.8l2.4,1.3l1.3-2.7c0.3,0.5,0.5,1.3,0.8,1.9l-2.7,4.8l2.4,1.3l1.6-2.9c0.3,0.8,0.8,1.6,1.1,2.7
		L924.9,225z"/>
</g>
</svg>
