<?xml version="1.0" encoding="utf-8"?>
<!-- Generator: Adobe Illustrator 18.0.0, SVG Export Plug-In . SVG Version: 6.00 Build 0)  -->
<!DOCTYPE svg PUBLIC "-//W3C//DTD SVG 1.1//EN" "http://www.w3.org/Graphics/SVG/1.1/DTD/svg11.dtd">
<svg version="1.1" id="Layer_1" xmlns="http://www.w3.org/2000/svg" xmlns:xlink="http://www.w3.org/1999/xlink" x="0px" y="0px"
	 viewBox="0 0 1440 900" enable-background="new 0 0 1440 900" xml:space="preserve">
<g>
	<g>
		<path d="M617,789c2.2,1.4,6.5,2.5,9.7,2.5c6.8,0,11.2-4.3,11.2-10.8c0-5.8-3.6-9.4-9-13c-5.4-3.6-12.6-9.4-12.6-17.3
			c0-9.7,7.2-16.6,18-16.6c4.3,0,7.9,1.1,9.7,2.2l-1.8,6.1c-1.4-1.1-4.7-2.2-7.9-2.2c-6.5,0-9.7,4.7-9.7,9c0,6.1,3.6,9,10.1,13
			c7.9,5.4,11.9,11.2,11.9,18c0,10.8-7.9,17.6-19.1,17.6c-4.7,0-9.7-1.4-11.5-2.5L617,789z"/>
		<path d="M753.5,741.1h-12.2v-6.5H774v6.5h-12.2v56.5h-7.6v-56.5H753.5z"/>
		<path d="M878.8,734.6v42.1c0,11.2,4,15.1,9.4,15.1c5.8,0,9.4-4.3,9.4-15.1v-42.1h7.6v41c0,16.6-7.2,22.7-17.3,22.7
			s-16.9-6.1-16.9-22v-41.8L878.8,734.6L878.8,734.6z"/>
		<path d="M1007.6,735.7c3.2-0.7,6.5-1.1,10.4-1.1c7.2,0,12.2,1.4,15.8,4.7c5.4,4.3,9.4,12.2,9.4,25.2c0,14-4,22.3-7.9,26.6
			c-4.7,4.7-10.8,6.8-18.7,6.8c-3.2,0-6.5,0-9-0.7v-61.2h0V735.7z M1015.2,791.9c1.1,0,2.2,0,3.2,0c8.3,0,16.9-5.8,16.9-27.4
			c0-15.8-5.4-24.5-16.2-24.5c-1.1,0-2.5,0-3.6,0.4v51.5H1015.2z"/>
		<path d="M1150.6,734.6v63h-7.6v-63H1150.6z"/>
		<path d="M1288.4,765.6c0,23.8-9,32.8-19.4,32.8c-11.2,0-18.7-11.2-18.7-32.4c0-20.9,7.9-32.4,19.8-32.4
			C1281.6,733.9,1288.4,745.8,1288.4,765.6z M1258.2,765.9c0,13,2.5,25.6,11.2,25.6c9,0,11.2-13.7,11.2-25.9
			c0-11.9-2.2-25.6-11.2-25.6C1260.7,740.4,1258.2,753.3,1258.2,765.9z"/>
		<path d="M1386.7,789c2.2,1.4,6.5,2.5,9.7,2.5c6.8,0,11.2-4.3,11.2-10.8c0-5.8-3.6-9.4-9-13c-5.4-3.6-12.6-9.4-12.6-17.3
			c0-9.7,7.2-16.6,18-16.6c4.3,0,7.9,1.1,9.7,2.2l-1.8,6.1c-1.4-1.1-4.7-2.2-7.9-2.2c-6.5,0-9.7,4.7-9.7,9c0,6.1,3.6,9,10.1,13
			c7.9,5.4,11.9,11.2,11.9,18c0,10.8-7.9,17.6-19.1,17.6c-4.7,0-9.7-1.4-11.5-2.5L1386.7,789z"/>
	</g>
	<g>
		<path d="M584.6,505.8h109.4v15.5h-89.3v74.5h83.5v15.5h-83.5v83.9H697v15.5H585V505.8H584.6z"/>
		<path d="M721.4,505.8h53.3c64.1,0,79.9,35.6,79.9,103s-15.8,103-79.9,103h-52.9V506.2h-0.4V505.8z M741.6,695.5H774
			c43.2,0,61.2-20.2,61.2-87.1c0-67.3-18-87.5-61.2-87.5h-32.4V695.5z"/>
		<path d="M888.5,505.8h19.4v205.6h-19.4V505.8z"/>
		<path d="M985.3,521.3h-56.5v-15.5H1062v15.5h-56.9V711h-19.4V521.3H985.3z"/>
		<path d="M1082.2,505.8h19.4v205.6h-19.4V505.8z"/>
		<path d="M1206,502.2c45,0,70.2,32.4,70.2,106.2S1251,714.6,1206,714.6s-70.2-32.4-70.2-106.2S1161,502.2,1206,502.2z M1206,699.1
			c31.3,0,50.8-24.5,50.8-90.7s-19.1-90.7-50.8-90.7s-50.8,24.5-50.8,90.7C1155.2,675,1174.7,699.1,1206,699.1z"/>
		<path d="M1309.3,505.8h26.6l83.9,178.9h0.7V505.8h19.4v205.6h-26.6l-83.9-178.9h-0.7v178.9h-19.4V505.8z"/>
	</g>
	<g>
		<path fill="#00A651" d="M567.4,271.9c0-18.7-15.5-34.6-34.6-34.6H34.6C15.5,237.3,0,252.8,0,271.9v223.9h46.4L95,636.2l49-140.8
			h47.2v208.8h-46.8v-72.7l-25.6,72.7H72L45.7,629v75.2H0v66.2c0,18.7,15.5,34.6,34.6,34.6h498.6c18.7,0,34.6-15.5,34.6-34.6V542.6
			H526v161.6h-47.2V542.6h-45.7v161.3h-47.5l-59-116.6v116.6h-47.2V495.1h47.9l58.7,116.3V495.1h181.4V271.9L567.4,271.9z
			 M258.8,703.9H212V495.1h47.2v208.8H258.8z"/>
	</g>
</g>
</svg>
