<?xml version="1.0" encoding="utf-8"?>
<!-- Generator: Adobe Illustrator 18.0.0, SVG Export Plug-In . SVG Version: 6.00 Build 0)  -->
<!DOCTYPE svg PUBLIC "-//W3C//DTD SVG 1.1//EN" "http://www.w3.org/Graphics/SVG/1.1/DTD/svg11.dtd">
<svg version="1.1" id="Layer_1" xmlns="http://www.w3.org/2000/svg" xmlns:xlink="http://www.w3.org/1999/xlink" x="0px" y="0px"
	 viewBox="0 0 900 650" enable-background="new 0 0 900 650" xml:space="preserve">
<rect fill="#FFFFFF" width="900" height="650"/>
<g>
	<g>
		<path d="M389.5,482.4c1.3,0.8,3.8,1.5,5.7,1.5c4,0,6.6-2.5,6.6-6.3c0-3.4-2.1-5.5-5.3-7.6c-3.2-2.1-7.4-5.5-7.4-10.2
			c0-5.7,4.2-9.8,10.6-9.8c2.5,0,4.6,0.6,5.7,1.3l-1.1,3.6c-0.8-0.6-2.8-1.3-4.6-1.3c-3.8,0-5.7,2.8-5.7,5.3c0,3.6,2.1,5.3,5.9,7.6
			c4.6,3.2,7,6.6,7,10.6c0,6.3-4.6,10.3-11.2,10.3c-2.8,0-5.7-0.8-6.8-1.5L389.5,482.4z"/>
		<path d="M469.7,454.2h-7.2v-3.8h19.2v3.8h-7.2v33.2h-4.5v-33.2H469.7z"/>
		<path d="M543.3,450.4v24.7c0,6.6,2.3,8.9,5.5,8.9c3.4,0,5.5-2.5,5.5-8.9v-24.7h4.5v24.1c0,9.8-4.2,13.3-10.2,13.3
			c-5.9,0-9.9-3.6-9.9-12.9v-24.6L543.3,450.4L543.3,450.4z"/>
		<path d="M619,451c1.9-0.4,3.8-0.6,6.1-0.6c4.2,0,7.2,0.8,9.3,2.8c3.2,2.5,5.5,7.2,5.5,14.8c0,8.2-2.3,13.1-4.6,15.6
			c-2.8,2.8-6.3,4-11,4c-1.9,0-3.8,0-5.3-0.4v-36l0,0L619,451L619,451z M623.5,484.1c0.6,0,1.3,0,1.9,0c4.9,0,9.9-3.4,9.9-16.1
			c0-9.3-3.2-14.4-9.5-14.4c-0.6,0-1.5,0-2.1,0.2v30.3H623.5z"/>
		<path d="M703,450.4v37h-4.5v-37H703z"/>
		<path d="M784,468.6c0,14-5.3,19.3-11.4,19.3c-6.6,0-11-6.6-11-19c0-12.3,4.6-19,11.6-19C780,450,784,457,784,468.6z M766.2,468.8
			c0,7.6,1.5,15,6.6,15c5.3,0,6.6-8,6.6-15.2c0-7-1.3-15-6.6-15C767.7,453.8,766.2,461.4,766.2,468.8z"/>
		<path d="M841.7,482.4c1.3,0.8,3.8,1.5,5.7,1.5c4,0,6.6-2.5,6.6-6.3c0-3.4-2.1-5.5-5.3-7.6c-3.2-2.1-7.4-5.5-7.4-10.2
			c0-5.7,4.2-9.8,10.6-9.8c2.5,0,4.6,0.6,5.7,1.3l-1.1,3.6c-0.8-0.6-2.8-1.3-4.6-1.3c-3.8,0-5.7,2.8-5.7,5.3c0,3.6,2.1,5.3,5.9,7.6
			c4.6,3.2,7,6.6,7,10.6c0,6.3-4.6,10.3-11.2,10.3c-2.8,0-5.7-0.8-6.8-1.5L841.7,482.4z"/>
	</g>
	<g>
		<path d="M370.5,316h64.3v9.1h-52.5v43.8h49.1v9.1h-49.1v49.3h54.2v9.1h-65.8V316H370.5z"/>
		<path d="M450.9,316h31.3c37.7,0,46.9,20.9,46.9,60.5s-9.3,60.5-46.9,60.5h-31.1V316.2h-0.2L450.9,316L450.9,316z M462.7,427.4h19
			c25.4,0,36-11.9,36-51.2c0-39.5-10.6-51.4-36-51.4h-19V427.4z"/>
		<path d="M549,316h11.4v120.8H549V316z"/>
		<path d="M605.9,325.1h-33.2V316H651v9.1h-33.4v111.4h-11.4V325.1H605.9z"/>
		<path d="M662.8,316h11.4v120.8h-11.4V316z"/>
		<path d="M735.6,313.9c26.4,0,41.2,19,41.2,62.4s-14.8,62.4-41.2,62.4s-41.2-19-41.2-62.4S709.1,313.9,735.6,313.9z M735.6,429.5
			c18.4,0,29.8-14.4,29.8-53.3S754.2,323,735.6,323s-29.8,14.4-29.8,53.3C705.7,415.4,717.2,429.5,735.6,429.5z"/>
		<path d="M796.2,316h15.6l49.3,105.1h0.4V316H873v120.8h-15.6l-49.3-105.1h-0.4v105.1h-11.4V316z"/>
	</g>
	<g>
		<path fill="#00A651" d="M360.4,178.6c0-11-9.1-20.3-20.3-20.3H47.4c-11.2,0-20.3,9.1-20.3,20.3v131.5h27.3l28.6,82.5l28.8-82.7
			h27.7v122.7h-27.5v-42.7l-15,42.7H69.3l-15.5-44.2v44.2H27v38.9c0,11,9.1,20.3,20.3,20.3h292.9c11,0,20.3-9.1,20.3-20.3V337.6
			h-24.6v94.9h-27.7v-94.9h-26.8v94.8h-27.9l-34.7-68.5v68.5h-27.7V309.7h28.1l34.5,68.3v-68.3h106.6L360.4,178.6L360.4,178.6z
			 M179.1,432.4h-27.5V309.7h27.7v122.7H179.1z"/>
	</g>
</g>
</svg>
