<?xml version="1.0" encoding="utf-8"?>
<!-- Generator: Adobe Illustrator 18.0.0, SVG Export Plug-In . SVG Version: 6.00 Build 0)  -->
<!DOCTYPE svg PUBLIC "-//W3C//DTD SVG 1.1//EN" "http://www.w3.org/Graphics/SVG/1.1/DTD/svg11.dtd">
<svg version="1.1" id="Layer_1" xmlns="http://www.w3.org/2000/svg" xmlns:xlink="http://www.w3.org/1999/xlink" x="0px" y="0px"
	 viewBox="0 0 900 650" enable-background="new 0 0 900 650" xml:space="preserve">
<rect y="0" fill="#ED1C24" width="900" height="650"/>
<g>
	<path fill="#231F20" d="M205.7,582.7h-6.7v-1.8h15.8v1.8h-6.7v22.4h-2.3v-22.4H205.7z"/>
	<path fill="#231F20" d="M243.5,580.4c5.3,0,8.3,3.8,8.3,12.5c0,8.7-3,12.5-8.3,12.5c-5.3,0-8.3-3.8-8.3-12.5
		C235.2,584.3,238.2,580.4,243.5,580.4z M243.5,603.7c3.7,0,6-2.9,6-10.7s-2.3-10.7-6-10.7c-3.7,0-6,2.9-6,10.7
		S239.8,603.7,243.5,603.7z"/>
	<path fill="#231F20" d="M274.1,580.8h3.1l10,21.1h0.1v-21.1h2.3v24.3h-3.1l-10-21.1h-0.1v21.1h-2.3V580.8z"/>
	<path fill="#231F20" d="M316.9,595.4l-7.1-14.5h2.5L318,593l5.7-12.1h2.5l-7.1,14.5v9.7h-2.3v-9.7H316.9z"/>
	<path fill="#231F20" d="M351.5,582.7h-6.7v-1.8h15.8v1.8h-6.7v22.4h-2.3v-22.4H351.5z"/>
	<path fill="#231F20" d="M381.2,580.8h13v1.8h-10.6v8.8h9.9v1.8h-9.9v9.9h10.9v1.8h-13.3L381.2,580.8L381.2,580.8z"/>
	<path fill="#231F20" d="M415.7,580.8h7.8c4.4,0,6.8,2.3,6.8,6.1c0,2.9-1.2,5.5-4.7,6.2v0.1c3.3,0.3,4.4,2,4.5,5.7l0.1,2.7
		c0,1.3,0.2,2.6,1.1,3.6h-2.7c-0.5-0.8-0.7-2.1-0.7-3.4l-0.1-2c-0.1-4.3-1-5.6-5.2-5.6h-4.4v11.1h-2.3v-24.5L415.7,580.8
		L415.7,580.8z M418.1,592.2h4c3.7,0,5.9-1.6,5.9-4.8c0-3-1.4-4.8-5.6-4.8h-4.3V592.2z"/>
	<path fill="#231F20" d="M452.6,580.8h4.1l6.3,21.5h0.1l6.3-21.5h3.8v24.3h-2.3v-22.2h-0.1l-6.8,22.2h-2.2l-6.8-22.2h-0.1v22.2h-2.2
		V580.8z"/>
	<path fill="#231F20" d="M495.9,580.8h2.3v24.3h-2.3V580.8z"/>
	<path fill="#231F20" d="M520.8,580.8h3.1l10,21.1h0.1v-21.1h2.3v24.3h-3.1l-10-21.1h-0.1v21.1h-2.3V580.8z"/>
	<path fill="#231F20" d="M558.8,580.8h13v1.8h-10.6v8.8h9.9v1.8h-9.9v9.9H572v1.8h-13.2V580.8L558.8,580.8z"/>
	<path fill="#231F20" d="M594.5,601.6h2.5v3.5h-2.5V601.6z"/>
	<path fill="#231F20" d="M636.3,596.9c-0.3,5.5-3.1,8.6-7.8,8.6c-5.3,0-8.3-3.8-8.3-12.5c0-8.7,3-12.5,8.3-12.5
		c5.3,0,7.5,3.5,7.5,7.5h-2.3c0-3.3-1.8-5.6-5.2-5.6c-3.7,0-6,2.9-6,10.7c0,7.9,2.3,10.7,6,10.7c3.3,0,5.2-2.6,5.4-6.8L636.3,596.9
		L636.3,596.9L636.3,596.9z"/>
	<path fill="#231F20" d="M665.9,580.4c5.3,0,8.3,3.8,8.3,12.5c0,8.7-3,12.5-8.3,12.5c-5.3,0-8.3-3.8-8.3-12.5
		C657.5,584.3,660.5,580.4,665.9,580.4z M665.9,603.7c3.7,0,6-2.9,6-10.7s-2.3-10.7-6-10.7c-3.7,0-6,2.9-6,10.7
		S662.2,603.7,665.9,603.7z"/>
	<path fill="#231F20" d="M696.7,580.8h4.1l6.3,21.5h0.1l6.3-21.5h3.8v24.3h-2.3v-22.2h-0.1l-6.8,22.2h-2.2l-6.8-22.2h-0.1v22.2h-2.3
		L696.7,580.8L696.7,580.8z"/>
</g>
<g>
	<path fill="#231F20" d="M354.5,450.1c1.8-8.9,5-21,9.3-36.3l3.9-14.2l-13.1,2.2L354.5,450.1L354.5,450.1z"/>
	<path fill="#231F20" d="M449,34.5c-74,0-140.4,34.3-185.4,87.4h145.8c3.4,0,8.1,2.4,8.1,6.9v99.1c0,4.5-4.7,7.3-8.6,7.3h-48.2
		c-3.4,0-6.2,3.4-6.2,8.5v137.5l4.2-1.5c0.4-0.2,0.6-0.3,1-0.4c0.5-0.2,1.2-0.4,1.8-0.4c4.2-0.9,9-1.8,14.3-2.7l34.9-105h39.6
		l-33.1,101.3l43.4-0.4l-5.7,27.1h-48.1l-2.3,8.3c-4.4,16.1-7.6,30.6-9.9,43c-2.2,12.5-3.3,23.6-3.3,33c0,27.2,4.7,40.9,14.1,40.9
		c5,0,13.6-4.1,25.5-12.3c14.8-10.2,31.5-24.4,48.6-42.8v40.2c-14.4,14.4-30.2,25.7-44.2,34.2c4.4,0.3,8.8,0.4,13.2,0.4
		C584.5,544,694.7,430,694.7,289.3S584.8,34.5,449,34.5z"/>
	<path fill="#231F20" d="M253.2,235.3h-44.6c-3.6,17.1-5.2,35.4-5.2,53.7c0,61.6,20.6,118.4,56.6,162.5v-209
		C260,238.7,256.6,235.3,253.2,235.3z"/>
</g>
</svg>
