<?xml version="1.0" encoding="utf-8"?>
<!-- Generator: Adobe Illustrator 18.0.0, SVG Export Plug-In . SVG Version: 6.00 Build 0)  -->
<!DOCTYPE svg PUBLIC "-//W3C//DTD SVG 1.1//EN" "http://www.w3.org/Graphics/SVG/1.1/DTD/svg11.dtd">
<svg version="1.1" id="Layer_1" xmlns="http://www.w3.org/2000/svg" xmlns:xlink="http://www.w3.org/1999/xlink" x="0px" y="0px"
	 viewBox="0 138.9 1000 722.2" enable-background="new 0 138.9 1000 722.2" xml:space="preserve">
<rect x="0" y="138.9" fill="#231F20" width="1000" height="722.2"/>
<g>
	<path fill="#FFFFFF" d="M395,678.7c2-9.9,5.6-23.3,10.3-40.3l4.3-15.8l-14.6,2.4V678.7z"/>
	<path fill="#FFFFFF" d="M500,216.9c-82.2,0-156,38.1-206,97.1h162c3.8,0,9,2.7,9,7.7v110.1c0,5-5.2,8.1-9.5,8.1h-53.6
		c-3.8,0-6.9,3.8-6.9,9.4v152.8l4.7-1.7c0.4-0.2,0.7-0.3,1.1-0.4c0.6-0.2,1.3-0.4,2-0.5c4.7-1,10-2,15.9-3l38.8-116.7l44,0
		l-36.8,112.6l48.2-0.4l-6.3,30.1h-53.4l-2.6,9.2c-4.9,17.9-8.5,34-11,47.8c-2.4,13.9-3.7,26.2-3.7,36.7c0,30.2,5.2,45.4,15.7,45.4
		c5.6,0,15.1-4.6,28.3-13.7c16.4-11.3,35-27.1,54-47.5v44.7c-16,16-33.6,28.6-49.1,38c4.9,0.3,9.8,0.4,14.7,0.4
		C650.5,783.1,773,656.3,773,500S650.9,216.9,500,216.9z"/>
	<path fill="#FFFFFF" d="M282.5,440h-49.6c-4,19-5.8,39.4-5.8,59.7c0,68.5,22.9,131.7,62.9,180.6V448.1
		C290,443.8,286.2,440,282.5,440z"/>
</g>
</svg>
